<svg width="58" height="91" viewBox="0 0 58 91" fill="none" xmlns="http://www.w3.org/2000/svg">
<g filter="url(#filter0_d_40_82)">
<path d="M21.8046 29.5705C21.7677 29.6719 21.6879 29.7121 21.5988 29.7184C21.0182 30.0605 20.7407 30.7021 20.7403 31.5955L20.7497 31.6294C19.7741 33.4112 20.0298 35.8932 19.4279 37.9003C19.1057 38.9917 19.0773 40.3486 18.8528 41.559L18.838 41.5995C18.7216 41.978 18.6006 42.3394 18.7676 42.8039C19.6343 44.2061 18.8813 44.7234 18.2816 45.326C17.5173 46.8856 16.5234 48.2713 16.5531 50.4509C16.5648 51.341 16.2048 52.06 15.9246 52.7387C15.1129 54.7854 14.7149 57.1556 13.8222 59.0969C13.1673 60.5352 12.159 61.6332 11.8119 63.3878L11.7897 63.4486C11.6045 63.7184 11.276 63.8452 11.3103 64.3463C11.2025 64.85 12.0221 65.8458 11.0325 65.8813C10.8702 65.9989 10.7963 66.2015 10.806 66.4723C11.3909 68.1709 10.1892 66.8245 10.0125 67.2195C9.75917 67.2892 9.57938 67.4846 9.47315 67.8055C9.38677 68.3398 9.06221 68.575 8.78047 68.8713C8.22632 69.4979 7.75779 70.2468 7.22038 70.887C6.065 72.299 6.43125 74.24 6.85043 76.1847C7.01973 76.9403 7.52448 77.3118 8.04208 77.5886C9.73612 78.5078 12.0532 77.7787 13.0575 76.0072C13.0108 75.2726 12.6228 75.3247 12.2718 75.2755C12.1512 75.3088 12.0204 75.3994 11.8978 75.3785C11.7752 75.3576 11.6114 75.6579 11.5328 75.2785C11.5188 75.2276 11.7647 75.1781 11.8974 75.1416C12.069 75.0579 12.1764 74.8825 12.2624 74.6765C12.366 74.3928 12.4407 74.0987 12.5274 73.8014C12.7967 73.2714 12.5181 72.6371 12.441 72.075C13.1376 71.6826 13.5373 73.0858 14.1821 72.8353C14.4631 72.0652 13.9112 71.2873 13.9182 70.465C14.4817 71.0026 14.4666 72.5018 15.4819 72.2769C15.685 72.1663 15.8648 71.9709 15.908 71.7038C16.0419 70.6825 16.4205 70.0313 17.2167 69.8121C17.6148 69.7025 17.6911 69.2257 17.484 68.6628C17.0602 67.8315 16.5578 68.3162 16.099 68.2055C15.8258 68.062 15.5192 67.8912 15.5806 67.4549C15.6219 67.1336 15.9406 67.3011 16.155 67.2785C16.3453 67.2626 16.5169 67.1789 16.6364 67.0002C16.8224 66.639 16.9014 66.125 16.5908 65.8459C15.8433 65.1584 15.8323 64.1769 15.4311 62.9565C15.9514 64.3264 16.3005 65.4518 17.4088 65.329C17.8015 65.2938 18.007 66.0394 18.4036 66.1125C18.7449 65.891 19.0822 65.5611 19.4539 66.2974C19.826 66.7054 20.2653 66.2745 20.644 66.7537C21.1157 67.3348 21.5589 67.0122 21.6352 66.5355C21.8799 65.2101 22.6898 65.37 23.4743 65.391C23.6553 65.3412 23.8269 65.2575 23.9631 65.0924C24.1686 64.7076 24.4215 64.401 24.7601 64.2166C26.2015 63.4187 26.8463 61.4727 28.0597 60.3183C28.8411 59.5744 29.5991 58.7458 30.3023 57.8595C30.772 57.2561 31.1005 56.5641 31.2596 55.6816C32.6286 54.3384 33.5727 52.5836 33.8984 50.2332C33.5146 48.9351 32.8456 48.627 32.3421 49.5314C31.7432 50.6078 30.7294 51.2151 30.6263 52.3009C31.1373 50.8111 30.8014 49.8279 29.4028 49.5567C29.7032 48.7629 30.0841 48.4028 30.8827 49.0398C31.9276 49.8642 32.7452 49.1104 33.5364 48.6374C33.9937 48.3656 34.4377 47.9517 34.8194 47.5002C35.6662 45.2981 36.302 42.99 35.8684 40.1924C35.7267 39.3016 35.926 38.5175 35.9115 37.6646C36.1256 36.8399 36.5124 36.0771 36.1337 35.0328C36.0169 34.6092 35.8881 34.1889 35.6674 33.8121C35.4682 33.4658 35.2265 33.2954 34.9249 33.3784C34.5992 33.4681 34.5198 33.7452 34.6245 34.1721C34.7918 34.8735 34.6638 35.4922 34.5358 36.1108C34.4833 36.3441 34.4261 36.5604 34.3856 36.7903C34.2156 37.2564 34.5277 37.918 34.2257 38.3293C33.9051 38.6728 33.4968 38.8399 33.1194 39.0714C32.824 39.5538 33.0046 40.3974 32.6088 40.7981C32.3368 41.3652 31.6671 41.7137 32.3633 42.78C32.7245 43.3369 32.4058 43.7345 32.0057 43.79C31.6177 43.8421 31.141 43.5723 31.1604 42.9835C31.1736 42.5606 30.6342 41.4511 31.7293 41.7512C32.2337 41.8858 32.0453 40.8256 32.0527 40.2402C32.4096 39.0237 32.2731 37.5238 31.6432 35.7404C32.0432 35.685 32.4207 35.4534 32.8367 35.503C33.8322 35.63 34.0871 34.8123 34.5023 33.8229C34.9323 32.793 35.0315 32.164 34.3271 31.2094C34.1559 30.9648 34.401 31.0067 34.4045 30.8781C34.4236 30.6177 34.3749 30.394 34.2372 30.1767C33.0751 30.3873 32.3275 29.1346 31.4756 28.257C31.3305 28.06 31.1853 27.863 31.0328 27.6862C30.1781 26.8458 30.5793 25.8056 30.4478 24.8573C30.4018 24.5965 30.3271 24.3254 30.2329 24.0778C29.9111 23.1455 29.1954 23.2332 28.6914 22.7703C28.3715 22.4573 27.9369 22.9051 27.6823 22.2642C26.3117 22.6597 25.6393 24.1758 24.7341 25.3183C24.1282 26.0867 23.5959 26.9808 22.9946 27.7662C22.9697 27.8642 22.9141 27.8977 22.8277 27.8668C22.7331 27.9476 22.66 28.0589 22.6203 28.1974C22.5615 28.5964 22.4191 28.9274 22.1409 29.0951C21.9906 29.2094 21.8953 29.3815 21.8046 29.5705Z" fill="#E4082E"/>
<path d="M33.8433 15.609C33.6059 15.7838 33.3564 15.9619 33.119 16.1366C32.7322 16.8994 32.3668 17.6928 32.4828 18.773C32.2929 19.0258 32.077 19.2311 31.968 19.5893C31.8481 20.0963 31.6279 20.5215 31.4244 20.9604C31.296 21.3422 31.2874 21.7821 31.3727 22.2326C31.4186 22.4935 31.4933 22.7646 31.5875 23.0121C31.7953 23.4836 31.8498 23.8697 31.7012 24.3664C31.1638 26.1369 31.2801 26.3237 32.8064 26.3045C33.1006 26.2418 33.3855 26.1451 33.6984 26.1501C34.5374 26.5572 34.3861 27.6563 34.7698 28.3893C34.9788 29.0063 35.4065 29.3808 35.7128 29.8799C35.8505 30.0972 36.0078 30.2909 36.1992 30.4205C37.4726 29.5777 37.5663 29.0232 36.707 27.6007C35.5516 26.752 35.2465 25.8333 35.787 24.8276C35.9278 24.6794 36.052 24.5176 35.8547 24.2256L35.8667 24.2223C35.7737 24.1202 35.6834 23.981 35.5811 23.8451C34.7739 21.9525 34.9416 20.065 36.0242 19.0012C36.2986 18.7251 36.6083 18.5305 36.8445 18.2102C37.5882 17.6591 36.6954 16.2094 37.3434 15.5934C37.4547 14.9611 37.766 14.5837 38.2084 14.3525C38.4773 14.1509 38.6914 13.8914 38.7194 13.4279C38.3738 12.174 37.8468 11.8632 36.972 12.2682C36.0925 12.6562 35.6256 13.7875 34.6892 14.0635C34.3515 14.1565 34.5745 14.8243 34.5854 15.2406C34.5979 16.0394 34.2643 15.9124 33.86 15.6227L33.8433 15.609Z" fill="#3954A1"/>
<path d="M38.5161 10.1475C38.0562 10.4565 37.6129 10.7791 37.1529 11.088C36.7661 11.8509 35.7383 11.277 35.4913 12.3112C35.4543 12.4126 35.3959 12.4833 35.3161 12.5235C34.4499 13.0537 34.0152 14.0667 33.7907 15.2771C33.8234 15.3957 33.8561 15.5144 33.872 15.6193C34.0297 16.05 34.0394 16.8859 34.4691 16.7494C34.9664 16.576 35.1831 15.7142 34.9675 15.026C34.7025 14.2057 34.7352 14.3243 35.3174 14.3646C36.0704 14.4125 36.2587 13.2121 36.9506 12.8028C37.7974 12.2962 38.1294 12.6059 38.647 13.4478C39.2549 13.8639 39.5958 13.4054 39.946 12.9808C40.2709 12.4173 40.4379 11.7515 40.3845 10.9458C39.9545 9.14993 39.147 10.4114 38.5282 10.1442L38.5161 10.1475Z" fill="#4D69B0"/>
<path d="M19.5909 69.9971C19.7127 68.979 20.6226 68.9838 20.9276 68.207C20.089 67.4716 19.5749 68.1966 18.9655 68.5284C18.8542 68.5955 18.7429 68.6626 18.6483 68.7434C18.2853 69.2627 17.7315 68.4306 17.3337 68.7771C17.5089 70.2603 16.4247 69.2462 16.0671 69.6911C16.0281 69.7382 15.6615 69.2558 15.495 69.5933C15.3432 69.8903 15.6398 70.1186 15.7098 70.3728C15.9208 71.044 15.697 71.5978 15.4137 72.0769C15.4924 73.0215 16.1142 72.9232 16.5232 73.2299C16.6077 73.2067 16.7135 73.214 16.798 73.1908C16.8665 73.0625 16.9182 72.9206 16.9486 72.7482C16.9948 70.9853 17.7346 70.3258 19.0395 70.5864C19.2788 70.4658 19.5228 70.3622 19.603 69.9937L19.5909 69.9971Z" fill="#EC6274"/>
<path d="M12.9699 75.8308C13.2567 75.7883 13.5314 75.7491 13.8136 75.6897C14.2152 75.4515 14.6001 75.1997 14.7328 74.598C14.8137 74.1382 15.5282 74.4701 15.3328 73.6671C15.0421 73.0361 14.6868 72.6417 14.1439 72.7911C13.8127 72.3901 13.4695 71.9923 13.1383 71.5913C12.7355 71.1188 12.4732 71.3915 12.1486 71.6267C11.6498 71.9829 12.016 72.2284 12.2514 72.5647C12.6153 73.0844 12.0288 73.2641 12.1215 73.6944C12.6687 75.0204 13.1531 74.3766 13.631 73.6616C13.3808 75.0614 12.585 74.3871 12.0234 74.4688C11.9596 74.614 11.9125 74.7728 11.8487 74.918C11.7907 75.2257 11.8775 75.4935 12.0877 75.6909C12.3671 75.6686 12.6387 75.4298 12.9364 75.8036L12.9699 75.8308Z" fill="#E95368"/>
<path d="M14.1727 72.8014L15.3468 73.7179C15.7753 74.001 16.0777 73.8266 16.3361 73.4456C16.4065 73.3715 16.4602 73.2838 16.5306 73.2097C16.3539 72.4744 15.6784 72.6604 15.4211 72.0566C14.7206 71.7755 14.528 70.9352 14.3197 70.2268C14.2357 69.9218 14.4178 69.4523 13.9796 69.4636C13.7484 69.4725 13.6021 69.6951 13.5741 70.1586C13.5033 71.1262 13.9707 71.9273 14.1968 72.7948L14.1727 72.8014Z" fill="#E73750"/>
<path d="M18.9118 70.3116C17.2984 69.8261 16.5275 70.7493 16.7548 72.8927C17.1432 73.0775 17.3191 72.7738 17.4782 72.4565C17.544 71.8003 17.9635 71.7213 18.3262 71.5303C18.4161 71.4326 18.4892 71.3213 18.5457 71.1964C18.5873 71.112 18.6503 71.0582 18.7274 71.0552C18.8831 70.8665 19.0842 70.7017 18.9072 70.2947L18.9118 70.3116Z" fill="#EE7D8D"/>
<path d="M17.4101 72.2565C17.4992 72.2502 17.5884 72.2439 17.6942 72.2512C17.7787 72.228 17.8658 72.1675 17.9456 72.1273C17.9775 71.7721 18.5636 71.9207 18.3017 71.3C17.7891 71.2771 17.4879 71.597 17.4101 72.2565Z" fill="#EFCBC9"/>
<path d="M24.4762 61.0678C24.0688 61.1436 24.0302 61.9928 23.5383 61.5266C23.0799 61.0877 23.5733 60.806 23.5504 60.393C23.4811 59.4822 24.0399 60.0029 24.34 60.1026C24.9187 60.2715 25.5904 61.1075 26.0465 60.6902C26.4126 60.3706 26.6321 59.4716 26.5632 58.7978C26.4402 57.4096 25.8568 56.0935 24.7485 55.6511C24.1511 55.4145 23.8884 54.8852 23.3439 54.0871C23.609 55.4726 23.5444 56.2743 22.6918 56.6185C22.1193 56.849 21.9497 57.552 22.5953 58.3405C23.2958 59.1868 22.9258 59.9633 22.8156 60.7411C22.7569 61.1401 22.0599 61.2956 22.4674 61.785C22.7986 62.1861 23.2457 63.1021 23.7446 62.746C24.0886 62.4872 24.8825 62.5421 24.5622 61.427C24.5435 61.3592 24.5295 61.3084 24.4976 61.0984L24.4762 61.0678Z" fill="#E9435B"/>
<path d="M35.804 35.0142C35.988 34.5989 36.0448 34.1457 35.953 33.6241C35.7475 32.8785 35.7545 32.0561 35.2956 31.3803C35.0174 30.9829 34.8485 30.4642 34.5072 30.1206C34.3752 30.0658 34.2667 30.0957 34.1814 30.2103C34.2748 30.5492 34.1017 30.8157 34.1188 31.0662C34.5205 34.7842 34.1567 35.3948 31.5244 35.2627C31.3535 35.255 31.1761 35.1762 30.9383 35.1141C31.368 36.1079 31.6898 37.0402 32.1572 37.8413C32.8426 39.0565 31.2762 38.9772 31.7728 40.0255C32.1483 40.305 32.3021 41.1925 32.8773 40.9247C33.8167 40.8484 33.099 39.7516 33.2745 39.211C33.8318 38.7841 34.7654 38.5453 33.65 37.2298C33.2305 36.7437 33.5301 36.6065 33.7072 36.4483C34.0104 36.1826 34.4194 36.4893 34.7665 36.4302C34.8727 35.5441 35.5985 34.8338 34.7516 33.6449C35.6066 33.5918 35.5312 34.5424 35.804 35.0142Z" fill="#E72D48"/>
<path d="M33.7321 50.2425C33.8379 49.1195 34.9132 48.6412 34.557 47.2078C33.9655 47.6988 33.4114 48.3254 32.7704 48.6842C31.7112 49.2675 30.6484 48.8491 29.7011 47.5785C29.3606 47.7087 29.4587 48.0645 29.526 48.3559C29.7934 49.4674 28.3317 48.6848 28.7084 49.6749C29.0805 50.6481 29.7743 49.7278 30.1565 50.0784C30.5889 50.4698 30.6562 51.3264 30.4056 51.9241C30.0079 52.8358 29.9791 52.8255 30.7614 54.2509C30.5418 51.759 32.07 51.2288 32.5985 49.6613C32.8775 48.837 33.4402 49.466 33.7321 50.2425Z" fill="#E9425A"/>
<path d="M29.8466 32.9899C30.0186 32.5779 30.2257 32.0104 29.7563 31.7203C28.9469 31.2322 28.8367 30.3145 28.7036 29.5489C28.5086 28.4176 27.8563 28.1232 27.3251 28.0324C26.6138 27.9001 26.655 28.7092 26.8773 29.4684C26.994 29.892 26.8088 30.1618 26.7267 30.4761C26.3477 32.0207 26.7228 32.6284 28.0822 32.71C28.6706 32.5844 29.243 32.3539 29.8587 32.9866L29.8466 32.9899Z" fill="#E62340"/>
<path d="M18.8188 69.0793C19.5547 68.8767 20.0909 68.091 20.923 68.1901C21.7094 67.7 22.1274 66.6734 22.7854 66C23.0096 65.6831 23.2384 65.383 23.4625 65.0661C21.93 64.1207 21.6133 65.7029 20.9817 67.2259C20.7368 64.595 19.9796 66.4626 19.4628 66.0944C19.0958 65.9402 18.9849 66.2442 18.8666 66.5685C18.8483 66.7376 18.8514 66.9373 18.9102 67.1034C18.9876 67.3373 19.1087 67.541 19.1546 67.8018C19.0604 67.5543 18.9561 67.3642 18.7343 67.4071C18.2848 67.8954 18.2393 68.4367 18.8141 69.0624L18.8188 69.0793Z" fill="#E6374D"/>
<path d="M32.75 25.8643C32.411 25.8118 32.0098 26.2869 31.7424 25.7406C31.5105 25.2758 31.802 24.685 32.0654 24.5578C33.1656 23.9814 32.0125 23.4238 31.8871 22.8749C30.7757 22.7981 30.8469 24.3281 30.2613 24.9816C30.1609 26.0302 29.564 27.1608 30.9319 27.9327C32.2737 28.092 32.8353 27.4452 32.75 25.8643Z" fill="#5C4898"/>
<path d="M32.8773 40.9247C32.4573 40.7669 32.3332 39.7983 31.7728 40.0255C31.7849 41.1526 31.9106 42.5035 30.617 40.6355C30.6388 41.4681 31.2288 42.2901 30.5855 42.923C30.3937 43.1217 30.856 43.669 31.1331 43.9208C31.5487 44.2986 32.008 44.6462 32.4465 44.3067C32.8026 44.0446 33.0462 43.1389 32.9123 43.0299C31.8374 42.0496 32.8282 41.5945 32.8726 40.9078L32.8773 40.9247Z" fill="#E83F56"/>
<path d="M34.1814 30.2103C34.2659 30.1871 34.3503 30.1638 34.4348 30.1406C33.8771 29.2002 34.6025 28.8182 34.6682 28.162C34.5585 27.4812 34.4608 26.7971 34.0152 26.2634C33.821 26.1711 33.5906 26.0886 33.4878 26.281C32.9224 27.3847 32.0126 27.9451 31.1884 28.6278C31.5048 29.0694 32.0348 29.0147 32.2632 29.6081C32.8338 31.0189 33.4926 30.8193 34.174 30.2306L34.1814 30.2103Z" fill="#E52547"/>
<path d="M23.3162 49.1358C22.9181 49.2454 22.204 51.9762 22.4963 52.4244C22.8454 52.9846 23.2097 53.176 23.6498 52.6538C24.2919 51.8754 24.1953 50.7716 24.1611 49.7054C24.1505 48.9608 23.6828 49.0531 23.3115 49.1189L23.3162 49.1358Z" fill="#E9445B"/>
<path d="M18.5128 65.9913C18.0151 65.3626 17.7018 64.5556 16.783 64.7538C16.3152 64.8461 15.8949 63.3211 15.3987 62.5097C15.5909 63.6782 14.8839 65.0214 16.3106 65.9595C16.6721 66.1882 16.5168 66.6138 16.497 66.9656C16.5639 67.0201 16.6141 67.061 16.6811 67.1155C17.4567 67.3395 17.8112 66.1298 18.6362 66.486C18.6786 66.3103 18.6366 66.1578 18.5296 66.0049L18.5128 65.9913Z" fill="#E9435A"/>
<path d="M31.6696 22.1327C31.6754 21.73 31.6738 21.3475 31.6797 20.9448C31.4547 20.2228 31.1068 20.3733 30.771 20.5205C30.3997 21.1514 29.8086 21.3141 29.2575 21.5752C28.7668 21.8197 28.5746 22.3467 28.5925 23.071C28.8533 24.1113 29.7429 23.1007 30.011 24.1207C31.1384 24.3026 30.9582 22.5655 31.6696 22.1327Z" fill="#734292"/>
<path d="M31.1958 28.6076C32.6119 28.8011 33.1797 27.4233 33.9253 26.3611C34.0362 26.0571 33.9782 25.7996 33.7299 25.558C33.4042 25.6477 33.071 25.7577 32.75 25.8643C32.4418 27.0066 31.7985 27.6394 30.9319 27.9327C31.0214 28.1633 31.1062 28.377 31.1958 28.6076Z" fill="#B12D7A"/>
<path d="M34.7665 36.4302C33.8741 35.2174 33.3791 35.6818 32.9826 36.739C32.8791 37.0227 32.7542 37.2759 33.1332 37.4268C34.9969 38.2081 33.2243 38.605 33.2699 39.194C33.9241 39.5426 34.1038 38.7821 34.47 38.4625C34.6187 37.9658 34.1291 37.2255 34.5992 36.8591C34.6509 36.7172 34.7148 36.572 34.7618 36.4132L34.7665 36.4302Z" fill="#E94860"/>
<path d="M20.2993 59.9936C20.5776 59.8259 20.8251 59.5936 21.1267 59.5106C21.5127 59.4043 21.4481 59.0757 21.3165 58.6926C21.1216 58.1264 20.9931 58.5082 20.8188 58.6291C20.4359 58.9351 20.4078 58.2682 20.2024 58.0878C19.7653 57.6794 19.3983 57.5252 19.2213 58.2485C19.103 59.138 19.593 59.55 20.095 59.9587C20.1647 59.976 20.2296 59.9763 20.2993 59.9936Z" fill="#E73952"/>
<path d="M12.0569 74.4961C12.5694 75.0842 13.0839 75.1613 13.6229 74.9036C13.9902 74.7295 14.2117 74.4498 14.2665 73.9424C14.2957 73.6244 14.0883 73.3899 13.9388 73.4128C13.6158 73.4652 13.0893 72.8263 12.9897 73.7835C12.8901 74.7407 12.4511 73.713 12.167 73.7183C12.1359 73.9821 12.1001 74.2289 12.0689 74.4928L12.0569 74.4961Z" fill="#E74153"/>
<path d="M28.4601 35.5411C28.006 35.4474 27.6954 35.1683 27.4308 34.5848C27.2985 34.2931 27.1268 33.8116 26.796 34.2126C26.6793 34.3542 26.4446 34.4917 26.4625 34.6508C26.5042 35.1316 26.8408 34.8931 27.0175 35.0632C27.4927 35.5158 27.8336 36.1876 28.4403 36.4581C28.812 36.6293 28.7976 36.3416 28.9077 36.1289C29.0836 35.8253 29.1295 35.5209 28.8318 35.1471C28.615 34.8786 28.441 34.6713 28.4555 35.5242L28.4601 35.5411Z" fill="#E62642"/>
<path d="M17.82 61.4055C17.5729 61.8746 17.3258 62.3437 17.0787 62.8128C17.0989 63.263 16.8651 63.8744 17.3278 64.0934C17.8193 64.3227 17.987 63.5655 18.3217 63.2728C18.8747 62.5007 18.7813 62.1618 17.8321 61.4021L17.82 61.4055Z" fill="#E62844"/>
<path d="M18.3247 60.0815C18.5061 60.8337 17.0019 59.6617 17.7461 61.043C18.3555 61.2763 18.7213 62.4153 19.4553 62.1585C19.6164 61.3302 20.578 61.1931 20.3114 59.9903L20.2518 59.9155C19.5467 59.6174 19.0758 60.6404 18.3368 60.0782L18.3247 60.0815Z" fill="#E62844"/>
<path d="M31.6696 22.1327C30.5897 22.0289 30.6843 23.6437 30.011 24.1207C30.0904 24.4088 30.1698 24.6968 30.2613 24.9816C31.3299 24.9973 31.173 23.345 31.8871 22.8749C31.8171 22.6207 31.7517 22.3835 31.6816 22.1293L31.6696 22.1327Z" fill="#A7307E"/>
<path d="M23.1484 45.3717C23.808 45.0807 24.4018 44.8808 24.0239 43.7451C23.7468 42.928 23.4308 43.2885 23.1312 43.4257C22.0995 43.8738 23.4593 44.7574 23.1484 45.3717Z" fill="#E7344D"/>
<path d="M18.3247 60.0815C19.2642 61.7006 19.6451 60.2102 20.2398 59.9188C19.9027 59.3553 19.5583 58.8121 19.2213 58.2485C18.6695 58.601 19.0579 59.9161 18.32 60.0645L18.3247 60.0815Z" fill="#EB596C"/>
<path d="M27.2122 38.7835C26.4043 38.1126 26.4821 37.4531 26.9253 36.5653C26.2602 36.9307 25.4134 36.307 25.4827 37.2177C25.538 38.0776 26.1011 38.9435 27.2122 38.7835Z" fill="#E72E49"/>
<path d="M18.8722 42.6658C18.506 43.5505 18.7539 44.6855 18.5652 45.649C19.835 44.3697 19.9163 43.5816 18.8722 42.6658Z" fill="#E65B6A"/>
<path d="M17.3291 68.7602C17.7396 68.8842 18.1004 69.7693 18.5581 69.1693C18.4179 68.0958 17.7704 67.8183 17.1496 67.4969C16.8924 67.4584 16.7184 67.251 16.5815 66.9424L16.4923 66.9487C16.3355 66.9918 16.1666 67.0383 16.0051 67.0646C15.76 67.5879 15.7794 68.1294 16.1406 68.6863C16.5644 68.9525 16.8636 68.0132 17.3291 68.7602Z" fill="#E52442"/>
<path d="M19.4432 62.1618C18.8809 61.7697 18.4605 60.8098 17.734 61.0463C17.7667 61.1649 17.7994 61.2835 17.82 61.4055C18.1858 61.9793 18.6844 62.5166 18.3096 63.2761C19.3386 63.9955 19.0455 62.5083 19.4312 62.1651L19.4432 62.1618Z" fill="#E9495F"/>
<path d="M16.1406 68.6863C16.2028 68.1587 16.1713 67.6205 16.0051 67.0646C15.6591 66.7041 15.2042 66.1365 15.0384 66.9479C14.8396 67.9689 15.3911 68.5098 16.1406 68.6863Z" fill="#E84159"/>
<path d="M29.8466 32.9899C29.1901 31.2199 28.6258 31.904 28.0701 32.7133C28.2246 32.9442 28.3865 33.1549 28.541 33.3858C29.0968 33.7068 29.4703 33.367 29.8393 33.0101L29.8466 32.9899Z" fill="#E40A2D"/>
<path d="M27.5726 39.9969C28.2283 40.1628 28.7623 40.7815 29.1222 40.0625C29.2055 39.8937 29.1027 39.5209 28.8844 39.4352C28.3902 39.2431 27.8504 39.0271 27.5726 39.9969Z" fill="#E72C45"/>
<path d="M32.2933 33.1549C32.477 33.633 32.7755 33.9155 33.0234 33.9202C33.5795 33.9129 33.1094 33.149 33.2545 32.7809C33.3701 32.4938 33.0039 32.2483 32.77 32.2944C32.3987 32.3602 32.4089 32.8679 32.2812 33.1582L32.2933 33.1549Z" fill="#E72C44"/>
<path d="M12.1211 75.7181C12.0511 75.4639 11.9643 75.1961 11.8822 74.9453C10.6808 73.8358 11.1393 75.405 10.8299 75.8366C11.4697 76.4626 11.7032 75.6144 12.1332 75.7148L12.1211 75.7181Z" fill="#E62944"/>
<path d="M31.0623 46.0187C30.7055 46.3722 30.7857 47.134 30.1716 47.4489C30.8094 47.4557 31.3776 48.0102 31.6302 47.4667C31.8679 46.9637 31.2842 46.541 31.0623 46.0187Z" fill="#E84056"/>
<path d="M29.0234 54.2554C28.6132 53.238 28.0999 53.3064 27.6107 53.3681C27.5262 53.3914 27.5025 53.6349 27.4554 53.7938C27.9395 54.0433 28.4073 54.5162 29.0234 54.2554Z" fill="#E83A50"/>
<path d="M21.8791 53.67C21.4316 54.2125 21.1008 54.6135 20.7117 55.0853C21.5289 55.2249 21.9181 54.7531 21.8791 53.67Z" fill="#E62541"/>
<path d="M19.3644 53.3049C19.7586 53.6522 20.0579 54.4084 20.4778 54.0011C20.6502 53.826 20.6735 53.3456 20.3925 52.9854C19.676 52.0341 19.8952 53.7239 19.3523 53.3082L19.3644 53.3049Z" fill="#E62541"/>
<path d="M28.5804 23.0743C29.1198 23.0534 28.7205 21.8872 29.3194 21.9411C29.4556 21.7759 29.3996 21.5726 29.2906 21.3656C29.2404 21.3247 29.1902 21.2838 29.14 21.243C28.6793 21.6433 28.2018 22.03 27.741 22.4303C27.8628 23.1078 28.3551 22.6806 28.5804 23.0743Z" fill="#D01D40"/>
<path d="M29.8346 32.9932C29.2929 32.723 28.9893 33.3171 28.5363 33.3689C28.9808 34.3221 29.5774 34.085 30.1502 34.0913C29.8906 33.7617 29.7684 33.4125 29.8466 32.9899L29.8346 32.9932Z" fill="#E72D48"/>
<path d="M10.9795 66.4428C10.6709 66.783 10.3669 67.1401 10.0463 67.4837C10.5802 67.5372 11.127 68.0612 11.7384 67.7835C11.4656 67.3117 11.2309 66.8841 10.9795 66.4428Z" fill="#E72F50"/>
<path d="M11.5032 64.2932C11.1744 64.7483 11.1736 65.4049 11.1153 66.0408C11.3799 66.0591 11.6372 66.6628 11.8808 66.3223C12.3874 65.6176 11.4756 64.9936 11.5032 64.2932Z" fill="#E1314C"/>
<path d="M18.5128 65.9913C18.5455 66.1099 18.5829 66.2455 18.6156 66.3641C18.6958 66.5608 18.8296 66.6698 18.9837 66.6638C19.1394 66.4751 19.2997 66.3034 19.4554 66.1147C19.5145 65.3874 19.1082 65.0434 18.7015 65.0278C18.2707 65.0188 18.4081 65.5643 18.5008 65.9946L18.5128 65.9913Z" fill="#E9475E"/>
<path d="M8.66224 74.8473C8.45481 74.6127 8.32949 74.0638 7.99092 74.2482C7.77572 74.3621 7.76522 74.7479 7.86135 75.0496C7.95943 75.4054 8.1797 75.5453 8.43771 75.4925C8.69105 75.4228 8.82726 75.2576 8.66224 74.8473Z" fill="#E7314A"/>
<path d="M19.0436 51.3878C18.8751 51.6712 18.8405 52.0636 18.9627 52.4128C19.0589 52.7145 19.3001 52.648 19.4243 52.4863C19.6188 52.2504 19.7873 51.967 19.5285 51.546C19.4075 51.3423 19.2188 51.1755 19.039 51.3708L19.0436 51.3878Z" fill="#E62343"/>
<path d="M34.5992 36.8591C33.9034 37.16 34.3595 37.8731 34.47 38.4625C34.7732 38.7619 35.0954 38.8008 34.8596 38.2277C34.6591 37.7359 34.547 37.3292 34.6112 36.8558L34.5992 36.8591Z" fill="#E72D48"/>
<path d="M30.1502 34.0913C30.799 35.0795 30.9803 34.1363 31.6485 33.9705C30.8336 33.5568 30.4755 33.7648 30.1502 34.0913Z" fill="#E72D48"/>
<path d="M27.2275 56.8282C27.0679 56.9086 26.8574 57.0395 27.0165 57.2874C27.1329 57.4741 27.4115 57.5432 27.6159 57.5781C27.9186 57.6406 27.8112 57.2509 27.7645 57.0814C27.6625 56.6173 27.4178 56.8123 27.2275 56.8282Z" fill="#E72D47"/>
<path d="M23.8587 64.9023C24.2541 64.8299 24.6448 64.7406 24.5452 64.0023C24.0902 64 23.7758 64.1777 23.8587 64.9023Z" fill="#EC7C8B"/>
<path d="M24.9337 53.6859C24.9375 53.7942 24.8951 53.9699 24.9325 54.1055C25.0119 54.3936 25.1987 54.5062 25.3423 54.3208C25.4007 54.2501 25.3668 53.9859 25.308 53.8198C25.2493 53.6537 25.1181 53.5075 24.929 53.6689L24.9337 53.6859Z" fill="#E9435B"/>
<path d="M22.8661 28.148C22.5408 28.4745 22.182 28.7739 22.3299 29.4989C22.8487 29.356 23.014 28.8729 22.8661 28.148Z" fill="#E85E71"/>
<path d="M18.4351 55.5844C18.4242 55.7333 18.367 55.9496 18.3989 56.1596C18.4355 56.3865 18.5799 56.6749 18.7457 56.4287C18.8309 56.3141 18.8118 56.0094 18.7873 55.7792C18.7647 55.6031 18.6577 55.4502 18.4351 55.5844Z" fill="#E7344C"/>
<path d="M22.3499 36.4941C22.5278 36.8098 22.6391 36.7427 22.729 36.645C22.8457 36.5035 23.0368 36.3962 22.8154 36.1108C22.7558 36.036 22.5951 35.9709 22.5683 36.0147C22.4682 36.1699 22.4184 36.3659 22.3546 36.5111L22.3499 36.4941Z" fill="#E73350"/>
<path d="M9.66181 67.9724C9.31858 68.1398 9.12323 68.4671 9.13063 69.0119C9.50734 68.8718 9.92218 68.7758 9.66181 67.9724Z" fill="#E4667C"/>
<path d="M17.074 62.7959C16.8378 62.551 16.744 61.9752 16.3459 62.0848C16.2976 62.0981 16.2478 62.2941 16.2786 62.3586C16.4568 62.9111 16.7779 62.8045 17.0693 62.7789L17.074 62.7959Z" fill="#E62844"/>
<path d="M35.6476 24.2279C35.4748 22.4706 36.5084 21.5115 36.8096 20.0612C36.9376 19.4425 37.2458 18.8654 37.3384 18.1654C37.1597 17.9411 36.9772 17.6085 36.7457 17.9457C35.3949 18.5546 34.7007 19.8032 34.6976 21.8641C34.691 22.9234 34.8845 23.6723 35.6476 24.2279Z" fill="#7087C3"/>
<path d="M30.8216 20.7982C31.1018 20.6846 31.3866 20.588 31.6723 20.9651C32.1046 20.7914 32.2646 20.3827 32.1353 19.7255C31.8723 19.5245 31.6212 19.3201 31.3535 19.1021C31.2049 20.7292 30.1486 18.6864 29.7906 19.4595C29.8654 20.2958 29.0987 20.4339 29.14 21.243L29.1567 21.2566C29.8425 21.5783 30.3834 21.3747 30.8216 20.7982Z" fill="#5265AB"/>
<path d="M39.8398 12.7366C39.4381 12.9748 39.0365 13.213 38.647 13.4478C38.4143 13.6395 38.1862 13.8482 37.9656 14.0365C37.8446 14.398 37.8703 14.7738 38.0353 15.1841C38.2198 15.5709 38.4606 15.8327 38.7996 15.8853C39.0245 14.9118 39.6822 14.5666 40.2924 14.1434C40.4103 13.5822 40.3204 13.1147 39.8686 12.7469L39.8398 12.7366Z" fill="#768FC8"/>
<path d="M38.7708 15.875C38.5875 15.6337 38.4116 15.3722 38.2283 15.131C37.8364 15.0748 37.3278 14.595 37.1667 15.4233C36.3561 15.9199 37.1056 17.2268 36.7457 17.9457C36.9473 18.0178 37.1368 18.0933 37.3384 18.1654C37.819 17.4132 38.2949 16.6441 38.7755 15.8919L38.7708 15.875Z" fill="#637ABA"/>
<path d="M34.5546 28.5032C34.1705 28.6637 33.5529 28.542 33.5634 29.2866C33.5681 29.8687 34.1927 29.7332 34.4348 30.1406C34.6231 30.6356 34.6298 31.2719 35.1186 31.5384C35.7035 31.5415 35.9253 30.9335 36.2467 30.4986L36.3199 30.3873C36.2183 30.16 36.1167 29.9327 36.0152 29.7055C35.5431 29.4526 35.0313 29.3382 34.734 28.6361C34.6717 28.5986 34.6215 28.5577 34.5593 28.5202L34.5546 28.5032Z" fill="#E12F5C"/>
<path d="M36.6611 27.905C36.442 26.7803 35.8173 25.7855 35.7912 24.6077C35.4795 24.7482 34.1299 23.2419 35.1523 25.5858C35.608 26.6271 35.6357 27.6222 36.6611 27.905Z" fill="#5F4D9B"/>
<path d="M33.7419 25.5547C33.8167 25.8259 33.8626 26.0867 33.9373 26.3578C34.1456 27.0662 34.3584 27.7915 34.5667 28.4999L34.6009 28.4358C34.8083 28.6704 34.9652 28.6272 35.0947 28.391C34.6382 27.441 34.9951 25.9572 33.7419 25.5547Z" fill="#773F91"/>
<path d="M35.0827 28.3943C34.9165 28.4036 34.755 28.4298 34.5888 28.4391C34.72 29.7156 35.208 30.0735 36.0105 29.6885C35.9859 28.8931 35.1609 29.102 35.078 28.3773L35.0827 28.3943Z" fill="#C22573"/>
<path d="M37.1741 15.403C37.4005 14.812 38.0092 15.7018 38.2357 15.1107C38.1329 14.7379 38.0349 14.3821 37.9442 14.006C37.4776 14.2438 37.0612 14.5225 37.1694 15.3861L37.1741 15.403Z" fill="#4D69B0"/>
<path d="M39.8398 12.7366C39.9826 13.2077 40.1207 13.662 40.2636 14.1331C41.075 13.5451 42.3086 13.406 41.8178 11.3898C41.3664 10.6937 40.8815 11.1007 40.4106 10.9933C40.3503 11.0099 40.2974 11.0063 40.2324 11.0059C40.1071 11.5874 39.965 12.1552 39.8398 12.7366Z" fill="#3857A3"/>
<path d="M38.5161 10.1475C38.7469 10.4669 39.0081 10.6137 39.2723 10.3952C39.7572 9.98818 40.0234 10.3889 40.2324 11.0059C40.8924 10.9518 42.1097 11.6012 41.2531 9.57632C40.1977 9.13765 39.3069 9.4376 38.5115 10.1306L38.5161 10.1475Z" fill="#3B5AA6"/>
<path d="M41.2531 9.57632C41.705 11.0745 40.7426 10.7378 40.2324 11.0059C40.757 12.1559 41.2905 10.8422 41.8178 11.3898C42.1229 10.613 41.7061 10.0897 41.241 9.57964L41.2531 9.57632Z" fill="#4D69B0"/>
<path d="M36.2467 30.4986C35.6357 30.448 35.2882 30.8354 35.1186 31.5384C35.6023 32.1163 35.1139 33.217 35.965 33.6207C36.3293 32.6818 36.3024 31.5953 36.2588 30.4952L36.2467 30.4986Z" fill="#E33245"/>
<path d="M16.9726 67.6551C17.4758 68.2093 18.1798 68.3619 18.5627 69.1863C18.6472 69.163 18.7437 69.1364 18.8235 69.0962C18.5857 68.4689 18.5327 67.9001 18.9285 67.4994C18.0381 66.3408 17.7586 66.363 16.9772 67.672L16.9726 67.6551Z" fill="#E9475E"/>
<path d="M23.9336 56.3677C23.8542 57.7752 24.3181 58.7048 25.2319 59.3831C25.428 59.5296 25.5814 59.615 25.725 59.4296C25.7713 59.3622 25.7701 59.2166 25.7903 59.1017C24.7127 58.7238 25.2727 56.5642 23.9456 56.3644L23.9336 56.3677Z" fill="#E41939"/>
<path d="M16.9726 67.6551C17.5221 67.0116 18.0782 66.4391 18.9238 67.4825C18.976 67.5775 19.0561 67.7742 19.0803 67.7676C19.2659 67.7347 19.2612 67.7178 18.9958 66.6605C18.8787 66.5651 18.7448 66.4561 18.6276 66.3608C17.7485 65.8553 17.2738 66.77 16.5935 66.939C16.5791 67.2165 16.4776 67.5544 16.5745 67.7647C16.7235 68.0701 16.8399 67.6916 16.9846 67.6518L16.9726 67.6551Z" fill="#EC5F75"/>
<path d="M30.8216 20.7982C30.2666 20.951 29.7117 21.1038 29.1567 21.2566C29.2175 21.4769 29.254 21.7038 29.3074 21.9444C29.8444 21.6324 30.8052 22.1518 30.8095 20.8016L30.8216 20.7982Z" fill="#A13889"/>
</g>
<defs>
<filter id="filter0_d_40_82" x="0.444946" y="0.370789" width="57.4848" height="90.6165" filterUnits="userSpaceOnUse" color-interpolation-filters="sRGB">
<feFlood flood-opacity="0" result="BackgroundImageFix"/>
<feColorMatrix in="SourceAlpha" type="matrix" values="0 0 0 0 0 0 0 0 0 0 0 0 0 0 0 0 0 0 127 0" result="hardAlpha"/>
<feOffset dx="5" dy="2"/>
<feGaussianBlur stdDeviation="5.5"/>
<feComposite in2="hardAlpha" operator="out"/>
<feColorMatrix type="matrix" values="0 0 0 0 0 0 0 0 0 0 0 0 0 0 0 0 0 0 0.38 0"/>
<feBlend mode="normal" in2="BackgroundImageFix" result="effect1_dropShadow_40_82"/>
<feBlend mode="normal" in="SourceGraphic" in2="effect1_dropShadow_40_82" result="shape"/>
</filter>
</defs>
</svg>
