<svg width="243" height="201" viewBox="0 0 243 201" fill="none" xmlns="http://www.w3.org/2000/svg">
<g filter="url(#filter0_d_40_299)">
<path d="M158.562 54.9586C158.388 55.2177 158.136 55.2743 157.883 55.2288C156.021 55.7803 154.795 57.39 154.165 59.9054L154.167 60.0075C150.189 64.3325 149.157 71.5026 146.064 76.727C144.396 79.5716 143.362 83.3723 141.883 86.6212L141.814 86.7248C141.222 87.7079 140.63 88.6399 140.77 90.0663C142.203 94.6294 139.736 95.5516 137.638 96.8231C134.406 100.672 130.656 103.869 129.205 110.027C128.611 112.542 127.1 114.311 125.84 116.024C122.133 121.21 119.354 127.602 115.495 132.435C112.654 136.02 109.066 138.397 106.862 143.091L106.757 143.246C106.05 143.875 105.043 143.999 104.787 145.434C104.131 146.776 105.719 150.161 102.931 149.559C102.395 149.775 102.046 150.293 101.882 151.063C102.321 156.26 99.9121 151.617 99.1407 152.604C98.3842 152.62 97.7447 153.043 97.2222 153.871C96.605 155.314 95.5332 155.746 94.5379 156.381C92.5495 157.752 90.7141 159.528 88.7629 160.95C84.5429 164.106 84.1999 169.831 84.0022 175.605C83.9433 177.852 85.0915 179.256 86.3422 180.403C90.4262 184.193 97.4098 183.784 101.461 179.508C101.848 177.407 100.727 177.278 99.7817 176.891C99.4214 176.899 98.9924 177.061 98.6648 176.915C98.3372 176.769 97.6684 177.499 97.7158 176.375C97.7125 176.221 98.4341 176.257 98.8304 176.248C99.3686 176.134 99.792 175.716 100.177 175.197C100.666 174.472 101.081 173.697 101.533 172.921C102.658 171.62 102.326 169.636 102.506 167.999C104.728 167.388 104.856 171.623 106.833 171.375C108.16 169.406 107.166 166.824 107.764 164.513C108.96 166.427 107.863 170.637 110.856 170.725C111.501 170.557 112.141 170.135 112.449 169.413C113.542 166.632 115.057 165.067 117.435 165.015C118.624 164.989 119.172 163.7 118.99 161.969C118.392 159.327 116.648 160.335 115.444 159.698C114.782 159.1 114.046 158.402 114.525 157.217C114.866 156.342 115.638 157.039 116.253 157.128C116.795 157.218 117.334 157.104 117.793 156.685C118.567 155.801 119.149 154.409 118.478 153.403C116.874 150.937 117.534 148.165 117.272 144.444C117.761 148.671 117.944 152.087 121.126 152.528C122.247 152.707 122.297 154.953 123.353 155.44C124.462 155.058 125.636 154.368 126.156 156.705C126.908 158.118 128.438 157.217 129.158 158.835C130.066 160.806 131.531 160.212 132.08 158.923C133.696 155.365 135.845 156.39 138.021 157.006C138.561 156.994 139.099 156.88 139.596 156.512C140.44 155.574 141.363 154.89 142.438 154.611C147.025 153.387 150.194 148.365 154.395 145.975C157.101 144.435 159.801 142.64 162.388 140.643C164.124 139.277 165.528 137.561 166.594 135.189C171.362 132.379 175.233 128.107 177.796 121.72C177.638 117.793 175.987 116.45 173.944 118.64C171.514 121.246 168.256 122.237 167.204 125.221C169.679 121.388 169.433 118.382 165.718 116.626C167.115 114.604 168.433 113.86 170.215 116.22C172.553 119.283 175.366 117.74 177.908 116.97C179.377 116.529 180.908 115.678 182.292 114.678C186.206 109.078 189.605 103.03 190.363 94.8449C190.594 92.2361 191.702 90.1696 192.262 87.7578C193.44 85.5877 195.057 83.7141 194.734 80.5049C194.706 79.2292 194.642 77.9543 194.291 76.7368C193.978 75.6206 193.423 74.9691 192.523 74.9889C191.55 75.0103 191.133 75.7343 191.125 77.0108C191.099 79.1045 190.306 80.7556 189.513 82.4068C189.203 83.0263 188.891 83.5947 188.616 84.2134C187.813 85.4053 188.219 87.4895 187.086 88.4334C185.949 89.1732 184.692 89.354 183.475 89.7382C182.31 90.887 182.221 93.3906 180.834 94.238C179.675 95.6419 177.56 96.148 178.754 99.6443C179.371 101.469 178.201 102.362 177.045 102.235C175.924 102.106 174.783 101.008 175.251 99.3641C175.586 98.1825 174.86 94.6758 177.707 96.2979C179.021 97.0347 179.241 93.9157 179.673 92.2725C181.526 89.1004 182.2 84.7801 181.696 79.3116C182.852 79.4393 184.069 79.0551 185.196 79.4898C187.887 80.5537 189.174 78.4322 191.03 75.9408C192.955 73.3457 193.675 71.6451 192.379 68.4573C192.073 67.6472 192.728 67.9391 192.829 67.5796C193.065 66.8596 193.087 66.1955 192.855 65.4858C189.462 65.2543 188.255 61.1966 186.494 58.1212C186.227 57.4634 185.96 56.8056 185.658 56.1996C183.863 53.2271 185.715 50.5826 186.015 47.8191C186.071 47.0521 186.053 46.2357 185.964 45.4718C185.721 42.6182 183.661 42.3573 182.579 40.6964C181.906 39.5881 180.377 40.5407 180.117 38.5554C176.011 38.6969 173.067 42.4886 169.735 45.0635C167.502 46.7974 165.386 48.9372 163.155 50.7221C163.016 50.9805 162.837 51.0355 162.618 50.8871C162.297 51.0474 162.014 51.3088 161.806 51.6708C161.361 52.7527 160.731 53.5834 159.836 53.8584C159.336 54.0736 158.948 54.4906 158.562 54.9586Z" fill="#E4082E"/>
<path d="M202.005 24.1869C201.219 24.5106 200.397 24.835 199.611 25.1586C197.994 27.0321 196.416 29.0069 195.979 32.1307C195.271 32.7079 194.524 33.1328 193.967 34.064C193.276 35.4066 192.362 36.4478 191.484 37.5392C190.857 38.523 190.524 39.7556 190.445 41.0847C190.39 41.8517 190.408 42.6682 190.496 43.432C190.745 44.9071 190.626 46.0328 189.861 47.326C187.114 51.9302 187.308 52.5385 191.584 53.5675C192.45 53.5995 193.313 53.5294 194.183 53.7655C196.24 55.5071 195.044 58.4945 195.6 60.8306C195.749 62.7163 196.68 64.0742 197.184 65.6968C197.416 66.4064 197.719 67.0634 198.163 67.5642C202.311 66.0944 202.963 64.5995 201.565 59.9845C198.935 56.7751 198.729 53.9717 200.946 51.5234C201.444 51.2061 201.905 50.8386 201.559 49.8762L201.595 49.8754C201.407 49.5222 201.253 49.0661 201.063 48.6108C200.14 42.709 201.937 37.5132 205.709 35.2859C206.669 34.7031 207.671 34.3748 208.556 33.6405C211.021 32.6162 209.547 27.9008 211.79 26.6261C212.546 24.9248 213.681 24.0829 215.079 23.7458C215.972 23.3688 216.752 22.79 217.157 21.5048C217.074 17.7287 215.821 16.48 213.093 16.9996C210.364 17.4681 208.264 20.3222 205.455 20.4352C204.446 20.4574 204.599 22.4961 204.336 23.6761C203.809 25.934 202.967 25.34 202.042 24.2372L202.005 24.1869Z" fill="#3954A1"/>
<path d="M218.897 12.1238C217.395 12.6674 215.93 13.2613 214.428 13.8049C212.812 15.6784 210.345 13.3332 208.927 16.0702C208.753 16.3294 208.54 16.4872 208.289 16.5438C205.497 17.4221 203.57 19.9661 202.092 23.215C202.099 23.5722 202.107 23.9294 202.078 24.2364C202.215 25.5607 201.654 27.9215 202.95 27.8419C204.461 27.7065 205.673 25.4335 205.555 23.343C205.392 20.845 205.4 21.2022 206.997 21.7286C209.066 22.3977 210.437 19.1512 212.657 18.4897C215.378 17.664 216.087 18.7715 216.94 21.5095C218.345 23.1123 219.62 22.0631 220.897 21.1161C222.201 19.76 223.135 18.0036 223.553 15.697C223.616 10.3351 220.473 13.3144 218.933 12.123L218.897 12.1238Z" fill="#4D69B0"/>
<path d="M123.935 167.22C124.992 164.44 127.529 165.099 128.928 163.128C127.103 160.463 125.157 162.139 123.222 162.641C122.864 162.751 122.506 162.861 122.185 163.021C120.806 164.226 119.845 161.49 118.49 162.184C117.936 166.484 115.621 162.86 114.31 163.859C114.168 163.964 113.484 162.345 112.781 163.177C112.148 163.906 112.816 164.759 112.832 165.525C112.949 167.564 111.935 168.965 110.806 170.113C110.361 172.829 112.167 172.993 113.094 174.147C113.346 174.141 113.636 174.237 113.888 174.231C114.17 173.919 114.414 173.556 114.62 173.092C115.99 168.161 118.52 166.829 121.981 168.488C122.734 168.319 123.488 168.2 123.971 167.219L123.935 167.22Z" fill="#EC6274"/>
<path d="M101.34 178.949C102.171 179.033 102.966 179.118 103.796 179.151C105.085 178.765 106.337 178.329 107.131 176.729C107.68 175.491 109.442 176.933 109.462 174.533C109.094 172.55 108.379 171.188 106.758 171.223C106.115 169.859 105.436 168.496 104.794 167.131C104.001 165.515 103.077 166.097 102.005 166.529C100.361 167.178 101.211 168.129 101.632 169.243C102.283 170.964 100.518 171.054 100.474 172.332C101.069 176.454 102.875 174.985 104.713 173.31C103.029 177.074 101.281 174.611 99.6556 174.443C99.3753 174.806 99.132 175.22 98.8517 175.584C98.4733 176.409 98.5272 177.225 98.9752 177.929C99.7712 178.065 100.698 177.585 101.266 178.849L101.34 178.949Z" fill="#E95368"/>
<path d="M106.831 171.273L109.465 174.686C110.462 175.787 111.429 175.511 112.419 174.621C112.668 174.463 112.88 174.254 113.129 174.095C113.152 171.899 111.135 171.944 110.841 170.061C109.083 168.773 109.136 166.27 109.053 164.127C109.033 163.209 109.872 162.016 108.64 161.737C107.988 161.598 107.423 162.121 107.019 163.406C106.14 166.081 106.882 168.668 106.903 171.271L106.831 171.273Z" fill="#E73750"/>
<path d="M121.817 167.624C117.653 165.112 114.851 167.165 113.977 173.362C114.932 174.157 115.637 173.427 116.305 172.647C116.95 170.846 118.177 170.921 119.324 170.64C119.644 170.429 119.927 170.167 120.172 169.856C120.348 169.648 120.562 169.541 120.779 169.587C121.347 169.166 122.024 168.845 121.816 167.573L121.817 167.624Z" fill="#EE7D8D"/>
<path d="M116.255 172.035C116.509 172.081 116.762 172.126 117.052 172.222C117.304 172.216 117.59 172.108 117.842 172.051C118.181 171.074 119.713 171.908 119.418 169.974C118.003 169.546 116.937 170.233 116.255 172.035Z" fill="#EFCBC9"/>
<path d="M143.861 145.543C142.669 145.468 141.964 147.831 140.919 146.17C139.947 144.609 141.524 144.165 141.75 142.986C142.197 140.373 143.392 142.235 144.159 142.729C145.657 143.615 146.944 146.445 148.511 145.594C149.759 144.954 151.004 142.578 151.286 140.632C151.919 136.636 151.216 132.516 148.432 130.484C146.931 129.394 146.569 127.717 145.61 125.084C145.376 129.173 144.631 131.385 142.008 131.749C140.247 131.992 139.279 133.851 140.527 136.529C141.888 139.409 140.308 141.333 139.453 143.445C139.008 144.527 136.953 144.47 137.746 146.138C138.389 147.502 138.993 150.399 140.637 149.75C141.78 149.265 143.958 149.983 143.848 146.616C143.844 146.412 143.84 146.259 143.899 145.645L143.861 145.543Z" fill="#E9435B"/>
<path d="M193.826 80.2186C194.633 79.1798 195.11 77.944 195.221 76.41C195.171 74.1648 195.77 71.8542 194.964 69.6257C194.466 68.3093 194.36 66.729 193.648 65.5194C193.318 65.2714 192.994 65.2785 192.675 65.5408C192.698 66.5614 192.027 67.1888 191.898 67.9064C190.404 78.6603 188.958 80.1217 181.7 77.882C181.229 77.7393 180.789 77.3916 180.168 77.0479C180.669 80.1511 180.912 83.0047 181.653 85.592C182.712 89.4997 178.394 88.1654 179.043 91.4695C179.895 92.5229 179.7 95.1308 181.495 94.785C184.172 95.2365 182.939 91.639 183.81 90.2414C185.666 89.4347 188.442 89.4246 186.252 84.9291C185.423 83.2627 186.356 83.089 186.962 82.7693C187.996 82.236 188.922 83.3898 189.933 83.4697C190.853 81.0499 193.38 79.5648 191.851 75.6163C194.276 76.0735 193.397 78.6965 193.826 80.2186Z" fill="#E72D48"/>
<path d="M177.326 121.628C178.411 118.541 181.751 117.957 181.765 113.669C179.767 114.631 177.779 116.003 175.737 116.558C172.368 117.449 169.694 115.517 167.943 111.267C166.901 111.392 166.924 112.464 166.907 113.332C166.872 116.651 163.34 113.411 163.696 116.466C164.05 119.47 166.635 117.371 167.456 118.629C168.388 120.038 167.973 122.498 166.853 124.003C165.101 126.288 165.028 126.239 166.209 130.807C167.349 123.635 171.99 123.226 174.569 119.188C175.928 117.064 177.057 119.235 177.326 121.628Z" fill="#E9425A"/>
<path d="M178.614 70.2921C179.385 69.2541 180.362 67.8031 179.255 66.6533C177.338 64.7045 177.676 62.0423 177.843 59.7923C178.095 56.4683 176.481 55.1765 175.061 54.5441C173.167 53.6669 172.713 55.9742 172.8 58.2697C172.828 59.5454 172.121 60.1736 171.67 61.0004C169.525 65.0808 170.145 67.0582 173.884 68.2521C175.615 68.3161 177.376 68.0731 178.65 70.2913L178.614 70.2921Z" fill="#E62340"/>
<path d="M122.425 164.088C124.622 164.04 126.673 162.208 128.926 163.077C131.468 162.255 133.357 159.661 135.669 158.232C136.518 157.498 137.368 156.816 138.217 156.082C134.602 152.333 132.604 156.563 129.769 160.404C130.936 152.822 127.507 157.544 126.323 156.14C125.407 155.446 124.883 156.223 124.325 157.052C124.155 157.515 124.023 158.08 124.07 158.589C124.122 159.303 124.317 159.962 124.261 160.729C124.172 159.965 124.015 159.356 123.365 159.32C121.767 160.376 121.259 161.868 122.424 164.037L122.425 164.088Z" fill="#E6374D"/>
<path d="M191.736 52.2878C190.826 51.8995 189.372 52.9526 189.009 51.2247C188.689 49.7513 189.918 48.2947 190.743 48.1234C194.221 47.281 191.393 44.8928 191.43 43.2583C188.38 42.2533 187.502 46.6121 185.407 48.0367C184.389 50.9181 181.926 53.6781 185.203 56.8223C188.838 58.2227 190.862 56.7997 191.736 52.2878Z" fill="#5C4898"/>
<path d="M181.495 94.785C180.433 94.0426 180.768 91.2273 179.043 91.4695C178.284 94.6515 177.684 98.5447 175.386 92.3669C174.861 94.7269 175.93 97.4602 173.689 98.7859C173.013 99.2092 173.919 101.078 174.516 101.984C175.411 103.343 176.448 104.647 177.912 104.002C179.091 103.517 180.408 101.139 180.111 100.738C177.799 97.2148 180.886 96.6363 181.493 94.734L181.495 94.785Z" fill="#E83F56"/>
<path d="M192.675 65.5408C192.928 65.5353 193.18 65.5297 193.432 65.5242C192.536 62.4807 194.831 61.9197 195.476 60.1186C195.649 58.1238 195.857 56.1281 194.988 54.3094C194.511 53.9115 193.926 53.5159 193.503 53.9847C191.148 56.6913 188.213 57.6239 185.43 58.9615C186.003 60.4294 187.522 60.6512 187.742 62.4842C188.343 66.8615 190.323 66.7668 192.641 65.5927L192.675 65.5408Z" fill="#E52547"/>
<path d="M149.017 111.122C147.828 111.149 143.912 118.331 144.413 119.801C144.994 121.626 145.876 122.423 147.473 121.265C149.814 119.529 150.321 116.352 150.975 113.326C151.47 111.222 150.099 111.15 149.016 111.071L149.017 111.122Z" fill="#E9445B"/>
<path d="M123.743 155.176C122.795 153.053 122.488 150.558 119.783 150.464C118.412 150.392 118.311 145.8 117.496 143.163C117.211 146.59 114.291 149.871 117.615 153.524C118.464 154.424 117.731 155.513 117.428 156.489C117.577 156.69 117.688 156.841 117.837 157.042C119.845 158.223 121.686 155.068 123.739 156.657C123.982 156.192 123.971 155.733 123.78 155.226L123.743 155.176Z" fill="#E9435A"/>
<path d="M191.344 41.0139C191.644 39.8841 191.909 38.8062 192.208 37.6764C192.088 35.4838 191.011 35.6607 189.969 35.8368C188.489 37.3499 186.723 37.3888 185.001 37.7331C183.458 38.0734 182.551 39.4207 182.091 41.4729C182.087 44.5872 185.283 42.3726 185.314 45.4351C188.334 46.747 189.053 41.728 191.344 41.0139Z" fill="#734292"/>
<path d="M185.465 58.9097C189.284 60.4592 191.839 56.9824 194.668 54.5206C195.192 53.7433 195.211 52.9771 194.688 52.1207C193.715 52.1421 192.708 52.2154 191.736 52.2878C190.072 55.2856 187.83 56.6113 185.203 56.8223C185.291 57.5351 185.378 58.1969 185.465 58.9097Z" fill="#B12D7A"/>
<path d="M189.933 83.4697C188.294 79.4215 186.585 80.3781 184.734 83.0736C184.245 83.7991 183.718 84.4234 184.671 85.1171C189.325 88.6393 184.096 88.4993 183.809 90.1903C185.39 91.636 186.427 89.6221 187.675 88.982C188.44 87.6889 187.593 85.257 189.164 84.5587C189.408 84.1959 189.689 83.8324 189.932 83.4186L189.933 83.4697Z" fill="#E94860"/>
<path d="M132.952 139.555C133.847 139.28 134.702 138.802 135.602 138.782C136.755 138.757 136.806 137.786 136.708 136.614C136.562 134.881 135.935 135.865 135.363 136.082C134.078 136.672 134.469 134.774 134.022 134.12C133.089 132.66 132.173 131.966 131.169 133.877C130.213 136.297 131.292 137.805 132.406 139.312C132.588 139.41 132.77 139.457 132.952 139.555Z" fill="#E73952"/>
<path d="M99.7299 174.543C100.747 176.563 102.13 177.145 103.816 176.802C104.965 176.572 105.78 175.942 106.29 174.552C106.595 173.677 106.181 172.87 105.748 172.828C104.809 172.747 103.788 170.574 102.836 173.199C101.885 175.823 101.382 172.618 100.585 172.431C100.312 173.152 100.039 173.822 99.766 174.543L99.7299 174.543Z" fill="#E74153"/>
<path d="M172.947 76.4922C171.745 75.9061 171.074 74.8998 170.746 73.0691C170.581 72.1538 170.441 70.6764 169.235 71.5708C168.809 71.8865 168.057 72.1073 167.995 72.5681C167.773 73.9515 168.881 73.5186 169.255 74.123C170.263 75.7345 170.743 77.8681 172.247 79.0603C173.164 79.8059 173.326 78.9854 173.783 78.4649C174.488 77.7346 174.831 76.9102 174.262 75.6464C173.846 74.7366 173.506 74.0294 172.946 76.4412L172.947 76.4922Z" fill="#E62642"/>
<path d="M125.035 141.772C124.015 142.917 122.995 144.063 121.974 145.209C121.714 146.491 120.631 148.046 121.769 148.991C122.98 149.985 123.981 147.972 125.122 147.386C127.21 145.604 127.187 144.583 125.071 141.771L125.035 141.772Z" fill="#E62844"/>
<path d="M127.376 138.402C127.353 140.649 123.977 136.281 125.083 140.699C126.621 141.788 126.841 145.255 129.072 145.052C130.104 142.834 132.886 143.13 132.988 139.554L132.874 139.302C131.115 137.962 129.08 140.508 127.412 138.401L127.376 138.402Z" fill="#E62844"/>
<path d="M191.344 41.0139C188.402 39.9555 187.53 44.5695 185.314 45.4351C185.333 46.3026 185.352 47.17 185.407 48.0367C188.38 48.8391 189.105 44.0753 191.43 43.2583C191.413 42.4929 191.397 41.7785 191.38 41.0131L191.344 41.0139Z" fill="#A7307E"/>
<path d="M151.197 100.404C153.243 100.053 155.042 99.9113 154.786 96.4454C154.587 93.9482 153.451 94.739 152.518 94.9127C149.322 95.4426 152.497 98.8953 151.197 100.404Z" fill="#E7344D"/>
<path d="M127.376 138.402C128.86 143.628 130.973 139.701 132.838 139.302C132.294 137.477 131.714 135.703 131.169 133.877C129.38 134.478 129.54 138.456 127.375 138.351L127.376 138.402Z" fill="#EB596C"/>
<path d="M167.181 84.7366C165.397 82.2743 166.078 80.4725 167.94 78.2872C165.826 78.8443 163.9 76.4873 163.453 79.1008C163.002 81.5613 163.965 84.399 167.181 84.7366Z" fill="#E72E49"/>
<path d="M141.159 89.7514C139.514 91.9829 139.407 95.3547 138.202 97.9339C142.649 95.2322 143.43 93.0708 141.159 89.7514Z" fill="#E65B6A"/>
<path d="M118.489 162.133C119.548 162.773 119.933 165.521 121.633 164.157C121.997 161.034 120.384 159.794 118.877 158.448C118.186 158.157 117.846 157.45 117.68 156.484L117.427 156.438C116.959 156.449 116.454 156.46 115.985 156.419C114.932 157.718 114.605 159.257 115.222 161.082C116.218 162.132 117.715 159.699 118.489 162.133Z" fill="#E52442"/>
<path d="M129.036 145.053C127.741 143.55 127.243 140.549 125.047 140.699C125.055 141.057 125.063 141.414 125.035 141.772C125.653 143.647 126.667 145.514 125.086 147.386C127.453 150.142 127.681 145.747 129 145.054L129.036 145.053Z" fill="#E9495F"/>
<path d="M115.222 161.082C115.767 159.64 116.058 158.102 115.985 156.419C115.272 155.158 114.401 153.238 113.367 155.405C112.094 158.138 113.253 160.053 115.222 161.082Z" fill="#E84159"/>
<path d="M178.614 70.2921C178.026 64.8425 175.969 66.3683 173.848 68.2529C174.117 69.0128 174.421 69.7208 174.69 70.4807C176.016 71.7788 177.298 71.0869 178.579 70.3439L178.614 70.2921Z" fill="#E40A2D"/>
<path d="M167.333 88.409C169.048 89.3413 170.104 91.4622 171.615 89.6931C171.966 89.277 171.942 88.1544 171.392 87.758C170.147 86.8665 168.792 85.8753 167.333 88.409Z" fill="#E72C45"/>
<path d="M185.331 72.4926C185.507 73.9692 186.142 74.9763 186.831 75.1654C188.389 75.5395 187.614 73.055 188.278 72.1214C188.803 71.3951 187.953 70.4438 187.267 70.4079C186.184 70.3296 185.856 71.7663 185.295 72.4934L185.331 72.4926Z" fill="#E72C44"/>
<path d="M99.0495 178.03C99.0327 177.264 98.9788 176.449 98.9259 175.684C96.3517 171.708 96.5278 176.452 95.3602 177.447C96.7064 179.664 97.9553 177.441 99.0855 178.029L99.0495 178.03Z" fill="#E62944"/>
<path d="M172.842 107.841C171.597 108.583 171.285 110.785 169.348 111.236C171.125 111.708 172.321 113.672 173.409 112.321C174.427 111.073 173.094 109.469 172.842 107.841Z" fill="#E84056"/>
<path d="M161.352 129.587C160.923 126.431 159.441 126.26 158.032 126.087C157.779 126.092 157.542 126.761 157.299 127.175C158.475 128.221 159.449 129.884 161.352 129.587Z" fill="#E83A50"/>
<path d="M141.813 122.87C140.182 124.08 138.976 124.975 137.557 126.027C139.741 127 141.16 125.948 141.813 122.87Z" fill="#E62541"/>
<path d="M135.047 120.058C135.904 121.316 136.208 123.657 137.667 122.808C138.271 122.438 138.675 121.101 138.143 119.888C136.812 116.701 136.235 121.615 135.011 120.059L135.047 120.058Z" fill="#E62541"/>
<path d="M182.055 41.4737C183.576 41.7976 183.282 38.2304 184.916 38.807C185.413 38.4387 185.399 37.8264 185.241 37.1662C185.129 37.0155 185.018 36.8648 184.906 36.7141C183.338 37.5144 181.732 38.2645 180.164 39.0649C180.028 41.0589 181.703 40.2052 182.055 41.4737Z" fill="#D01D40"/>
<path d="M178.578 70.2929C177.256 69.1479 175.99 70.6052 174.689 70.4296C175.259 73.4292 177.092 73.1846 178.687 73.6089C178.194 72.4966 178.099 71.4267 178.614 70.2921L178.578 70.2929Z" fill="#E72D48"/>
<path d="M102.388 151.103C101.286 151.842 100.186 152.632 99.0492 153.372C100.503 153.901 101.661 155.765 103.564 155.416C103.134 153.894 102.779 152.524 102.388 151.103Z" fill="#E72F50"/>
<path d="M105.363 145.421C104.124 146.47 103.66 148.318 103.05 150.067C103.776 150.306 104.069 152.189 104.989 151.403C106.9 149.778 104.793 147.374 105.363 145.421Z" fill="#E1314C"/>
<path d="M123.743 155.176C123.751 155.533 123.76 155.941 123.768 156.299C123.853 156.909 124.15 157.311 124.585 157.404C125.152 156.983 125.721 156.613 126.288 156.192C126.965 154.186 126.073 152.929 124.948 152.597C123.751 152.266 123.751 153.9 123.707 155.177L123.743 155.176Z" fill="#E9475E"/>
<path d="M90.0029 173.124C89.5887 172.316 89.6249 170.682 88.5497 170.961C87.8686 171.129 87.5679 172.208 87.624 173.125C87.6475 174.197 88.1642 174.747 88.9219 174.781C89.6785 174.765 90.175 174.396 90.0029 173.124Z" fill="#E7314A"/>
<path d="M135.501 114.432C134.831 115.111 134.458 116.191 134.553 117.261C134.61 118.179 135.33 118.163 135.791 117.795C136.5 117.269 137.17 116.591 136.743 115.222C136.549 114.562 136.139 113.959 135.5 114.381L135.501 114.432Z" fill="#E62343"/>
<path d="M189.164 84.5587C187.009 84.9125 187.781 87.2439 187.675 88.982C188.311 90.0401 189.183 90.3782 188.928 88.597C188.714 87.0702 188.687 85.8455 189.2 84.5579L189.164 84.5587Z" fill="#E72D48"/>
<path d="M178.687 73.6089C179.804 76.8517 180.974 74.3244 182.956 74.3317C180.972 72.5886 179.825 72.9202 178.687 73.6089Z" fill="#E72D48"/>
<path d="M154.527 135.557C154.025 135.671 153.345 135.89 153.615 136.701C153.808 137.309 154.538 137.701 155.084 137.945C155.885 138.335 155.86 137.162 155.848 136.651C155.89 135.272 155.069 135.648 154.527 135.557Z" fill="#E72D47"/>
<path d="M139.438 155.902C140.593 155.979 141.747 156.005 141.988 153.855C140.72 153.526 139.716 153.803 139.438 155.902Z" fill="#EC7C8B"/>
<path d="M150.332 125.082C150.267 125.39 150.025 125.854 150.034 126.263C150.053 127.13 150.495 127.58 151.027 127.16C151.239 127.002 151.331 126.234 151.283 125.725C151.236 125.215 150.973 124.71 150.331 125.031L150.332 125.082Z" fill="#E9435B"/>
<path d="M162.527 51.706C161.389 52.3947 160.176 52.983 160.079 55.1294C161.629 55.0952 162.43 53.8523 162.527 51.706Z" fill="#E85E71"/>
<path d="M130.848 125.817C130.713 126.229 130.401 126.797 130.343 127.411C130.285 128.076 130.486 128.991 131.122 128.415C131.44 128.153 131.601 127.281 131.695 126.616C131.756 126.104 131.564 125.597 130.848 125.817Z" fill="#E7344C"/>
<path d="M155.213 74.8407C155.488 75.8557 155.846 75.7458 156.166 75.5345C156.591 75.2188 157.2 75.0522 156.783 74.0914C156.669 73.8387 156.266 73.5412 156.16 73.6457C155.772 74.0116 155.495 74.5282 155.214 74.8918L155.213 74.8407Z" fill="#E73350"/>
<path d="M97.6316 154.475C96.5553 154.703 95.7795 155.486 95.4168 157.025C96.5674 156.898 97.7935 156.922 97.6316 154.475Z" fill="#E4667C"/>
<path d="M121.973 145.158C121.486 144.3 121.629 142.613 120.44 142.639C120.296 142.642 120.019 143.159 120.06 143.362C120.169 145.044 121.14 144.972 121.972 145.107L121.973 145.158Z" fill="#E62844"/>
<path d="M200.979 49.7358C201.733 44.665 205.294 42.6976 207.156 38.8277C207.949 37.1765 209.215 35.7702 209.967 33.8647C209.626 33.1064 209.35 32.0404 208.466 32.8257C204.265 33.5819 201.448 36.605 199.99 42.4061C199.226 45.3839 199.239 47.63 200.979 49.7358Z" fill="#7087C3"/>
<path d="M189.915 36.6548C190.778 36.5337 191.641 36.4636 192.173 37.7282C193.503 37.5458 194.237 36.5086 194.339 34.5663C193.746 33.8136 193.188 33.0601 192.594 32.2563C191.034 36.7323 189.522 30.2309 187.978 32.1538C187.598 34.5616 185.36 34.4067 184.906 36.7141L184.943 36.7643C186.632 38.1566 188.286 37.967 189.915 36.6548Z" fill="#5265AB"/>
<path d="M220.772 20.353C219.483 20.7388 218.193 21.1246 216.94 21.5095C216.156 21.8842 215.372 22.3099 214.623 22.6837C214.031 23.6157 213.838 24.6921 214.01 25.9646C214.253 27.1845 214.742 28.0927 215.652 28.4811C216.965 25.8995 219.044 25.3942 221.046 24.6354C221.77 23.1389 221.848 21.7588 220.845 20.4025L220.772 20.353Z" fill="#768FC8"/>
<path d="M215.578 28.4316C215.236 27.6223 214.929 26.7612 214.587 25.9519C213.532 25.5157 212.449 23.8037 211.417 26.0217C208.803 26.8451 209.977 31.0566 208.466 32.8257C208.978 33.1718 209.454 33.5186 209.967 33.8647C211.838 32.0877 213.708 30.2597 215.58 28.4827L215.578 28.4316Z" fill="#637ABA"/>
<path d="M194.919 60.9988C193.733 61.1781 192.094 60.3973 191.6 62.5014C191.203 64.1438 193.043 64.2054 193.432 65.5242C193.61 67.0518 193.181 68.8481 194.358 69.9453C195.989 70.3689 197.037 68.8142 198.24 67.8177L198.523 67.5562C198.399 66.8442 198.275 66.1322 198.152 65.4202C197.011 64.3732 195.663 63.6882 195.326 61.5003C195.179 61.3504 195.067 61.1997 194.92 61.0498L194.919 60.9988Z" fill="#E12F5C"/>
<path d="M201.222 60.8089C201.402 57.4865 200.357 54.2422 201.113 50.9071C200.144 51.0816 197.435 45.8829 198.641 53.2079C199.181 56.4633 198.558 59.285 201.222 60.8089Z" fill="#5F4D9B"/>
<path d="M194.724 52.1199C194.742 52.9364 194.687 53.7034 194.704 54.5198C194.788 56.6622 194.872 58.8556 194.955 60.998L195.095 60.8417C195.51 61.6495 195.978 61.6391 196.506 61.0659C195.9 58.0672 197.94 54.1422 194.724 52.1199Z" fill="#773F91"/>
<path d="M196.47 61.0667C195.999 60.975 195.53 60.9343 195.059 60.8425C194.528 64.53 195.639 65.884 198.15 65.3692C198.642 63.112 196.191 63.115 196.469 61.0157L196.47 61.0667Z" fill="#C22573"/>
<path d="M211.451 25.9699C212.5 24.4663 213.573 27.4037 214.622 25.9001C214.597 24.7775 214.574 23.7059 214.585 22.5825C213.115 22.9212 211.756 23.4106 211.45 25.9189L211.451 25.9699Z" fill="#4D69B0"/>
<path d="M220.772 20.353C220.839 21.781 220.905 23.158 220.973 24.586C223.652 23.5059 227.195 23.9894 227.243 17.9642C226.472 15.6838 224.832 16.4857 223.593 15.8493C223.412 15.8533 223.267 15.8054 223.086 15.7584C222.327 17.3067 221.531 18.8047 220.772 20.353Z" fill="#3857A3"/>
<path d="M218.897 12.1238C219.317 13.1867 219.943 13.7855 220.835 13.3574C222.475 12.5555 222.936 13.8727 223.086 15.7584C224.967 16.0743 227.91 18.7663 226.942 12.4571C224.304 10.4731 221.605 10.6858 218.896 12.0728L218.897 12.1238Z" fill="#3B5AA6"/>
<path d="M226.942 12.4571C227.15 16.9962 224.699 15.3655 223.086 15.7584C223.742 19.3687 226.156 16.0481 227.243 17.9642C228.642 15.9934 227.846 14.224 226.906 12.4579L226.942 12.4571Z" fill="#4D69B0"/>
<path d="M198.24 67.8177C196.569 67.2419 195.326 68.0861 194.358 69.9453C195.302 71.9156 193.164 74.6685 195.257 76.4092C196.935 74.0238 197.624 70.9455 198.276 67.8169L198.24 67.8177Z" fill="#E33245"/>
<path d="M118.271 158.768C119.286 160.686 121.145 161.615 121.634 164.208C121.886 164.202 122.175 164.196 122.426 164.139C122.203 162.204 122.455 160.565 123.843 159.717C122.171 155.823 121.375 155.688 118.272 158.819L118.271 158.768Z" fill="#E9475E"/>
<path d="M145.652 131.924C144.44 135.831 145.082 138.778 147.156 141.336C147.601 141.887 147.969 142.237 148.501 141.816C148.677 141.659 148.777 141.249 148.914 140.939C146.17 139.111 149.254 133.427 145.688 131.923L145.652 131.924Z" fill="#E41939"/>
<path d="M118.271 158.768C120.258 157.346 122.214 156.129 123.842 159.666C123.92 159.971 124.006 160.582 124.078 160.58C124.619 160.619 124.618 160.568 124.621 157.403C124.361 157.051 124.064 156.649 123.804 156.298C121.704 154.251 119.735 156.49 117.716 156.483C117.481 157.254 116.959 158.133 117.082 158.794C117.284 159.76 117.875 158.777 118.307 158.767L118.271 158.768Z" fill="#EC5F75"/>
<path d="M189.915 36.6548C188.258 36.6913 186.601 36.7278 184.943 36.7643C184.958 37.4277 184.901 38.0926 184.88 38.8078C186.599 38.3105 188.917 40.4547 189.879 36.6556L189.915 36.6548Z" fill="#A13889"/>
<path d="M37.3426 111.042C36.424 110.166 35.5055 109.289 34.5869 108.413C31.9186 106.616 29.3815 104.731 28.4192 101.4C28.1568 100.611 27.7631 99.91 27.2819 99.2088C22.864 92.5031 22.9077 92.3716 30.5188 89.1722C26.2759 87.1123 21.0705 88.208 18.3585 83.2116C17.0025 80.7134 14.7717 78.3905 14.9904 75.6294C15.4715 68.7484 12.2784 63.2699 9.30389 57.6161C8.47279 53.6716 13.7656 52.9704 13.6781 50.3407C13.5906 48.0178 9.78505 46.6153 10.2662 43.1091C10.6599 40.3041 9.74131 37.28 10.0912 34.5627C10.7474 29.1719 10.0038 22.6415 17.5274 20.7131C19.2334 20.2748 19.977 18.697 20.4144 16.9877C20.8518 15.3223 21.6392 13.8321 23.6951 14.0074C25.576 14.1389 26.4508 15.4538 27.1507 17.0754C27.9381 19.0038 28.2443 20.9322 28.3755 23.036C28.5504 26.1039 29.2503 29.128 30.8688 31.8454C31.3499 33.3355 31.4812 34.8695 31.3937 36.4473C31.3499 37.3677 31.1312 38.2881 30.8688 39.1646C26.2321 48.3685 28.0255 57.6161 30.7813 66.82C31.1312 68.0033 31.4374 69.1867 31.5249 70.4139C31.8749 73.9639 34.3682 75.0596 37.3426 75.6732C43.554 76.9442 45.3912 79.6177 43.8165 85.4906C43.3353 87.3314 44.7351 88.0327 45.26 89.2598C45.5224 89.7858 45.6974 90.3117 45.7849 90.9253C45.3766 93.6134 45.6099 96.3161 46.4847 99.0334C47.8408 94.2562 49.8966 94.3877 55.4956 99.6909C57.9452 104.117 62.1007 107.185 64.8565 111.481C66.9998 114.811 70.6742 114.548 74.1735 113.628C77.0168 112.839 79.1602 114.724 81.6097 115.513C83.6656 116.17 86.1589 116.784 84.2343 112.795C82.8782 110.034 85.459 107.974 86.4651 105.608C90.8393 101.488 92.0641 95.3081 95.9572 90.8815C96.657 90.0487 97.4007 89.2598 97.5319 88.1203C97.7506 86.3672 97.5756 84.6579 97.5756 82.9048C97.6631 80.3628 97.2694 77.7769 98.4067 75.3664C103.043 71.5972 103.306 76.5498 104.924 78.6973C105.712 80.8011 105.843 82.9048 105.143 85.0085C103.656 86.0604 104.749 87.4191 104.749 88.6462C103.743 97.4556 99.6752 105.169 96.1759 113.058C94.6012 116.608 92.3703 115.469 89.702 113.979C93.77 116.389 96.2634 121.692 102.169 119.063C105.187 119.194 108.161 118.712 111.092 117.967C114.066 117.748 117.041 116.258 120.059 117.748C121.984 118.712 124.477 119.282 124.04 122.306C123.69 123.446 123.034 124.41 122.334 125.374C121.984 125.812 121.546 126.119 121.021 126.382C119.184 126.864 117.61 127.916 116.079 129.012C111.967 130.721 107.636 131.554 103.218 132.255C101.119 132.606 99.1941 132.737 97.5756 131.072C96.3508 127.741 92.6328 127.565 90.4456 127.302C85.9402 126.733 80.5162 125.374 76.973 126.338C69.5369 128.31 64.2003 125.505 58.6013 122.481C53.8334 119.895 48.0595 118.493 46.0473 112.006C45.2162 109.333 42.0668 111.437 39.9672 111.656C39.0486 111.7 38.2175 111.437 37.4739 110.867L37.3426 111.042Z" fill="#84BC27"/>
<path d="M44.6913 89.8296C42.5042 88.0327 37.4301 86.8055 43.7727 83.4746C45.3037 82.6857 40.5795 77.2948 37.6926 77.0757C33.8433 76.8127 30.6063 75.717 29.9065 71.2466C30.9125 70.5453 32.0498 70.9398 33.0996 70.9398C42.7229 69.6688 52.1275 67.4336 60.8759 63.0508C62.6256 62.3934 64.6377 62.481 66.1687 61.1224C66.6061 60.7717 67.0873 60.5088 67.5685 60.2458C70.193 59.2378 72.5113 57.8353 73.6049 55.0303C74.436 53.4087 75.792 51.8747 74.3923 49.9024C74.0861 49.4642 73.8673 48.9821 73.6924 48.4561C72.905 46.2209 72.4676 43.898 72.905 41.5313C72.905 40.8301 72.905 40.085 72.7738 39.4276C72.3364 38.0251 71.0678 38.1128 69.9743 37.9374C68.9245 37.8498 67.8747 37.6306 66.9561 37.1485C65.0752 35.6584 62.6693 34.7818 61.3133 32.6343C60.6135 31.188 59.3449 30.4867 57.8577 30.0923C57.3765 29.9169 56.8954 29.654 56.458 29.3472C55.102 28.1638 53.4397 28.0762 51.7775 27.9447C50.9464 27.857 50.1591 27.5941 49.4155 27.1558C47.6658 25.5342 45.3474 25.7095 43.2916 25.2274C42.7667 25.0521 42.2855 24.8329 41.8481 24.57C40.4046 23.2989 38.6986 23.0798 36.8615 23.1675C35.5929 23.1675 34.3244 23.1675 33.0559 23.4743C30.4751 24.8329 31.8749 27.4626 31.2187 29.391C31.0438 30.2676 30.6938 31.0126 29.9502 31.5824C26.0571 29.7416 27.2382 25.6656 26.932 22.8168C26.7133 20.7569 25.4448 19.223 25.4885 17.2945C25.4885 15.6291 24.5699 14.9278 23.2576 15.0155C21.7267 15.147 21.3767 16.3303 21.8141 17.7328C22.864 21.0637 19.5396 22.1594 18.1398 22.2909C10.135 22.9921 12.9782 30.0923 11.491 34.1244C10.9661 35.5707 11.2723 39.3838 11.7972 42.0573C12.2346 44.161 10.3974 47.3166 14.8154 47.8425C15.7777 47.974 19.1021 52.0938 13.7218 53.058C11.5347 53.4525 10.3537 55.2933 10.2225 57.5723C5.41083 56.126 6.7231 51.787 5.97948 48.4561C6.24193 39.7344 6.59187 31.0565 10.31 22.9045C10.6162 22.6854 10.6599 22.4662 10.4412 22.2032C11.4035 18.4341 12.9782 14.9278 15.2966 11.7722C16.0839 10.808 16.8713 9.88762 17.6586 8.92341C19.4521 6.51288 21.2892 4.14618 24.3075 3.13814C26.1446 2.69986 27.9818 2.74369 29.819 3.13814C33.4058 4.32149 36.5115 6.11843 38.5674 9.40552C40.0546 11.7722 42.5479 12.8679 44.8225 14.2266H44.91C46.8784 16.0673 50.1591 14.4895 51.9088 16.9439C52.215 20.3186 55.1457 19.0038 56.9391 19.7051C66.5187 23.6934 76.4919 26.8928 84.2342 34.2559C88.3897 37.543 93.1139 40.1288 96.6133 44.2048C97.4444 44.9499 98.2755 45.7388 99.1066 46.4839C108.161 49.6395 112.929 58.5365 121.021 62.9631C122.159 63.5767 122.421 64.9354 121.853 66.2502C118.309 67.9595 113.891 66.3817 110.655 69.1867C110.086 69.2743 109.517 69.1867 109.036 68.8799C109.036 64.8477 106.732 63.3138 102.125 64.278C100.331 63.2699 100.55 60.9909 99.1503 59.7199C98.7566 59.3254 98.4067 58.931 98.0568 58.5365C94.3824 54.0223 91.6704 57.4408 88.8272 59.676C86.7276 60.9471 84.7591 62.3495 82.7907 63.8397C82.3533 64.1903 81.8722 64.4533 81.391 64.6724C78.5478 65.3298 76.6668 67.1268 75.1796 69.5373C74.1735 71.0713 72.8613 72.167 70.9804 72.4738C66.3437 71.641 64.1566 76.1991 60.3948 77.2948C54.6208 76.9442 51.8213 81.1955 48.6718 84.9209C48.4531 85.403 48.1907 85.8851 47.8845 86.2795C46.8347 87.3752 46.2223 88.8654 44.91 89.6981L44.6913 89.8296Z" fill="#95C121"/>
<path d="M110.261 68.7484C113.017 63.7082 117.303 65.549 121.328 66.294C124.346 64.3656 124.827 67.5651 126.314 68.7484C128.589 70.7207 131.957 71.0713 133.663 73.8324C134.232 74.9281 134.931 75.9362 136.287 76.1115C141.799 77.514 145.561 81.7214 149.979 84.8771C151.16 86.0604 152.516 86.9808 153.741 88.1203C154.091 88.6024 154.353 89.0845 154.528 89.6543C155.053 91.4951 154.484 93.1167 153.653 94.7383C153.478 95.0889 153.391 95.4396 153.391 95.834C149.235 110.122 139.087 118.668 126.052 124.497C124.696 124.497 123.427 124.278 122.552 123.139C122.64 118.449 118.878 118.975 116.079 118.624C114.591 118.449 112.973 119.194 111.398 119.501C111.136 119.194 111.004 118.844 111.004 118.493C111.004 118.142 111.092 117.967 111.179 117.923C111.967 116.74 112.929 115.732 114.154 114.987C117.347 113.628 120.584 112.269 123.296 109.947C126.795 105.783 122.902 102.014 122.684 98.0692C122.946 96.3161 123.821 95.2643 125.658 95.0889C131.17 96.1408 131.213 102.54 135.369 104.906C136.9 105.958 138.343 107.229 140.224 105.432C141.668 104.03 141.493 102.671 140.618 101.05C139.393 98.7266 139.831 95.7464 137.95 93.5988C137.425 88.8654 132.482 88.0765 130.164 84.9209C129.639 83.2554 128.37 82.5104 126.795 82.1159C126.27 81.9406 125.789 81.7214 125.308 81.4585C124.608 81.1079 123.821 80.4066 123.121 80.6696C118.834 82.335 116.997 79.9683 115.816 76.4183C115.422 75.6732 115.16 74.9281 114.898 74.1392C114.198 71.5972 111.311 70.9398 110.217 68.7484H110.261Z" fill="#8DBE24"/>
<path d="M7.51046 48.5438C7.77291 51.7432 7.94788 54.9865 10.1787 57.6161C12.1034 60.7717 13.7656 64.1027 16.0402 66.9953C18.0523 69.4935 15.2091 71.2904 15.7777 73.9639C16.7401 78.5658 18.6647 82.335 21.6829 85.1838C24.5262 87.8573 28.9879 86.8493 33.0122 87.5067C30.6063 88.5148 33.1434 95.0013 27.0632 92.021C25.2698 91.1444 25.1823 93.5988 26.1009 95.2643C27.1944 97.368 30.0377 98.4199 29.6877 101.356C26.6695 102.846 25.9697 100.392 24.9636 98.5075V98.4199C24.1762 97.5433 23.2576 96.842 22.6015 95.8778C19.1896 94.3 18.9272 90.3994 16.7401 87.945C16.2589 86.411 16.4776 84.7017 15.3403 83.3869C15.1653 82.6418 14.9904 81.8968 14.8154 81.1079C11.8847 79.4862 11.666 76.1991 10.2225 73.701C8.29782 72.6053 8.77898 70.2824 7.77291 68.7922C6.37316 65.5928 4.22979 62.6125 5.36709 58.8433C5.93574 57.2217 5.93574 55.6001 5.49832 53.9346C4.66722 51.5241 4.57973 49.4203 7.59794 48.4999L7.51046 48.5438Z" fill="#96C225"/>
<path d="M97.9256 130.721C96.3946 131.159 94.7761 131.378 93.8575 132.912L93.3764 133C89.6145 131.948 85.4153 133 81.8284 130.809C81.0411 130.721 80.2537 130.633 79.5101 130.589C75.5296 128.749 70.8054 130.984 66.9998 128.31C66.1687 128.223 65.3814 128.179 64.5503 128.091C63.1943 127.565 62.2319 126.382 60.8322 125.9L60.3073 125.637H59.6949C58.0764 124.717 55.8018 125.067 54.752 123.051L54.8395 123.139C50.684 121.955 47.0971 119.939 44.7351 116.126C43.5103 114.548 42.198 113.102 39.9672 113.015C39.1798 112.445 39.0486 111.744 39.6172 110.955C45.1287 107.624 45.0413 108.062 48.1907 114.505C49.503 117.134 53.3085 119.15 56.4142 120.115C60.701 121.429 63.8067 126.864 69.4494 123.971C70.4992 123.446 70.5429 125.418 71.1553 126.119C71.9427 126.996 73.0363 127.171 73.9548 126.82C76.0982 126.031 83.0532 125.681 85.9839 125.549C89.0022 125.374 91.5829 127.302 94.8199 126.426C97.4006 125.768 97.3569 128.88 97.8818 130.765L97.9256 130.721Z" fill="#96C227"/>
<path d="M153.522 88.6024C156.934 88.953 155.753 91.5827 155.971 93.5111C155.228 93.9494 154.44 94.3439 153.697 94.7821C153.653 92.7222 153.566 90.6623 153.522 88.6024Z" fill="#F4F6E2"/>
<path d="M17.6149 87.2876C16.7838 86.8493 15.9964 86.4549 15.1653 86.0166C15.2091 85.14 15.2528 84.2635 15.3403 83.4307C17.7899 83.6937 17.7024 85.5345 17.6586 87.2876H17.6149Z" fill="#E2EED6"/>
<path d="M62.1007 63.8397C53.0461 69.6688 42.8104 71.3342 32.3998 72.5176C28.6379 61.5606 26.8008 50.516 29.9502 39.0331L30.0377 36.6664C32.5747 34.3436 35.4617 34.6504 37.8675 36.4473C42.7667 40.085 48.5844 41.1807 54.1396 43.0215C56.0205 44.161 57.9452 45.0814 60.2198 44.8622C62.5819 44.9937 64.6815 45.5635 65.9938 47.7987C66.2125 48.1493 66.3874 48.5876 66.6936 48.7629C75.1359 53.4525 75.2234 55.4686 67.0436 61.3415C65.775 63.007 63.2817 62.1304 62.1007 63.8397Z" fill="#F9E000"/>
<path d="M113.979 115.863C113.848 117.397 112.885 118.055 111.442 118.186C108.599 119.72 105.537 119.633 102.475 119.194C101.775 118.931 101.25 118.493 100.856 117.836C99.9814 116.17 99.9814 114.373 99.8939 112.576C100.725 104.468 103.612 96.7106 103.962 88.5586C104.224 87.682 102.562 86.8493 103.962 85.9727C106.63 82.1159 104.268 77.6893 105.405 73.6133C106.018 71.904 107.111 70.7207 108.949 70.3262C110.873 70.1947 112.054 71.1589 112.667 72.9121C113.716 76.6813 115.072 80.319 117.128 83.6499C117.872 86.8055 119.622 89.7419 119.534 93.1167C118.572 96.6667 114.154 99.5594 117.347 103.942C117.916 105.476 118.003 107.054 118.047 108.676C118.134 111.919 117.741 114.855 113.979 115.863Z" fill="#FCDF00"/>
<path d="M54.577 44.1172C48.3219 43.7227 42.3292 42.3202 37.5613 38.0251C35.1993 35.8775 32.5747 36.9294 30.0377 36.7103C30.0377 35.001 29.9939 33.3355 29.9502 31.6262C29.9502 30.7935 29.9502 29.9608 29.9502 29.128C30.6501 28.5145 31.4812 28.12 32.4435 28.0323C36.4678 28.5145 38.5237 32.6781 42.4605 33.4232C45.6974 35.2201 48.8031 37.3677 52.6524 37.7183C55.8893 39.077 59.2137 40.2603 62.8443 40.0412C66.5187 41.9258 70.5867 40.6986 74.3923 41.3998C72.9488 43.898 75.7483 46.3962 74.4797 48.8944C71.1991 50.9105 67.9184 50.7352 64.6815 48.7629C64.1128 45.6511 61.5758 46.7468 59.6949 46.3524C58.3389 44.7746 55.9768 45.5635 54.577 44.0733V44.1172Z" fill="#A8C816"/>
<path d="M104.006 88.6024C105.012 97.0174 103.262 105.126 101.425 113.234C100.2 114.987 99.9814 116.652 101.644 118.274C102.387 119.107 102.387 119.939 101.644 120.772C95.3885 124.673 93.3764 117.792 89.7458 115.6C88.0398 114.548 89.8333 111.568 92.0204 110.473C94.12 111.524 89.1334 113.979 92.8077 114.461C95.4323 114.768 95.1698 112.927 94.4699 111.174C94.3387 110.823 94.2512 110.166 94.4699 109.99C100.813 104.249 100.638 95.6587 104.006 88.6024Z" fill="#8DBE24"/>
<path d="M109.036 71.2466C108.205 72.0793 107.374 72.8682 106.499 73.701C104.793 74.9281 105.887 77.5578 103.962 78.6973C101.075 79.0918 102.912 73.438 99.1503 74.972C98.5817 74.5337 98.188 73.9201 97.9256 73.2627C97.3132 70.0632 96.9632 66.9076 98.6692 63.9273C99.5878 63.1384 100.55 63.0508 101.556 63.8397C102.125 63.7082 102.868 63.7082 103.262 63.3576C105.449 61.5606 108.38 60.4649 110.436 62.0427C113.585 64.4971 108.905 66.3817 109.036 68.8361C109.736 69.6688 109.736 70.4577 109.036 71.2904V71.2466Z" fill="#8DBE24"/>
<path d="M29.9065 39.0331C28.8129 50.3407 31.3499 61.3415 32.356 72.5176C31.5249 72.1232 30.7376 71.6849 29.9065 71.2904C24.9198 65.1107 28.9441 57.134 25.7509 50.2531C24.2637 47.0098 27.5881 42.5394 29.9065 39.077V39.0331Z" fill="#CDD500"/>
<path d="M74.436 114.592C67.8309 117.003 65.1189 116.082 61.882 109.903C59.9136 106.134 54.752 104.731 54.577 99.7785C54.8395 99.647 55.102 99.5155 55.3644 99.3402C61.4008 99.1649 62.0132 106.09 66.5624 107.887C68.0934 111.349 71.6365 111.744 74.5672 113.058C74.9172 113.584 74.9172 114.11 74.5235 114.592H74.436Z" fill="#A4C618"/>
<path d="M74.436 114.592C74.436 114.198 74.436 113.803 74.436 113.453C75.2234 112.138 76.6669 111.568 77.7604 110.516C78.1978 110.21 78.6353 109.99 79.1164 109.771C80.3412 109.289 81.4785 108.632 82.3533 107.624C83.4469 106.528 84.278 104.906 86.2901 105.52C86.4651 105.739 86.6401 105.958 86.7713 106.134C87.3399 108.676 83.0095 111.393 87.2087 113.891C87.9961 114.373 87.2087 116.126 86.1152 117.047C84.6717 118.274 83.2719 118.318 81.6097 117.573C79.2477 116.521 77.4542 114.023 74.436 114.592Z" fill="#8DBE24"/>
<path d="M54.5333 99.7347C52.4774 98.5952 50.4215 97.4995 48.1469 96.2723C47.797 97.9816 47.7095 99.5594 47.0971 100.874C46.3973 102.364 44.2539 101.882 44.5163 100.874C45.3912 97.5433 40.9732 94.1685 44.7351 91.1006C45.4787 90.4432 46.3535 90.0487 47.3596 90.0049C51.865 91.7142 55.4956 93.9932 54.752 99.7347L54.4896 99.8223L54.5333 99.7347Z" fill="#95C121"/>
<path d="M96.7445 91.0568C93.6388 96.1846 92.6328 102.759 86.815 106.09L86.7713 105.783C85.0654 102.058 87.9086 99.1649 88.5647 95.8778C90.5769 93.4235 90.8393 88.5586 96.0446 90.3994C96.2634 90.6185 96.5258 90.8376 96.7445 91.0568Z" fill="#B3CB0B"/>
<path d="M49.8529 101.006C52.7399 101.663 53.221 103.898 53.7459 105.739C54.4021 108.106 52.3462 108.237 50.684 108.369C48.4531 108.544 45.8286 107.843 45.9598 105.695C46.0911 104.03 48.5406 102.496 49.8966 101.05L49.8529 101.006Z" fill="#95C121"/>
<path d="M104.006 78.6973C104.312 76.7689 103.35 74.1831 106.543 73.701C106.062 77.8646 108.161 82.598 104.006 86.0166C104.006 83.5622 104.006 81.1079 104.006 78.6973Z" fill="#CAD400"/>
<path d="M99.0628 73.5695C99.0628 74.0516 99.1503 74.4899 99.1941 74.972C99.1941 77.8646 99.1941 80.7572 99.1941 83.606C98.4504 84.3511 97.5756 84.3511 96.7008 83.9567C96.2196 83.5184 95.8697 82.9925 95.6947 82.3789C95.1698 80.4943 95.1698 78.5658 95.3448 76.6374C95.9134 74.709 96.1321 72.4299 99.1503 73.5256L99.0628 73.5695Z" fill="#A6C717"/>
<path d="M101.6 120.772C101.6 119.939 101.6 119.107 101.6 118.274C104.881 118.274 108.161 118.23 111.442 118.186C111.442 118.624 111.442 119.063 111.442 119.501C108.249 120.509 104.968 121.079 101.6 120.772Z" fill="#B8CE03"/>
<path d="M99.1503 89.8296C98.6254 90.7938 97.7068 91.0129 96.7445 91.1006L96.5258 90.9691C94.5137 89.479 92.414 87.9888 93.3326 85.0085C93.8138 83.4307 94.8636 82.598 96.6133 83.606L96.7445 83.6937C98.8441 85.2277 98.013 87.945 99.1503 89.8734V89.8296Z" fill="#A6C717"/>
<path d="M126.489 123.358C125.921 126.645 123.34 125.549 121.328 125.637C121.765 124.804 122.202 124.015 122.596 123.183C123.865 123.226 125.177 123.314 126.445 123.358H126.489Z" fill="#CCDB75"/>
<path d="M47.1846 91.1006C46.3973 91.1006 45.5662 91.1006 44.7788 91.0568C44.7788 90.6623 44.7788 90.2679 44.6913 89.8296C44.8225 88.0765 44.6913 86.1042 47.3158 86.1919C48.7156 87.8573 48.4531 89.479 47.1846 91.1006Z" fill="#BED000"/>
<path d="M99.1503 89.8296C97.4881 88.1203 97.2257 85.8413 96.7445 83.6499C97.5319 83.6499 98.363 83.6499 99.1503 83.606C99.1503 85.666 99.1503 87.7259 99.1503 89.8296Z" fill="#8DBE24"/>
<path d="M121.415 125.812C120.059 127.302 118.397 128.179 116.341 128.135C116.997 125.023 119.359 125.725 121.415 125.812Z" fill="#E8EFCB"/>
<path d="M47.1846 91.1006C47.2284 89.479 47.2721 87.8573 47.3158 86.1919L47.2721 86.1481C47.8845 85.4906 48.6281 85.0085 49.503 84.8332C52.2587 84.3511 54.577 85.3592 57.3328 87.4191C55.7143 84.0882 57.639 81.9406 58.4264 79.5301C58.6888 79.0041 58.995 78.5658 59.3887 78.1276C63.2817 76.0677 66.5624 72.9559 70.6742 71.2466C72.5988 71.4657 73.0363 69.4497 74.3923 68.7484C76.8856 67.1268 79.5538 65.7681 81.8284 63.7959C83.4906 62.4372 85.8965 62.2619 87.2962 60.4211C91.1893 59.2378 94.6449 55.2494 99.1503 58.7995C100.419 60.4649 100.419 62.1304 99.1503 63.7959C99.1503 67.0391 99.0629 70.2824 99.0191 73.5256C96.6133 73.7886 96.7008 75.6294 96.5695 77.3387C96.0009 78.259 95.3885 79.1356 94.12 79.048C90.4456 78.7412 91.1018 82.8171 88.9584 84.0881C88.1273 84.3511 87.2962 84.3073 86.5526 83.8252C84.1468 82.0721 87.2962 76.8127 82.0909 76.8566C80.2975 76.5059 78.2416 76.5059 77.4542 78.259C76.7106 79.8368 79.1602 79.9245 79.7288 81.064C79.9913 85.3153 78.1541 89.216 74.7859 90.9253C70.018 93.3358 69.012 96.5353 69.9306 101.181C67.7872 103.153 69.8868 107.624 65.6876 108.369C60.4385 107.448 59.9136 100.567 54.752 99.6032C53.221 95.8778 51.0777 92.6346 47.1409 91.0568L47.1846 91.1006Z" fill="#F8E000"/>
<path d="M63.2817 41.4875C59.3887 41.619 55.4519 41.7943 52.2587 38.9016C49.328 36.4473 45.7411 35.3516 42.198 34.2121C37.6488 35.0448 36.0741 30.0484 32.3998 29.128C30.7813 26.6737 30.7376 24.1755 32.3998 21.7211C34.0182 21.7211 35.6367 21.7211 37.2989 21.7211C38.5674 23.3428 41.017 22.51 42.3292 24.0878H42.373C44.2976 26.4984 47.7095 24.4385 49.8092 26.4984C50.5528 26.586 51.3401 26.6299 52.0837 26.7175C53.396 28.2953 55.8456 27.4626 57.1141 29.128C58.3389 30.8373 60.8759 29.9169 62.057 31.6262C62.6694 34.3436 66.8686 33.2917 67.1311 36.4035C68.8807 40.348 64.9002 39.9973 63.3255 41.4875H63.2817Z" fill="#FADF00"/>
<path d="M64.6377 48.8067C67.9184 48.8067 71.1553 48.8944 74.436 48.9382C76.0545 50.9981 75.617 53.058 74.5235 55.1618C74.0861 59.8075 70.9366 61.0785 66.9561 61.3415C67.0436 60.0267 67.9184 59.2378 68.7495 58.3612C73.2987 53.4525 73.1675 53.1019 66.6061 51.3926C65.1627 50.9981 64.6377 50.2092 64.594 48.8506L64.6377 48.8067Z" fill="#E0DB00"/>
<path d="M49.5904 86.0166C48.8031 86.0166 48.0595 86.1042 47.2721 86.1481C47.8408 80.2751 52.7836 76.2868 59.6074 76.1991C60.3073 77.0319 60.3073 77.8646 59.6074 78.6535V78.7411C57.3766 82.6418 53.7897 84.7017 49.5904 85.9727V86.0166Z" fill="#ADC911"/>
<path d="M63.2817 41.4875C63.8941 39.2961 67.1748 39.1208 67.0873 36.4035C68.2684 36.4473 69.4931 36.4911 70.6742 36.535C71.8115 37.543 73.5174 37.7183 74.3048 39.1208C74.3048 39.8659 74.3048 40.6109 74.3048 41.356C70.6304 43.2406 66.9561 43.8542 63.238 41.4437L63.2817 41.4875Z" fill="#E2DD00"/>
<path d="M99.1941 58.7995C94.6012 57.3093 91.1893 61.6045 86.815 61.3853C85.9839 59.939 87.34 59.5446 88.0398 58.8433C94.0762 52.7074 94.9073 52.7074 99.1941 58.8433V58.7995Z" fill="#D1D700"/>
<path d="M59.6074 78.6973C59.6074 77.8646 59.6074 77.0319 59.6074 76.243C63.413 74.7966 65.5563 69.7126 70.7179 71.2904C67.8747 75.0158 63.9379 77.2072 59.6074 78.6973Z" fill="#CBD400"/>
<path d="M81.8722 63.7959C80.7349 67.4336 78.2853 69.099 74.436 68.7484C75.5296 65.0669 78.0229 63.4014 81.8722 63.7959Z" fill="#C4D200"/>
<path d="M109.036 71.2466C109.036 70.4139 109.036 69.625 109.036 68.7922C109.43 68.7922 109.867 68.7922 110.261 68.7922C113.017 69.5373 115.597 70.5453 116.385 73.7886C114.766 75.0596 113.148 75.0596 111.529 73.701C111.398 72.167 110.523 71.3781 109.036 71.2466Z" fill="#B5CC08"/>
<path d="M49.8092 26.5422C47.3158 25.7971 43.5978 28.7774 42.373 24.1317C44.8663 24.8329 48.3657 22.5539 49.8092 26.5422Z" fill="#CCD500"/>
<path d="M32.4435 21.7211C32.4435 24.1755 32.4435 26.6737 32.4435 29.128C31.6124 29.128 30.825 29.128 29.9939 29.128C30.8688 26.6737 27.8068 22.9045 32.4872 21.765L32.4435 21.7211Z" fill="#C2D100"/>
<path d="M88.0398 58.8433C87.6461 59.676 87.2525 60.5526 86.815 61.3853C86.2901 64.5409 83.8406 63.6644 81.8284 63.7959C82.7908 60.7717 85.634 60.1143 87.9961 58.8433L88.0398 58.8433Z" fill="#C4D200"/>
<path d="M29.7315 2.1301C29.819 2.87517 29.9065 3.57642 30.0377 4.32149C27.9381 4.32149 25.7947 4.32149 23.6951 4.27766C25.0073 1.64799 27.3694 1.91096 29.7315 2.1301Z" fill="#D5E089"/>
<path d="M74.5672 55.1618C74.5672 53.1019 74.5235 51.042 74.4797 48.9382C78.8102 50.9543 77.0168 53.0142 74.5672 55.1618Z" fill="#A8C816"/>
<path d="M62.1007 63.8397C62.4944 60.5088 65.0752 61.5168 67.0436 61.3853C66.6061 64.6286 64.0254 63.6644 62.1007 63.8397Z" fill="#D3D800"/>
<path d="M99.1941 63.8397C99.1941 62.1742 99.1941 60.5088 99.1941 58.7995C102.562 59.2378 101.337 61.8236 101.556 63.7959C100.769 63.7959 99.9377 63.7959 99.1503 63.8397H99.1941Z" fill="#CAD400"/>
<path d="M62.057 31.6701C60.1323 31.4071 57.5515 32.4151 57.1141 29.1719C59.0825 29.3472 61.707 28.2515 62.057 31.6701Z" fill="#CFD600"/>
<path d="M57.1141 29.1719C55.102 29.0404 52.6524 29.9169 52.0837 26.7613C54.0959 26.8928 56.6329 25.841 57.1141 29.1719Z" fill="#C7D300"/>
<path d="M42.373 24.1317C40.4046 23.9564 37.8675 25.0082 37.3426 21.765C39.3548 21.8526 41.8481 20.9322 42.373 24.1317Z" fill="#DADA00"/>
<path d="M74.3485 39.2084C72.6426 39.077 71.374 38.2004 70.7179 36.6226C72.5988 36.5788 74.436 36.535 74.3485 39.2084Z" fill="#A8C816"/>
<path d="M131.213 83.6937C133.225 87.3314 139.918 87.3314 138.825 93.3797C140.618 95.8778 140.093 98.9458 140.443 101.663C140.924 105.213 139.174 107.668 134.888 106.002C129.682 104.643 130.339 98.3322 126.402 95.9217C124.127 92.9414 123.121 89.3913 122.596 85.8413C122.246 83.5184 121.853 80.0998 126.314 81.1078C127.539 82.8171 130.076 81.8968 131.213 83.6937Z" fill="#FBDF00"/>
<path d="M126.358 81.1517C122.246 82.1159 123.296 85.7098 124.477 87.3752C126.445 90.1802 126.314 92.9852 126.445 95.9655C124.827 96.0531 123.908 96.842 123.865 98.5075C122.115 99.1211 121.721 97.5871 120.89 96.7106C120.278 95.6587 119.403 94.7383 119.009 93.555C118.047 90.3117 115.554 87.5067 116.385 83.7813C115.029 81.2393 114.504 78.6973 116.516 76.243C118.353 78.6535 120.147 80.8011 123.777 79.0041C124.696 78.5658 125.833 80.056 126.358 81.2393V81.1517Z" fill="#B4CC08"/>
<path d="M119.009 93.5111C120.628 93.555 121.284 94.5192 121.415 96.0093C122.684 100.918 127.539 105.169 123.952 110.911C121.459 114.242 118.003 115.557 114.023 115.863C116.735 113.935 116.56 111.086 116.516 108.281C117.303 106.616 120.103 104.863 116.21 103.504C113.542 100.436 114.373 97.4556 119.009 93.5111Z" fill="#EADF00"/>
<path d="M134.931 106.046C138.387 105.827 140.006 104.337 139.262 100.611C138.824 98.2884 138.956 95.834 138.868 93.4673C142.805 95.8778 142.149 100.48 143.155 103.942C144.205 107.492 138.824 108.982 134.931 106.09V106.046Z" fill="#CCD400"/>
<path d="M123.908 110.911C125.396 105.564 121.196 101.137 121.371 96.0093C122.202 96.842 122.99 97.6748 123.821 98.4637C125.658 102.583 129.201 106.703 123.908 110.911Z" fill="#BFD000"/>
<path d="M116.472 76.1553C116.472 78.6535 116.385 81.1955 116.341 83.6937C113.017 81.1955 112.273 77.4263 111.486 73.6571C113.104 73.6571 114.723 73.6571 116.341 73.701C116.341 74.4899 116.385 75.2788 116.429 76.1115L116.472 76.1553Z" fill="#D3D700"/>
<path d="M131.213 83.6937C129.289 83.3869 126.752 84.3073 126.314 81.1517C128.283 81.327 130.907 80.2313 131.213 83.6937Z" fill="#C4D200"/>
<path d="M149.716 86.148C151.641 86.0166 153.434 86.0166 153.391 88.6901C151.466 88.8654 150.547 87.5067 149.716 86.148Z" fill="#E7ECAF"/>
<path d="M54.577 44.1172C56.5892 44.2048 59.0825 43.1968 59.6949 46.3962C57.6827 46.3524 55.2332 47.2289 54.577 44.1172Z" fill="#D0D600"/>
<path d="M116.21 103.504C116.691 101.795 117.391 100.041 118.966 102.627C120.584 105.345 119.884 107.492 116.516 108.281C116.428 106.703 116.297 105.082 116.21 103.504Z" fill="#A7C716"/>
<path d="M101.644 118.274C98.1005 116.74 98.1443 115.074 101.425 113.234C101.512 114.899 101.556 116.608 101.644 118.274Z" fill="#BBCF00"/>
<path d="M111.398 105.871C111.311 106.659 111.398 107.624 110.261 107.624C109.167 107.624 109.124 106.659 109.124 105.871C109.124 105.082 109.124 104.117 110.261 104.117C111.354 104.117 111.354 105.082 111.398 105.871Z" fill="#EADF00"/>
<path d="M42.198 34.2121C46.4847 33.8176 50.5965 33.7738 52.2587 38.9016C48.1907 38.9016 44.7351 37.543 42.198 34.2121Z" fill="#D9D900"/>
<path d="M65.7313 108.413C68.7058 106.791 64.8127 101.751 69.4494 101.006C71.1991 104.249 71.549 108.851 77.0168 108.456C77.8042 108.413 78.1978 109.903 78.2416 110.955C78.0229 113.409 76.0982 113.234 74.436 113.409C70.4992 113.54 66.5624 113.672 65.7313 108.413Z" fill="#E5DD00"/>
<path d="M78.2416 110.955C77.6729 110.385 76.9293 109.289 76.4919 109.377C68.662 111.13 69.4931 105.695 69.4057 100.962C66.3437 96.1408 66.4312 92.7222 72.7738 90.6623C76.9731 89.3037 77.2793 84.3949 79.3351 81.1079C77.8916 78.3029 79.9038 77.2948 81.8284 76.1553C85.8965 73.438 87.3837 74.6213 86.815 79.3109C86.6401 80.7134 86.815 82.1597 86.815 83.6061C88.8272 87.5067 89.702 91.6265 89.3521 96.0093C89.9207 99.647 87.34 102.408 86.7713 105.739C84.9341 105.739 84.4092 107.58 83.097 108.369C81.8722 109.202 80.3412 109.508 79.3789 110.779C78.9852 110.779 78.6353 110.823 78.2416 110.867L78.2416 110.955Z" fill="#FDE000"/>
<path d="M79.3789 110.867C79.5538 108.369 81.3035 108.369 83.097 108.456C82.3533 110.034 81.216 110.998 79.3789 110.867Z" fill="#B8CE03"/>
<path d="M89.3521 96.0531C86.1589 92.4154 86.815 87.945 86.815 83.6499C87.6024 83.6499 88.3898 83.5622 89.1771 83.5184C91.9766 83.0363 91.1455 78.8288 94.2075 78.6535C94.9948 78.2152 95.7822 77.8208 96.6133 77.3825C96.6133 79.4424 96.6133 81.5023 96.6133 83.5622C90.8393 85.9727 97.0507 88.5148 96.5258 90.9691C91.8017 89.3475 92.5453 95.4834 89.3521 96.097V96.0531Z" fill="#DCDA00"/>
<path d="M49.5904 86.0166C52.6087 83.1239 56.0205 80.8011 59.6511 78.785C60.5697 81.6338 55.0145 85.6659 61.7945 87.2876C56.8079 90.8815 53.6585 85.0085 49.5904 86.0166Z" fill="#E6DE00"/>
<path d="M94.2075 78.6535C92.8952 81.5461 90.6206 84.132 91.9766 88.1203C88.2585 87.2876 89.7458 84.9209 89.1771 83.5622C88.8272 80.8887 89.877 78.785 92.0204 77.251C93.8138 75.98 93.945 77.514 94.2512 78.6973L94.2075 78.6535Z" fill="#BDCF00"/>
<path d="M81.8722 76.1991C81.0411 77.8646 80.21 79.4862 79.3789 81.1517C77.5854 80.8887 75.0921 81.9844 74.611 78.9165C74.3923 77.5578 75.2671 75.98 76.4044 76.4183C78.4165 77.2072 79.9913 71.5534 81.8722 76.1991Z" fill="#D5D800"/>
</g>
<defs>
<filter id="filter0_d_40_299" x="0" y="0" width="243" height="201" filterUnits="userSpaceOnUse" color-interpolation-filters="sRGB">
<feFlood flood-opacity="0" result="BackgroundImageFix"/>
<feColorMatrix in="SourceAlpha" type="matrix" values="0 0 0 0 0 0 0 0 0 0 0 0 0 0 0 0 0 0 127 0" result="hardAlpha"/>
<feOffset dx="5" dy="8"/>
<feGaussianBlur stdDeviation="5"/>
<feComposite in2="hardAlpha" operator="out"/>
<feColorMatrix type="matrix" values="0 0 0 0 0 0 0 0 0 0 0 0 0 0 0 0 0 0 0.29 0"/>
<feBlend mode="normal" in2="BackgroundImageFix" result="effect1_dropShadow_40_299"/>
<feBlend mode="normal" in="SourceGraphic" in2="effect1_dropShadow_40_299" result="shape"/>
</filter>
</defs>
</svg>
