<svg width="177" height="9" viewBox="0 0 177 9" fill="none" xmlns="http://www.w3.org/2000/svg">
<g clip-path="url(#clip0_40_104)">
<path d="M3.9836 5.73473C4.07385 5.7411 4.14475 5.78565 4.19632 5.87476C4.24789 5.96387 4.24144 6.05298 4.17698 6.14209C3.72577 6.76585 3.09406 7.07137 2.28831 7.07137C1.66305 7.07137 1.12159 6.84223 0.67682 6.37759C0.232048 5.91295 0.00643921 5.34647 0.00643921 4.67179C0.00643921 3.99711 0.232048 3.43063 0.67682 2.96599C1.12159 2.50135 1.66305 2.27222 2.28831 2.27222C3.12629 2.27222 3.758 2.565 4.17698 3.14421C4.235 3.24605 4.24144 3.33516 4.20277 3.41154C4.16409 3.49428 4.09319 3.53884 3.9836 3.55157C3.88047 3.5643 3.79667 3.52611 3.73221 3.44336C3.42281 3.01055 2.93936 2.79414 2.28187 2.79414C1.79842 2.79414 1.38588 2.97872 1.05069 3.34789C0.715496 3.71705 0.547901 4.15623 0.547901 4.67816C0.547901 5.20008 0.715496 5.64563 1.05069 6.00843C1.38588 6.37759 1.79842 6.56218 2.28187 6.56218C2.89424 6.56218 3.37768 6.32667 3.73221 5.8493C3.80956 5.76656 3.89336 5.73474 3.9836 5.7411V5.73473Z" fill="#D31975"/>
<path d="M9.75276 2.27222C9.83656 2.27222 9.90102 2.29768 9.95259 2.35496C10.0042 2.40588 10.0235 2.46953 10.0235 2.53318C10.0235 2.59683 9.99771 2.66048 9.95259 2.7114C9.90102 2.76232 9.83656 2.79414 9.75276 2.79414C9.39823 2.79414 9.08883 2.86415 8.82454 3.00418C8.55381 3.14421 8.34754 3.35425 8.19284 3.63431C8.03813 3.91437 7.96078 4.24534 7.96078 4.62724V6.82314C7.96078 6.93771 7.91566 7.01408 7.82541 7.05864C7.73517 7.10319 7.64493 7.10319 7.54824 7.05864C7.45799 7.01408 7.41287 6.93771 7.41287 6.82314V2.53318C7.41287 2.48226 7.42576 2.43134 7.45799 2.38679C7.48378 2.34223 7.52245 2.31041 7.56113 2.29768C7.59981 2.27858 7.64493 2.27222 7.69649 2.27222C7.74806 2.27222 7.78674 2.27858 7.82541 2.29768C7.86409 2.31677 7.89632 2.34223 7.92855 2.38679C7.95433 2.43134 7.97367 2.47589 7.97367 2.53318V3.00418C8.40555 2.51408 8.99858 2.27222 9.7721 2.27222H9.75276Z" fill="#D31975"/>
<path d="M13.1498 2.96601C13.601 2.50137 14.1489 2.27223 14.7935 2.27223C15.1416 2.27223 15.4639 2.34861 15.7733 2.49501C16.0827 2.64776 16.347 2.85144 16.5661 3.11877V2.52683C16.5661 2.47591 16.579 2.42499 16.6113 2.38044C16.6371 2.33588 16.6757 2.30406 16.7144 2.29133C16.7531 2.27223 16.7982 2.26587 16.8433 2.26587C16.8884 2.26587 16.94 2.27223 16.9787 2.29133C17.0174 2.31042 17.0496 2.33588 17.0818 2.38044C17.1076 2.42499 17.1269 2.46955 17.1269 2.52683V6.81042C17.1269 6.92499 17.0818 7.00137 16.9916 7.04593C16.9013 7.09048 16.8111 7.09048 16.7144 7.04593C16.6242 7.00137 16.579 6.92499 16.579 6.81042V6.21849C16.3599 6.48581 16.0956 6.69586 15.7862 6.84225C15.4768 6.98864 15.148 7.06502 14.8064 7.06502C14.1682 7.06502 13.6203 6.83588 13.1627 6.37124C12.705 5.9066 12.4794 5.34013 12.4794 4.66544C12.4794 3.99076 12.705 3.42429 13.1627 2.95965L13.1498 2.96601ZM14.7871 6.55583C15.1094 6.55583 15.4123 6.47308 15.683 6.30123C15.9602 6.12938 16.1729 5.90024 16.3276 5.61382C16.4824 5.3274 16.5597 5.01552 16.5597 4.67181C16.5597 4.14989 16.3857 3.70434 16.044 3.34154C15.6959 2.97238 15.277 2.78779 14.7871 2.78779C14.2972 2.78779 13.8717 2.97238 13.5301 3.34154C13.182 3.71071 13.0144 4.14989 13.0144 4.67181C13.0144 5.19373 13.1885 5.63928 13.5301 6.00208C13.8782 6.37124 14.2972 6.55583 14.7871 6.55583Z" fill="#D31975"/>
<path d="M22.5545 2.27233C22.6769 2.27233 22.7543 2.31689 22.7994 2.39963C22.8445 2.48874 22.8445 2.57149 22.7994 2.6606C22.7543 2.7497 22.6705 2.78789 22.5545 2.78789H21.4329V6.81052C21.4329 6.92509 21.3878 7.00147 21.2975 7.04603C21.2073 7.09058 21.117 7.09058 21.0203 7.04603C20.9301 7.00147 20.885 6.92509 20.885 6.81052V2.78789H20.3564C20.2339 2.78789 20.1566 2.74334 20.1114 2.6606C20.0663 2.57149 20.0663 2.48874 20.1114 2.39963C20.1566 2.31052 20.2404 2.27233 20.3564 2.27233H20.8979C20.9301 1.56583 21.1041 1.04391 21.4071 0.706564C21.71 0.369223 22.0968 0.203735 22.5609 0.203735C22.6447 0.203735 22.7092 0.229195 22.7607 0.286479C22.8123 0.337399 22.8316 0.401048 22.8316 0.464697C22.8316 0.528346 22.8059 0.591996 22.7607 0.642915C22.7092 0.693834 22.6447 0.725659 22.5609 0.725659C22.2451 0.725659 21.9872 0.865687 21.7938 1.13938C21.6005 1.41307 21.4844 1.79497 21.4522 2.2787H22.5609L22.5545 2.27233Z" fill="#D31975"/>
<path d="M26.5252 5.73479C26.5316 6.28217 26.8991 6.55586 27.6339 6.55586C27.7564 6.55586 27.8337 6.60042 27.8788 6.68316C27.924 6.77227 27.924 6.85502 27.8788 6.94412C27.8337 7.03323 27.7499 7.07142 27.6339 7.07142C27.0924 7.07142 26.6799 6.95686 26.4027 6.72135C26.1255 6.48585 25.9837 6.15487 25.9773 5.72842V2.78147H25.4358C25.3133 2.78147 25.236 2.73691 25.1909 2.65417C25.1457 2.56506 25.1457 2.48231 25.1909 2.39321C25.236 2.3041 25.3198 2.26591 25.4358 2.26591H25.9773V1.2157C25.9773 1.10113 26.0224 1.02475 26.1126 0.980193C26.2029 0.935639 26.2931 0.935639 26.3898 0.980193C26.4801 1.02475 26.5252 1.10113 26.5252 1.2157V2.26591H27.6339C27.7564 2.26591 27.8337 2.31046 27.8788 2.39321C27.924 2.48231 27.924 2.56506 27.8788 2.65417C27.8337 2.74328 27.7499 2.78147 27.6339 2.78147H26.5252V5.72842V5.73479Z" fill="#D31975"/>
<path d="M30.844 1.38753C30.7989 1.29842 30.7989 1.21567 30.844 1.12657C30.8891 1.03746 30.9729 0.999268 31.0889 0.999268H31.1018C31.2243 0.999268 31.3017 1.04382 31.3468 1.12657C31.3919 1.21567 31.3919 1.29842 31.3468 1.38753C31.3017 1.47664 31.2179 1.51483 31.1018 1.51483H31.0889C30.9665 1.51483 30.8891 1.47027 30.844 1.38753ZM30.9536 2.29771C31.0438 2.25316 31.1341 2.25316 31.2308 2.29771C31.321 2.34227 31.3661 2.41865 31.3661 2.53321V6.81681C31.3661 6.93138 31.321 7.00775 31.2308 7.05231C31.1405 7.09686 31.0503 7.09686 30.9536 7.05231C30.8633 7.00775 30.8182 6.93138 30.8182 6.81681V2.53321C30.8182 2.41865 30.8633 2.34227 30.9536 2.29771Z" fill="#D31975"/>
<path d="M38.7854 7.04593C38.6952 7.09048 38.6049 7.09685 38.5147 7.04593C38.4245 7.00137 38.3793 6.925 38.3793 6.82316L38.3664 4.30901C38.3664 3.89529 38.2246 3.53886 37.941 3.23971C37.6574 2.94056 37.3157 2.7878 36.9032 2.7878C36.4907 2.7878 36.149 2.94056 35.8654 3.23971C35.5818 3.53886 35.44 3.89529 35.44 4.30901V6.81043C35.44 6.925 35.3948 7.00137 35.3046 7.04593C35.2144 7.09048 35.1241 7.09048 35.0274 7.04593C34.9372 7.00137 34.8921 6.925 34.8921 6.81043V2.5332C34.8921 2.41863 34.9372 2.34225 35.0274 2.2977C35.1177 2.25314 35.2079 2.25314 35.3046 2.2977C35.3948 2.34225 35.44 2.41863 35.44 2.5332V2.9151C35.8332 2.48865 36.3231 2.27224 36.8968 2.27224C37.4704 2.27224 37.9152 2.46955 38.3149 2.87054C38.7081 3.26517 38.9079 3.7489 38.9079 4.31538V6.81679C38.9079 6.925 38.8628 7.00137 38.7725 7.04593H38.7854Z" fill="#D31975"/>
<path d="M42.7819 2.96603C43.2332 2.50139 43.7811 2.27226 44.4257 2.27226C44.7737 2.27226 45.096 2.34863 45.4055 2.49503C45.7149 2.64779 45.9791 2.85146 46.1983 3.11879V2.52685C46.1983 2.41228 46.2434 2.3359 46.3401 2.29135C46.4368 2.2468 46.527 2.2468 46.6173 2.29135C46.7075 2.3359 46.7527 2.41865 46.7527 2.53322L46.7398 6.81044C46.7398 7.04595 46.6818 7.28781 46.5722 7.54241C46.4626 7.79701 46.3079 8.03251 46.1145 8.24255C45.9211 8.45896 45.6762 8.63718 45.3797 8.77721C45.0832 8.91723 44.7673 8.99361 44.4321 8.99361C44.3225 8.99361 44.2387 8.94906 44.1872 8.86632C44.1356 8.77721 44.1356 8.69446 44.1872 8.60535C44.2323 8.51624 44.3161 8.47805 44.4321 8.47805C44.9349 8.47169 45.3539 8.28711 45.6891 7.93067C46.0243 7.57424 46.1983 7.19871 46.1983 6.81681V6.22487C45.9791 6.4922 45.7149 6.70224 45.4055 6.84863C45.096 7.00139 44.7673 7.07141 44.4257 7.07141C43.7875 7.07141 43.2396 6.84227 42.7819 6.37763C42.3243 5.91299 42.0987 5.34651 42.0987 4.67183C42.0987 3.99715 42.3243 3.43067 42.7819 2.96603ZM44.4192 6.55585C44.7415 6.55585 45.0445 6.4731 45.3152 6.30125C45.5924 6.1294 45.8051 5.90026 45.9598 5.61384C46.1145 5.32742 46.1919 5.01554 46.1919 4.67183C46.1919 4.14991 46.0178 3.70436 45.6762 3.34156C45.3281 2.9724 44.9091 2.78781 44.4192 2.78781C43.9293 2.78781 43.5039 2.9724 43.1623 3.34156C42.8142 3.71073 42.6466 4.14991 42.6466 4.67183C42.6466 5.19375 42.8206 5.6393 43.1623 6.0021C43.5103 6.37127 43.9293 6.55585 44.4192 6.55585Z" fill="#D31975"/>
<path d="M59.4448 3.82529C59.3545 3.86985 59.2643 3.86985 59.1676 3.82529C59.0709 3.78074 59.0322 3.70436 59.0322 3.58979C59.0322 3.35429 58.9097 3.16334 58.6584 3.01695C58.407 2.87055 58.1169 2.79417 57.7882 2.79417C57.4594 2.79417 57.1693 2.87055 56.9179 3.01695C56.6666 3.16334 56.5441 3.36065 56.5441 3.58979C56.5441 3.74891 56.6537 3.88894 56.8793 4.00988C57.0984 4.13081 57.3692 4.23265 57.685 4.32812C58.0009 4.42359 58.3167 4.51907 58.6326 4.62091C58.9484 4.72911 59.2192 4.8755 59.4383 5.06645C59.6575 5.2574 59.7671 5.48654 59.7671 5.75386C59.7671 6.10393 59.5801 6.40945 59.2063 6.67678C58.8324 6.9441 58.3618 7.07777 57.801 7.07777C57.2402 7.07777 56.7697 6.9441 56.3958 6.67678C56.022 6.40945 55.835 6.10393 55.835 5.75386C55.835 5.63929 55.8801 5.56292 55.9704 5.51836C56.0606 5.47381 56.1509 5.47381 56.2476 5.51836C56.3378 5.56292 56.3829 5.63929 56.3829 5.75386C56.3829 5.98937 56.5247 6.18031 56.8084 6.32671C57.092 6.47946 57.4207 6.54948 57.7946 6.54948C58.1685 6.54948 58.4972 6.4731 58.7808 6.32671C59.0645 6.17395 59.2063 5.983 59.2063 5.75386C59.2063 5.59474 59.0967 5.45471 58.8775 5.33378C58.6584 5.21284 58.3941 5.11101 58.0718 5.01553C57.7559 4.92642 57.4401 4.83095 57.1242 4.72275C56.8084 4.62091 56.5441 4.46815 56.3185 4.2772C56.0993 4.08625 55.9833 3.85075 55.9833 3.58343C55.9833 3.23335 56.1573 2.92784 56.499 2.66051C56.847 2.39318 57.2725 2.25952 57.7753 2.25952C58.278 2.25952 58.7099 2.39318 59.0516 2.66051C59.3996 2.92784 59.5672 3.23335 59.5672 3.58343C59.5672 3.69799 59.5221 3.77437 59.4319 3.81893L59.4448 3.82529Z" fill="#D31975"/>
<path d="M62.7838 2.3678C62.8289 2.32325 62.874 2.29779 62.9256 2.28506C62.9772 2.27233 63.0352 2.27233 63.0867 2.28506C63.1448 2.29779 63.1899 2.32325 63.2221 2.3678C63.2543 2.41236 63.2737 2.46964 63.2737 2.53966L63.2608 5.27657C63.2608 5.63937 63.409 5.93853 63.7056 6.18676C64.0021 6.43499 64.3502 6.55592 64.7627 6.55592C65.1752 6.55592 65.5233 6.43499 65.8134 6.18676C66.1035 5.93853 66.2517 5.63301 66.2517 5.27657V2.53329C66.2517 2.46964 66.2711 2.41236 66.3162 2.3678C66.3613 2.32325 66.4064 2.29779 66.458 2.28506C66.5096 2.27233 66.5676 2.27233 66.6191 2.28506C66.6707 2.29779 66.7223 2.32325 66.7545 2.3678C66.7867 2.41236 66.8061 2.46964 66.8061 2.53966L66.7932 5.27657C66.7932 5.77304 66.5934 6.19312 66.2001 6.54956C65.8069 6.90599 65.3235 7.07785 64.7498 7.07785C64.1761 7.07785 63.6927 6.89963 63.2995 6.54956C62.8998 6.19312 62.7 5.77304 62.7 5.27657V2.53329C62.7 2.46964 62.7193 2.41236 62.7644 2.3678H62.7838Z" fill="#D31975"/>
<path d="M73.4003 3.82529C73.3101 3.86985 73.2198 3.86985 73.1231 3.82529C73.0264 3.78074 72.9878 3.70436 72.9878 3.58979C72.9878 3.35429 72.8653 3.16334 72.6139 3.01695C72.3625 2.87055 72.0724 2.79417 71.7437 2.79417C71.4149 2.79417 71.1249 2.87055 70.8735 3.01695C70.6221 3.16334 70.4996 3.36065 70.4996 3.58979C70.4996 3.74891 70.6092 3.88894 70.8348 4.00988C71.054 4.13081 71.3247 4.23265 71.6406 4.32812C71.9564 4.42359 72.2723 4.51907 72.5881 4.62091C72.904 4.72911 73.1747 4.8755 73.3939 5.06645C73.613 5.2574 73.7226 5.48654 73.7226 5.75386C73.7226 6.10393 73.5357 6.40945 73.1618 6.67678C72.7879 6.9441 72.3174 7.07777 71.7566 7.07777C71.1958 7.07777 70.7252 6.9441 70.3514 6.67678C69.9775 6.40945 69.7906 6.10393 69.7906 5.75386C69.7906 5.63929 69.8357 5.56292 69.9259 5.51836C70.0162 5.47381 70.1064 5.47381 70.2031 5.51836C70.2933 5.56292 70.3385 5.63929 70.3385 5.75386C70.3385 5.98937 70.4803 6.18031 70.7639 6.32671C71.0475 6.47946 71.3763 6.54948 71.7501 6.54948C72.124 6.54948 72.4527 6.4731 72.7364 6.32671C73.02 6.17395 73.1618 5.983 73.1618 5.75386C73.1618 5.59474 73.0522 5.45471 72.8331 5.33378C72.6139 5.21284 72.3496 5.11101 72.0273 5.01553C71.7115 4.92642 71.3956 4.83095 71.0798 4.72275C70.7639 4.62091 70.4996 4.46815 70.274 4.2772C70.0548 4.08625 69.9388 3.85075 69.9388 3.58343C69.9388 3.23335 70.1129 2.92784 70.4545 2.66051C70.8026 2.39318 71.228 2.25952 71.7308 2.25952C72.2336 2.25952 72.6655 2.39318 73.0071 2.66051C73.3552 2.92784 73.5228 3.23335 73.5228 3.58343C73.5228 3.69799 73.4777 3.77437 73.3874 3.81893L73.4003 3.82529Z" fill="#D31975"/>
<path d="M77.616 5.73479C77.6224 6.28217 77.9898 6.55586 78.7247 6.55586C78.8471 6.55586 78.9245 6.60042 78.9696 6.68316C79.0147 6.77227 79.0147 6.85502 78.9696 6.94412C78.9245 7.03323 78.8407 7.07142 78.7247 7.07142C78.1832 7.07142 77.7707 6.95686 77.4935 6.72135C77.2163 6.48585 77.0745 6.15487 77.0681 5.72842V2.78147H76.5266C76.4041 2.78147 76.3268 2.73691 76.2752 2.65417C76.2301 2.56506 76.2301 2.48231 76.2752 2.39321C76.3203 2.3041 76.4041 2.26591 76.5266 2.26591H77.0681V1.2157C77.0681 1.10113 77.1132 1.02475 77.2034 0.980193C77.2937 0.935639 77.3839 0.935639 77.4806 0.980193C77.5708 1.02475 77.616 1.10113 77.616 1.2157V2.26591H78.7247C78.8471 2.26591 78.9245 2.31046 78.9696 2.39321C79.0147 2.48231 79.0147 2.56506 78.9696 2.65417C78.9245 2.74328 78.8407 2.78147 78.7247 2.78147H77.616V5.72842V5.73479Z" fill="#D31975"/>
<path d="M82.2248 2.96601C82.6761 2.50137 83.224 2.27223 83.8686 2.27223C84.2167 2.27223 84.539 2.34861 84.8484 2.49501C85.1578 2.64776 85.4221 2.85144 85.6412 3.11877V2.52683C85.6412 2.47591 85.6541 2.42499 85.6863 2.38044C85.7121 2.33588 85.7508 2.30406 85.7895 2.29133C85.8281 2.27223 85.8733 2.26587 85.9248 2.26587C85.9764 2.26587 86.0151 2.27223 86.0602 2.29133C86.0989 2.31042 86.1311 2.33588 86.1633 2.38044C86.1891 2.42499 86.2085 2.46955 86.2085 2.52683V6.81042C86.2085 6.92499 86.1633 7.00137 86.0731 7.04593C85.9829 7.09048 85.8926 7.09048 85.7959 7.04593C85.7057 7.00137 85.6606 6.92499 85.6606 6.81042V6.21849C85.4414 6.48581 85.1771 6.69586 84.8677 6.84225C84.5583 6.98864 84.2295 7.06502 83.8879 7.06502C83.2498 7.06502 82.7018 6.83588 82.2442 6.37124C81.7865 5.9066 81.5609 5.34013 81.5609 4.66544C81.5609 3.99076 81.7865 3.42429 82.2442 2.95965L82.2248 2.96601ZM83.8686 6.55583C84.1909 6.55583 84.4938 6.47308 84.7646 6.30123C85.0353 6.12938 85.2545 5.90024 85.4092 5.61382C85.5639 5.3274 85.6412 5.01552 85.6412 4.67181C85.6412 4.14989 85.4672 3.70434 85.1255 3.34154C84.7775 2.97238 84.3585 2.78779 83.8686 2.78779C83.3787 2.78779 82.9532 2.97238 82.6116 3.34154C82.2635 3.71071 82.0959 4.14989 82.0959 4.67181C82.0959 5.19373 82.27 5.63928 82.6116 6.00208C82.9597 6.37124 83.3787 6.55583 83.8686 6.55583Z" fill="#D31975"/>
<path d="M89.7602 1.38753C89.7151 1.29842 89.7151 1.21567 89.7602 1.12657C89.8053 1.03746 89.8891 0.999268 90.0051 0.999268H90.018C90.1405 0.999268 90.2179 1.04382 90.263 1.12657C90.3081 1.21567 90.3081 1.29842 90.263 1.38753C90.2179 1.47664 90.1341 1.51483 90.018 1.51483H90.0051C89.8827 1.51483 89.8053 1.47027 89.7602 1.38753ZM89.8698 2.29771C89.96 2.25316 90.0503 2.25316 90.147 2.29771C90.2372 2.34227 90.2823 2.41865 90.2823 2.53321V6.81681C90.2823 6.93138 90.2372 7.00775 90.147 7.05231C90.0567 7.09686 89.9665 7.09686 89.8698 7.05231C89.7795 7.00775 89.7344 6.93138 89.7344 6.81681V2.53321C89.7344 2.41865 89.7795 2.34227 89.8698 2.29771Z" fill="#D31975"/>
<path d="M97.7016 7.04593C97.6114 7.09048 97.5211 7.09685 97.4309 7.04593C97.3406 7.00137 97.2955 6.925 97.2955 6.82316L97.2826 4.30901C97.2826 3.89529 97.1408 3.53886 96.8572 3.23971C96.5736 2.94056 96.2319 2.7878 95.8194 2.7878C95.4069 2.7878 95.0652 2.94056 94.7816 3.23971C94.498 3.53886 94.3562 3.89529 94.3562 4.30901V6.81043C94.3562 6.925 94.311 7.00137 94.2208 7.04593C94.1306 7.09048 94.0403 7.09048 93.9436 7.04593C93.8534 7.00137 93.8083 6.925 93.8083 6.81043V2.5332C93.8083 2.41863 93.8534 2.34225 93.9436 2.2977C94.0339 2.25314 94.1241 2.25314 94.2208 2.2977C94.311 2.34225 94.3562 2.41863 94.3562 2.5332V2.9151C94.7494 2.48865 95.2393 2.27224 95.813 2.27224C96.3866 2.27224 96.8314 2.46955 97.2311 2.87054C97.6307 3.27153 97.8241 3.7489 97.8241 4.31538V6.81679C97.8241 6.925 97.779 7.00137 97.6887 7.04593H97.7016Z" fill="#D31975"/>
<path d="M101.698 2.96601C102.149 2.50137 102.697 2.27223 103.342 2.27223C103.69 2.27223 104.012 2.34861 104.322 2.49501C104.631 2.64776 104.895 2.85144 105.115 3.11877V2.52683C105.115 2.47591 105.127 2.42499 105.16 2.38044C105.185 2.33588 105.224 2.30406 105.263 2.29133C105.301 2.27223 105.347 2.26587 105.398 2.26587C105.45 2.26587 105.488 2.27223 105.533 2.29133C105.572 2.31042 105.604 2.33588 105.637 2.38044C105.662 2.42499 105.682 2.46955 105.682 2.52683V6.81042C105.682 6.92499 105.637 7.00137 105.546 7.04593C105.456 7.09048 105.366 7.09048 105.269 7.04593C105.179 7.00137 105.134 6.92499 105.134 6.81042V6.21849C104.915 6.48581 104.65 6.69586 104.341 6.84225C104.032 6.98864 103.703 7.06502 103.361 7.06502C102.723 7.06502 102.175 6.83588 101.717 6.37124C101.26 5.9066 101.034 5.34013 101.034 4.66544C101.034 3.99076 101.26 3.42429 101.717 2.95965L101.698 2.96601ZM103.335 6.55583C103.658 6.55583 103.961 6.47308 104.231 6.30123C104.502 6.12938 104.721 5.90024 104.876 5.61382C105.031 5.3274 105.108 5.01552 105.108 4.67181C105.108 4.14989 104.934 3.70434 104.592 3.34154C104.244 2.97238 103.825 2.78779 103.335 2.78779C102.846 2.78779 102.42 2.97238 102.078 3.34154C101.73 3.71071 101.563 4.14989 101.563 4.67181C101.563 5.19373 101.737 5.63928 102.078 6.00208C102.427 6.37124 102.846 6.55583 103.335 6.55583Z" fill="#D31975"/>
<path d="M109.266 0.267331C109.266 0.152762 109.311 0.0763834 109.401 0.0318289C109.491 -0.0127255 109.582 -0.0127255 109.678 0.0318289C109.775 0.0763834 109.814 0.152762 109.814 0.267331V3.11882C110.033 2.85149 110.297 2.64145 110.606 2.49505C110.916 2.3423 111.245 2.27228 111.586 2.27228C112.224 2.27228 112.772 2.50142 113.23 2.96606C113.688 3.4307 113.913 3.99718 113.913 4.67186C113.913 5.34654 113.688 5.91302 113.23 6.37766C112.779 6.8423 112.231 7.07143 111.586 7.07143C111.238 7.07143 110.916 6.99505 110.606 6.84866C110.297 6.6959 110.033 6.49222 109.814 6.23126V6.81047C109.814 6.92504 109.769 7.00142 109.678 7.04597C109.588 7.09053 109.498 7.09053 109.401 7.04597C109.311 7.00142 109.266 6.92504 109.266 6.81047V0.267331ZM110.336 6.00849C110.684 6.37766 111.096 6.56224 111.593 6.56224C111.915 6.56224 112.218 6.47949 112.489 6.30764C112.766 6.13579 112.979 5.90665 113.133 5.62023C113.288 5.33381 113.365 5.02193 113.365 4.67822C113.365 4.1563 113.191 3.71075 112.85 3.34795C112.502 2.97879 112.083 2.7942 111.593 2.7942C111.27 2.7942 110.967 2.87695 110.697 3.0488C110.42 3.22065 110.207 3.44979 110.052 3.74258C109.897 4.03536 109.82 4.34725 109.82 4.69095C109.82 5.20651 109.994 5.64569 110.336 6.01486V6.00849Z" fill="#D31975"/>
<path d="M117.233 0.0318289C117.323 -0.0127255 117.413 -0.0127255 117.51 0.0318289C117.607 0.0763834 117.645 0.152762 117.645 0.267331V6.81684C117.645 6.9314 117.6 7.00778 117.51 7.05234C117.42 7.09689 117.33 7.09689 117.233 7.05234C117.143 7.00778 117.098 6.9314 117.098 6.81684V0.267331C117.098 0.152762 117.143 0.0763834 117.233 0.0318289Z" fill="#D31975"/>
<path d="M124.878 5.75386C125.026 5.8557 125.045 5.97664 124.942 6.11666C124.465 6.76589 123.795 7.08413 122.944 7.07777C122.312 7.07777 121.764 6.84863 121.313 6.39036C120.856 5.93208 120.63 5.37197 120.624 4.71002V4.62727C120.63 4.19446 120.74 3.79347 120.952 3.43067C121.165 3.06787 121.442 2.78145 121.797 2.5714C122.151 2.36773 122.532 2.25952 122.951 2.25952C123.602 2.25952 124.149 2.50775 124.601 2.99785C125.052 3.48795 125.278 4.13081 125.278 4.92006H121.197C121.255 5.37833 121.449 5.76659 121.777 6.07847C122.106 6.39036 122.499 6.54311 122.951 6.54311C123.602 6.54948 124.117 6.30125 124.504 5.80478C124.607 5.66475 124.736 5.64566 124.884 5.7475L124.878 5.75386ZM124.723 4.41087C124.723 4.1499 124.646 3.89531 124.491 3.64707C124.336 3.39884 124.117 3.19517 123.84 3.02968C123.563 2.86419 123.266 2.78145 122.944 2.78145C122.493 2.78145 122.1 2.9342 121.771 3.24608C121.442 3.55797 121.249 3.93986 121.191 4.4045H124.717L124.723 4.41087Z" fill="#D31975"/>
<path d="M136.184 2.27233C136.307 2.27233 136.384 2.31689 136.429 2.39963C136.474 2.48874 136.474 2.57149 136.429 2.6606C136.384 2.7497 136.3 2.78789 136.184 2.78789H135.062V6.81052C135.062 6.92509 135.017 7.00147 134.927 7.04603C134.837 7.09058 134.747 7.09058 134.65 7.04603C134.56 7.00147 134.515 6.92509 134.515 6.81052V2.78789H133.986C133.864 2.78789 133.786 2.74334 133.741 2.6606C133.696 2.57149 133.696 2.48874 133.741 2.39963C133.786 2.31052 133.87 2.27233 133.986 2.27233H134.527C134.56 1.56583 134.734 1.04391 135.037 0.706564C135.34 0.369223 135.726 0.203735 136.191 0.203735C136.274 0.203735 136.339 0.229195 136.39 0.286479C136.442 0.337399 136.461 0.401048 136.461 0.464697C136.461 0.528346 136.435 0.591996 136.39 0.642915C136.339 0.693834 136.274 0.725659 136.191 0.725659C135.875 0.725659 135.617 0.865687 135.423 1.13938C135.23 1.41307 135.114 1.79497 135.082 2.2787H136.191L136.184 2.27233Z" fill="#D31975"/>
<path d="M139.684 2.96601C140.135 2.50137 140.683 2.27223 141.328 2.27223C141.676 2.27223 141.998 2.34861 142.308 2.49501C142.617 2.64776 142.881 2.85144 143.101 3.11877V2.52683C143.101 2.47591 143.114 2.42499 143.146 2.38044C143.172 2.33588 143.21 2.30406 143.249 2.29133C143.288 2.27223 143.333 2.26587 143.384 2.26587C143.436 2.26587 143.474 2.27223 143.52 2.29133C143.558 2.31042 143.591 2.33588 143.623 2.38044C143.649 2.42499 143.668 2.46955 143.668 2.52683V6.81042C143.668 6.92499 143.623 7.00137 143.533 7.04593C143.442 7.09048 143.352 7.09048 143.255 7.04593C143.165 7.00137 143.12 6.92499 143.12 6.81042V6.21849C142.901 6.48581 142.637 6.69586 142.327 6.84225C142.018 6.98864 141.689 7.06502 141.347 7.06502C140.709 7.06502 140.161 6.83588 139.704 6.37124C139.246 5.9066 139.02 5.34013 139.02 4.66544C139.02 3.99076 139.246 3.42429 139.704 2.95965L139.684 2.96601ZM141.328 6.55583C141.65 6.55583 141.953 6.47308 142.224 6.30123C142.495 6.12938 142.714 5.90024 142.869 5.61382C143.023 5.3274 143.101 5.01552 143.101 4.67181C143.101 4.14989 142.927 3.70434 142.585 3.34154C142.237 2.97238 141.818 2.78779 141.328 2.78779C140.838 2.78779 140.413 2.97238 140.071 3.34154C139.723 3.71071 139.555 4.14989 139.555 4.67181C139.555 5.19373 139.729 5.63928 140.071 6.00208C140.419 6.37124 140.838 6.55583 141.328 6.55583Z" fill="#D31975"/>
<path d="M150.455 3.82529C150.365 3.86985 150.275 3.86985 150.178 3.82529C150.088 3.78074 150.043 3.70436 150.043 3.58979C150.043 3.35429 149.92 3.16334 149.669 3.01695C149.418 2.87055 149.128 2.79417 148.799 2.79417C148.47 2.79417 148.18 2.87055 147.929 3.01695C147.677 3.16334 147.555 3.36065 147.555 3.58979C147.555 3.74891 147.664 3.88894 147.89 4.00988C148.109 4.13081 148.38 4.23265 148.696 4.32812C149.012 4.41723 149.321 4.51907 149.643 4.62091C149.959 4.72911 150.23 4.8755 150.449 5.06645C150.668 5.2574 150.778 5.48654 150.778 5.75386C150.778 6.10393 150.591 6.40945 150.217 6.67678C149.843 6.9441 149.373 7.07777 148.812 7.07777C148.251 7.07777 147.78 6.9441 147.407 6.67678C147.033 6.40945 146.846 6.10393 146.846 5.75386C146.846 5.63929 146.891 5.56292 146.981 5.51836C147.071 5.47381 147.162 5.47381 147.258 5.51836C147.349 5.56292 147.394 5.63929 147.394 5.75386C147.394 5.98937 147.535 6.18031 147.819 6.32671C148.103 6.47946 148.431 6.54948 148.805 6.54948C149.179 6.54948 149.508 6.4731 149.792 6.32671C150.075 6.17395 150.217 5.983 150.217 5.75386C150.217 5.59474 150.107 5.45471 149.888 5.33378C149.669 5.21284 149.405 5.11101 149.082 5.01553C148.767 4.92642 148.451 4.83095 148.135 4.72275C147.819 4.61454 147.555 4.46815 147.329 4.2772C147.11 4.08625 146.994 3.85075 146.994 3.58343C146.994 3.23335 147.168 2.92784 147.51 2.66051C147.858 2.39318 148.283 2.25952 148.786 2.25952C149.289 2.25952 149.721 2.39318 150.062 2.66051C150.41 2.92784 150.578 3.23335 150.578 3.58343C150.578 3.69799 150.533 3.77437 150.443 3.81893L150.455 3.82529Z" fill="#D31975"/>
<path d="M155.947 2.27225C156.495 2.27225 156.966 2.46956 157.366 2.87055C157.765 3.27154 157.959 3.74891 157.959 4.31539V6.8168C157.959 6.925 157.913 7.00138 157.823 7.04594C157.733 7.09049 157.643 7.09686 157.553 7.04594C157.462 7.00138 157.417 6.925 157.417 6.82317L157.404 4.30902C157.404 3.8953 157.262 3.53887 156.979 3.23971C156.695 2.94056 156.354 2.78781 155.941 2.78781C155.528 2.78781 155.187 2.94056 154.903 3.23971C154.62 3.53887 154.478 3.8953 154.478 4.30902V6.81044C154.478 6.925 154.433 7.00138 154.342 7.04594C154.252 7.09049 154.162 7.09049 154.065 7.04594C153.975 7.00138 153.93 6.925 153.93 6.81044V0.910153C153.93 0.795585 153.975 0.719206 154.065 0.674651C154.155 0.630097 154.246 0.630097 154.342 0.674651C154.433 0.719206 154.478 0.795585 154.478 0.910153V2.9151C154.871 2.48865 155.361 2.27225 155.935 2.27225H155.947Z" fill="#D31975"/>
<path d="M161.523 1.38753C161.478 1.29842 161.478 1.21567 161.523 1.12657C161.568 1.03746 161.652 0.999268 161.768 0.999268H161.781C161.904 0.999268 161.981 1.04382 162.026 1.12657C162.071 1.21567 162.071 1.29842 162.026 1.38753C161.981 1.47664 161.897 1.51483 161.781 1.51483H161.768C161.646 1.51483 161.568 1.47027 161.523 1.38753ZM161.633 2.29771C161.723 2.25316 161.813 2.25316 161.91 2.29771C162 2.34227 162.045 2.41865 162.045 2.53321V6.81681C162.045 6.93138 162 7.00775 161.91 7.05231C161.82 7.09686 161.729 7.09686 161.633 7.05231C161.543 7.00775 161.497 6.93138 161.497 6.81681V2.53321C161.497 2.41865 161.543 2.34227 161.633 2.29771Z" fill="#D31975"/>
<path d="M167.486 2.27222C168.124 2.27222 168.672 2.50135 169.129 2.96599C169.587 3.43063 169.813 3.99711 169.813 4.67179C169.813 5.34647 169.587 5.91295 169.129 6.37759C168.672 6.84223 168.13 7.07137 167.486 7.07137C166.841 7.07137 166.3 6.84223 165.842 6.37759C165.384 5.91295 165.159 5.34647 165.159 4.67179C165.159 3.99711 165.384 3.43063 165.842 2.96599C166.293 2.50135 166.841 2.27222 167.486 2.27222ZM167.486 6.55581C167.976 6.55581 168.401 6.37123 168.743 6.00206C169.091 5.6329 169.258 5.19372 169.258 4.67179C169.258 4.14987 169.084 3.70432 168.743 3.34152C168.395 2.97236 167.976 2.78778 167.486 2.78778C166.996 2.78778 166.57 2.97236 166.229 3.34152C165.881 3.71069 165.713 4.14987 165.713 4.67179C165.713 5.19372 165.887 5.63926 166.229 6.00206C166.577 6.37123 166.996 6.55581 167.486 6.55581Z" fill="#D31975"/>
<path d="M176.871 7.04593C176.781 7.09048 176.691 7.09685 176.6 7.04593C176.51 7.00137 176.465 6.925 176.465 6.82316L176.452 4.30901C176.452 3.89529 176.31 3.53886 176.027 3.23971C175.743 2.94056 175.401 2.7878 174.989 2.7878C174.576 2.7878 174.235 2.94056 173.951 3.23971C173.667 3.53886 173.526 3.89529 173.526 4.30901V6.81043C173.526 6.925 173.48 7.00137 173.39 7.04593C173.3 7.09048 173.21 7.09048 173.113 7.04593C173.023 7.00137 172.978 6.925 172.978 6.81043V2.5332C172.978 2.41863 173.023 2.34225 173.113 2.2977C173.203 2.25314 173.294 2.25314 173.39 2.2977C173.48 2.34225 173.526 2.41863 173.526 2.5332V2.9151C173.919 2.48865 174.409 2.27224 174.982 2.27224C175.556 2.27224 176.001 2.46955 176.401 2.87054C176.8 3.27153 176.994 3.7489 176.994 4.31538V6.81679C176.994 6.925 176.948 7.00137 176.858 7.04593H176.871Z" fill="#D31975"/>
</g>
<defs>
<clipPath id="clip0_40_104">
<rect width="177" height="9" fill="white"/>
</clipPath>
</defs>
</svg>
