<svg width="78" height="90" viewBox="0 0 78 90" fill="none" xmlns="http://www.w3.org/2000/svg">
<g filter="url(#filter0_d_40_83)">
<path d="M10.3265 49.7922C10.1089 49.2634 9.89134 48.7346 9.67375 48.2058C8.9046 46.9781 8.20549 45.7383 8.41901 44.1914C8.45537 43.8188 8.42169 43.4581 8.35201 43.0815C7.76111 39.5136 7.80317 39.4675 11.5205 39.5434C10.1515 37.9193 7.80907 37.4179 7.60737 34.8655C7.50651 33.5893 7.01359 32.2252 7.60884 31.1289C9.06594 28.3852 8.75446 25.5463 8.56506 22.6754C8.94485 20.9 11.2511 21.5798 11.6963 20.4816C12.0853 19.5097 10.776 18.2362 11.6156 16.8813C12.2909 15.799 12.4662 14.3864 13.1075 13.3322C14.3639 11.2337 15.2528 8.4102 18.7016 8.99314C19.4838 9.1249 20.0785 8.61164 20.5713 7.98824C21.056 7.38288 21.6527 6.91369 22.4666 7.36199C23.2165 7.76024 23.3359 8.4614 23.3271 9.25681C23.2982 10.1945 23.0714 11.0441 22.7404 11.9339C22.251 13.2285 21.9856 14.601 22.1544 16.0154C22.0797 16.7167 21.853 17.372 21.5283 18.0053C21.3419 18.3761 21.0835 18.7148 20.8151 19.0276C17.223 21.9669 16.2688 26.1008 15.7186 30.3927C15.6461 30.9437 15.5555 31.4867 15.367 32.0077C14.8614 33.5327 15.6868 34.4398 16.7985 35.2366C19.1218 36.8961 19.3886 38.3325 17.666 40.4613C17.1312 41.1308 17.5788 41.6755 17.5703 42.2765C17.582 42.541 17.5578 42.7894 17.4815 43.058C16.8216 44.0895 16.4231 45.2444 16.2858 46.5228C17.718 44.8049 18.5399 45.2352 19.8734 48.442C20.0714 50.7119 21.2199 52.7348 21.5679 55.0066C21.8404 56.7695 23.4005 57.3335 25.0088 57.595C26.3232 57.7906 26.8603 58.9583 27.7239 59.7312C28.4496 60.3779 29.3632 61.0866 29.3011 59.0931C29.2483 57.7087 30.6872 57.3331 31.5343 56.5432C34.0881 55.6481 35.7229 53.329 38.1348 52.2196C38.5752 52.005 39.0255 51.8164 39.288 51.3714C39.6988 50.69 39.9396 49.9545 40.2604 49.2331C40.7615 48.2029 41.0727 47.0668 41.9818 46.2828C44.5794 45.58 43.7812 47.6662 44.0542 48.8461C43.9932 49.8559 43.6623 50.7457 42.9893 51.4834C42.1849 51.6442 42.3863 52.4034 42.1617 52.9084C40.1357 56.3497 37.0503 58.7798 34.1668 61.3862C32.8692 62.559 32.1598 61.6819 31.3345 60.5805C32.5673 62.3168 32.6229 64.9554 35.534 64.9536C36.7519 65.56 38.0641 65.9058 39.4064 66.1354C40.6704 66.5894 42.1671 66.5204 43.1363 67.6859C43.7519 68.4348 44.6736 69.1255 43.9402 70.29C43.5877 70.6949 43.1413 70.9717 42.6769 71.2404C42.4527 71.3568 42.2165 71.403 41.9524 71.4152C41.1082 71.2774 40.2678 71.4222 39.4373 71.593C37.4326 71.5441 35.4983 71.0945 33.552 70.5748C32.6239 70.3349 31.8079 70.0369 31.4466 69.0554C31.5522 67.4605 30.0543 66.7081 29.2024 66.1997C27.4528 65.1409 25.4694 63.5893 23.8351 63.3379C20.4143 62.789 18.7316 60.6582 16.9811 58.3893C15.4923 56.4528 13.373 54.8192 13.732 51.7816C13.8792 50.5293 12.1983 50.8188 11.2942 50.5249C10.9082 50.3748 10.6143 50.1146 10.4126 49.744L10.3265 49.7922Z" fill="#84BC27"/>
<path d="M17.232 42.407C16.6608 41.2673 14.7975 39.8339 18.0169 39.6236C18.7912 39.579 17.8337 36.4962 16.6859 35.8778C15.15 35.0653 14.0186 34.0221 14.5486 32.0543C15.0909 31.9498 15.4867 32.3202 15.9187 32.5123C20.1111 33.7499 24.39 34.5508 28.7919 34.3478C29.6322 34.3973 30.4441 34.8016 31.3227 34.5225C31.5668 34.4583 31.8129 34.4381 32.0591 34.4179C33.3235 34.4833 34.5341 34.3303 35.4973 33.376C36.136 32.8607 36.9747 32.4775 36.7596 31.4098C36.7138 31.1734 36.712 30.9349 36.7363 30.6865C36.8213 29.6226 37.0664 28.5866 37.6794 27.6926C37.8077 27.4041 37.9441 27.0974 38.0104 26.8029C38.087 26.1457 37.549 25.9496 37.1311 25.6774C36.7152 25.4493 36.3233 25.167 36.0335 24.8005C35.5322 23.8432 34.7026 23.0422 34.5376 21.9103C34.5143 21.1871 34.1206 20.6664 33.5808 20.232C33.4149 20.0718 33.265 19.8755 33.1412 19.6692C32.7997 18.9341 32.1318 18.594 31.4719 18.2357C31.1459 18.0476 30.87 17.7953 30.6443 17.4789C30.221 16.4914 29.235 16.1394 28.4772 15.5648C28.2933 15.3966 28.1354 15.2184 28.0035 15.0302C27.6421 14.243 26.9802 13.8407 26.2082 13.5406C25.6863 13.3085 25.1643 13.0764 24.5861 12.9706C23.2756 13.0575 23.3704 14.3958 22.7475 15.0694C22.5151 15.3981 22.2348 15.6407 21.8245 15.7392C20.5594 14.2693 21.7912 12.808 22.1865 11.5796C22.4735 10.6919 22.2322 9.82848 22.603 9.04287C22.9078 8.35748 22.6581 7.90082 22.1021 7.6968C21.4481 7.4708 21.0875 7.89376 21.0109 8.55097C20.8334 10.1138 19.2649 9.9565 18.6649 9.75451C15.2427 8.5785 15.1134 12.0207 13.7636 13.4079C13.283 13.9071 12.7113 15.5323 12.4381 16.7286C12.2331 17.6744 10.8997 18.6369 12.6214 19.6616C12.9933 19.8918 13.6074 22.1955 11.2171 21.6079C10.2449 21.3701 9.42209 21.9115 8.95106 22.8254C7.23578 21.3499 8.56973 19.8043 8.87324 18.2975C10.5772 14.7562 12.3091 11.249 15.3307 8.57444C15.4968 8.54028 15.5549 8.4581 15.513 8.30987C16.5987 6.93479 17.8883 5.77997 19.4197 4.9055C19.9201 4.65275 20.4125 4.41804 20.9129 4.16529C22.092 3.50141 23.281 2.86357 24.7075 3.00094C25.5436 3.15671 26.2916 3.51089 26.9754 4.00935C28.2348 5.15261 29.1839 6.46034 29.4284 8.18924C29.6073 9.43533 30.4328 10.3424 31.1202 11.3177L31.1562 11.3337C31.6293 12.4514 33.268 12.4023 33.5388 13.7325C33.0473 15.1774 34.4939 15.1725 35.1035 15.7892C38.3156 19.1833 41.834 22.3247 43.6726 26.7714C44.781 28.8845 46.2518 30.813 46.9459 33.1306C47.1515 33.5893 47.3492 34.066 47.5548 34.5247C50.7033 37.48 51.0372 42.0138 53.5571 45.3161C53.9128 45.7767 53.7722 46.3839 53.2976 46.8209C51.5269 46.8761 49.9976 45.4185 48.1524 45.9806C47.9024 45.9126 47.6844 45.7725 47.5426 45.5582C48.2804 43.8988 47.6131 42.846 45.5407 42.3998C44.9872 41.6568 45.4942 40.759 45.1508 39.9798C45.061 39.7454 44.9892 39.5191 44.9174 39.2927C44.2315 36.7627 42.49 37.6733 40.911 38.073C39.8145 38.2119 38.7479 38.4289 37.6652 38.682C37.4211 38.7463 37.1749 38.7665 36.9369 38.7686C35.6466 38.519 34.5438 38.9143 33.4907 39.6342C32.7961 40.0814 32.0556 40.2923 31.2255 40.0744C29.4699 38.8833 27.7359 40.359 25.9874 40.1216C23.6757 38.9209 21.7458 40.1583 19.7682 41.1151C19.59 41.2735 19.3937 41.4239 19.1956 41.5302C18.5631 41.7891 18.0384 42.2903 17.3461 42.3929L17.232 42.407Z" fill="#95C121"/>
<path d="M48.0706 45.7282C50.1268 44.1582 51.554 45.7 53.0736 46.7429C54.6684 46.5015 54.2809 47.9062 54.6764 48.6653C55.2515 49.8932 56.5733 50.6537 56.77 52.1021C56.8035 52.6571 56.907 53.2 57.4329 53.5202C59.4442 55.1058 60.2223 57.5256 61.4628 59.6326C61.7322 60.3357 62.1218 60.9625 62.4172 61.6556C62.473 61.918 62.4928 62.1644 62.4605 62.4309C62.3397 63.2845 61.809 63.8478 61.1703 64.3631C61.0341 64.4754 60.9339 64.6037 60.8618 64.766C56.5374 69.8856 50.7977 71.546 44.3672 71.56C43.8092 71.3119 43.3273 70.9896 43.1759 70.3606C44.07 68.4466 42.4258 67.9748 41.338 67.3183C40.7581 66.9741 39.9558 66.9846 39.2517 66.8227C39.1998 66.6484 39.21 66.4801 39.2741 66.3358C39.3383 66.1915 39.4064 66.1354 39.4504 66.1334C39.9909 65.7904 40.5713 65.5517 41.2117 65.4691C42.7742 65.4942 44.3548 65.5273 45.8958 65.0676C48.0976 63.9944 47.1854 61.7309 47.8172 60.0676C48.246 59.3942 48.7984 59.1213 49.5865 59.3853C51.6619 60.8266 50.509 63.468 51.7859 65.2023C52.2234 65.9153 52.5848 66.7024 53.6876 66.3071C54.5382 65.994 54.7148 65.4028 54.6516 64.5754C54.5727 63.3954 55.298 62.2489 54.917 61.021C55.5671 58.977 53.6776 57.748 53.301 56.0252C53.3898 55.2437 53.0041 54.705 52.4283 54.2546C52.2444 54.0864 52.0865 53.9082 51.9367 53.7119C51.7128 53.4396 51.5172 53.0069 51.181 52.9871C49.1124 52.8882 48.7894 51.578 48.9531 49.901C48.9274 49.5223 48.9557 49.1677 48.9921 48.795C49.1693 47.6208 48.1016 46.8221 48.0526 45.7202L48.0706 45.7282Z" fill="#8DBE24"/>
<path d="M9.48718 18.6137C9.00973 19.9784 8.48826 21.3451 8.92505 22.8355C9.13959 24.4862 9.21406 26.1612 9.62073 27.7677C9.99157 29.164 8.4928 29.3833 8.23758 30.5876C7.79149 32.6575 7.89376 34.5608 8.61443 36.2854C9.29518 37.9058 11.3156 38.3073 12.8512 39.3142C11.6768 39.2888 11.5338 42.4224 9.57726 40.0835C8.99969 39.3946 8.51458 40.3887 8.58781 41.2421C8.65285 42.308 9.63033 43.2611 8.94901 44.4055C7.43438 44.4665 7.5955 43.3284 7.52636 42.3688L7.5424 42.3327C7.37881 41.8279 7.12914 41.3712 7.03559 40.8544C5.92035 39.5808 6.52611 37.9275 6.07525 36.5173C6.15795 35.798 6.56072 35.1346 6.33333 34.3854C6.39767 34.0468 6.46201 33.7081 6.53437 33.3515C5.62514 32.1479 6.13663 30.7551 5.99978 29.4629C5.4083 28.6599 6.03134 27.792 5.89003 26.9946C5.89949 25.4219 5.56287 23.8032 6.72056 22.4601C7.25128 21.8968 7.54801 21.2295 7.67277 20.464C7.77187 19.32 8.12083 18.4382 9.5312 18.6116L9.48718 18.6137Z" fill="#96C225"/>
<path d="M31.6548 68.9751C30.9446 68.8753 30.2385 68.6694 29.5799 69.1326L29.3658 69.0807C28.0104 67.9595 26.0899 67.6241 25.015 66.066C24.707 65.8858 24.3991 65.7057 24.1011 65.5516C22.8 64.0658 20.4471 64.1213 19.3703 62.3248C19.0444 62.1366 18.7284 61.9746 18.4024 61.7864C17.9407 61.3219 17.7613 60.6588 17.2735 60.2043L17.1056 60.0001L16.8536 59.888C16.3561 59.2131 15.3559 58.9412 15.2929 57.9195L15.3128 57.9716C13.8194 56.7243 12.7124 55.2383 12.4381 53.237C12.2229 52.3635 11.9475 51.5282 11.0456 51.084C10.8259 50.7055 10.9002 50.3929 11.2785 50.1722C14.156 49.8099 14.0398 49.9742 14.1568 53.2018C14.2156 54.5241 15.4126 56.0501 16.5142 57.0151C18.0375 58.3406 18.321 61.1453 21.1722 60.9873C21.7005 60.963 21.3576 61.7826 21.4812 62.1833C21.6448 62.688 22.0627 62.9603 22.5049 62.9841C23.5312 63.0515 26.4573 64.1798 27.6873 64.6619C28.9613 65.142 29.6704 66.4078 31.1628 66.6393C32.345 66.8409 31.7576 68.1135 31.6288 68.9851L31.6548 68.9751Z" fill="#96C227"/>
<path d="M62.239 61.814C63.5788 62.5825 62.6117 63.4486 62.3488 64.2822C61.9626 64.3266 61.5664 64.3448 61.1802 64.3891C61.5392 63.5334 61.8801 62.6697 62.239 61.814Z" fill="#F4F6E2"/>
<path d="M6.55554 36.4068C6.29375 36.0744 6.04193 35.768 5.78014 35.4356C5.95854 35.0829 6.13693 34.7301 6.32531 34.4034C7.28516 34.9598 6.91233 35.7014 6.57354 36.4148L6.55554 36.4068Z" fill="#E2EED6"/>
<path d="M29.1515 34.8965C24.359 35.6387 19.8424 34.4513 15.342 33.0336C15.799 27.8361 17.064 22.9548 20.4612 18.8054L20.9302 17.8474C22.3992 17.3557 23.5311 18.0101 24.1922 19.1898C25.5425 21.5832 27.7359 23.0986 29.685 24.8725C30.2505 25.6856 30.874 26.4165 31.8501 26.7425C32.798 27.2288 33.5577 27.8474 33.6887 29.0074C33.7145 29.1917 33.7063 29.4041 33.8003 29.5322C36.416 33.0068 36.0831 33.8525 31.6426 34.7728C30.8158 35.2261 29.9503 34.4092 29.1515 34.8965Z" fill="#F9E000"/>
<path d="M40.9793 65.7978C40.6446 66.4051 40.1283 66.4996 39.5103 66.2896C38.0596 66.4007 36.8157 65.8044 35.6359 65.0638C35.3961 64.8275 35.2603 64.5511 35.2186 64.2085C35.1633 63.3631 35.4921 62.6236 35.785 61.8681C37.6106 58.6833 40.2181 56.0191 41.8537 52.7283C42.1221 52.4156 41.5905 51.7687 42.3269 51.6641C44.1306 50.5651 43.9687 48.3112 45.1825 46.8419C45.7472 46.2505 46.4138 45.9636 47.2419 46.1374C48.058 46.4354 48.3675 47.0483 48.2987 47.8818C48.041 49.6251 47.9333 51.3702 48.1698 53.1171C47.8983 54.5518 48.081 56.0804 47.4275 57.4532C46.3819 58.7381 44.0346 59.1202 44.5466 61.5081C44.4999 62.2434 44.2472 62.9088 43.9685 63.5841C43.411 64.9349 42.7117 66.0713 40.9793 65.7978Z" fill="#FCDF00"/>
<path d="M29.6645 25.4035C27.1628 24.0967 24.9535 22.423 23.7775 19.7831C23.1985 18.4671 21.9261 18.4198 20.9222 17.8654C21.235 17.162 21.5217 16.4686 21.8165 15.7572C21.9689 15.4145 22.1213 15.0718 22.2736 14.7291C22.6739 14.6046 23.0881 14.5944 23.5001 14.7344C25.0678 15.6691 25.1519 17.7587 26.6355 18.7856C27.6387 20.1174 28.5237 21.5694 30.0434 22.418C31.1268 23.5693 32.2782 24.6646 33.8122 25.2387C34.9793 26.6865 36.8778 26.9258 38.3155 27.9106C37.2644 28.6746 37.9592 30.2149 36.9801 31.0109C35.2612 31.2404 33.9433 30.568 32.9723 29.1641C33.3077 27.7794 32.0632 27.7662 31.3614 27.2597C31.0922 26.3623 29.9758 26.2548 29.6725 25.3854L29.6645 25.4035Z" fill="#A8C816"/>
<path d="M41.8637 52.7543C40.7379 56.4014 38.5343 59.4181 36.2946 62.4187C35.4699 62.9161 35.0751 63.5615 35.4624 64.533C35.616 65.0117 35.4636 65.3544 35.0052 65.561C31.7176 66.0218 32.1487 62.8219 31.0557 61.2558C30.5462 60.5108 31.8296 59.6125 32.93 59.5617C33.6015 60.3788 31.1005 60.4764 32.5242 61.3471C33.548 61.9536 33.7769 61.148 33.8097 60.2985C33.8198 60.1302 33.9041 59.8436 34.0262 59.8115C37.6867 58.6092 39.1866 55.042 41.8637 52.7543Z" fill="#8DBE24"/>
<path d="M47.1095 46.5322C46.6151 46.7228 46.1288 46.8954 45.6164 47.078C44.6899 47.2709 44.6587 48.5532 43.6582 48.67C42.3981 48.3041 44.1886 46.3135 42.36 46.2565C42.2062 45.9721 42.1564 45.6476 42.1688 45.329C42.5022 43.9003 42.9356 42.5376 44.183 41.6233C44.7053 41.4667 45.1173 41.6067 45.387 42.1154C45.645 42.1653 45.951 42.3014 46.1772 42.2291C47.4059 41.8898 48.8124 41.9751 49.3696 43.0006C50.2165 44.5869 47.9457 44.5061 47.5506 45.5401C47.6862 46.0109 47.5419 46.3356 47.1015 46.5502L47.1095 46.5322Z" fill="#8DBE24"/>
<path d="M20.4432 18.7974C17.9241 23.2508 16.9551 28.2421 15.324 33.0256C15.0542 32.7112 14.8104 32.3868 14.5406 32.0724C13.6195 28.6168 16.735 26.0704 16.6802 22.6545C16.6616 21.0476 18.8476 19.8161 20.4351 18.8154L20.4432 18.7974Z" fill="#CDD500"/>
<path d="M24.9404 58.0399C21.7814 57.8234 20.8339 56.9484 20.6327 53.813C20.5124 51.9017 18.6451 50.3802 19.4794 48.31C19.6114 48.3039 19.7435 48.2978 19.8836 48.2737C22.3996 49.306 21.3844 52.2678 22.9275 53.8397C22.924 55.5447 24.3097 56.3553 25.2751 57.4326C25.3229 57.7131 25.2266 57.9295 24.9764 58.0559L24.9404 58.0399Z" fill="#A4C618"/>
<path d="M24.9404 58.0399C25.0126 57.8775 25.0848 57.7152 25.1489 57.5709C25.7135 57.1739 26.4117 57.2035 27.0542 56.9707C27.2903 56.9245 27.5104 56.9143 27.7485 56.9122C28.3407 56.9379 28.929 56.8754 29.4734 56.6206C30.1239 56.3698 30.7626 55.8545 31.4783 56.4752C31.5102 56.5973 31.5421 56.7195 31.5641 56.8157C31.3329 57.9659 29.0537 58.2918 30.3245 60.0882C30.5603 60.4307 29.9155 61.0081 29.2971 61.1868C28.4786 61.4277 27.8946 61.1896 27.347 60.5789C26.5675 59.7138 26.2866 58.3576 24.9404 58.0399Z" fill="#8DBE24"/>
<path d="M19.4694 48.284C18.8319 47.4389 18.1865 46.6118 17.475 45.6906C17.0183 46.33 16.6936 46.9633 16.201 47.3924C15.6403 47.8776 14.8466 47.287 15.139 46.9202C16.1085 45.7095 14.9081 43.5123 17.0174 42.938C17.4437 42.8035 17.8759 42.8013 18.2979 42.9673C19.8391 44.4951 20.916 46.0972 19.5594 48.324L19.4354 48.312L19.4694 48.284Z" fill="#95C121"/>
<path d="M38.4267 52.4358C36.2105 53.9779 34.5935 56.4993 31.5901 56.8057L31.6282 56.6714C31.6079 54.8262 33.3072 54.156 34.1787 52.9233C35.4557 52.2814 36.4539 50.3273 38.259 52.0372C38.3089 52.1674 38.3768 52.3056 38.4267 52.4358Z" fill="#B3CB0B"/>
<path d="M17.3109 47.9507C18.3785 48.7494 18.1675 49.7574 18.0467 50.6109C17.8836 51.705 17.0136 51.3829 16.3055 51.1329C15.3555 50.7969 14.4039 50.0281 14.8508 49.1683C15.2096 48.5069 16.4982 48.3238 17.3209 47.9767L17.3109 47.9507Z" fill="#95C121"/>
<path d="M43.6762 48.678C44.1551 47.9404 44.2323 46.7002 45.6344 47.086C44.6746 48.7115 44.6724 51.0436 42.3369 51.6901C42.786 50.6801 43.2351 49.67 43.6762 48.678Z" fill="#CAD400"/>
<path d="M42.5806 45.6634C42.4924 45.8618 42.4482 46.0581 42.378 46.2646C41.8486 47.455 41.3193 48.6454 40.7981 49.8178C40.3557 49.9883 39.9957 49.8283 39.7079 49.5059C39.5901 49.2375 39.5424 48.957 39.5827 48.6725C39.7115 47.8009 40.0644 47.0073 40.4893 46.2457C41.0761 45.5561 41.5831 44.6582 42.6246 45.6613L42.5806 45.6634Z" fill="#A6C717"/>
<path d="M34.9872 65.553C35.1396 65.2103 35.292 64.8676 35.4444 64.5249C36.7943 65.1252 38.1523 65.7074 39.5103 66.2896C39.4301 66.47 39.3499 66.6503 39.2697 66.8307C37.7713 66.6613 36.317 66.2955 34.9872 65.553Z" fill="#B8CE03"/>
<path d="M39.6412 52.371C39.2488 52.6717 38.8307 52.5939 38.4187 52.4539L38.3528 52.3597C37.7975 51.3783 37.2062 50.3809 38.1295 49.3225C38.6162 48.7612 39.2006 48.6106 39.7361 49.3456L39.7741 49.4057C40.3573 50.4211 39.5181 51.3873 39.6332 52.389L39.6412 52.371Z" fill="#A6C717"/>
<path d="M44.7557 71.171C43.9202 72.4197 43.0588 71.4966 42.2148 71.1646C42.5471 70.9019 42.8715 70.6573 43.1858 70.3866C43.6998 70.6367 44.2238 70.9129 44.7377 71.163L44.7557 71.171Z" fill="#CCDB75"/>
<path d="M18.0254 43.3862C17.7014 43.2421 17.3594 43.0901 17.0435 42.928C17.1156 42.7657 17.1878 42.6033 17.232 42.407C17.6068 41.7095 17.9137 40.8738 18.9776 41.3901C19.2488 42.3316 18.8441 42.9509 18.0254 43.3862Z" fill="#BED000"/>
<path d="M39.6412 52.371C39.27 51.3634 39.5791 50.3775 39.7821 49.3876C40.1061 49.5317 40.448 49.6838 40.7801 49.8098C40.4031 50.6575 40.0262 51.5052 39.6412 52.371Z" fill="#8DBE24"/>
<path d="M42.2187 71.2527C41.388 71.6179 40.5437 71.6745 39.7057 71.2803C40.5451 70.1197 41.3887 70.8405 42.2187 71.2527Z" fill="#E8EFCB"/>
<path d="M18.0254 43.3862C18.3401 42.7269 18.6549 42.0675 18.9776 41.3901L18.9676 41.3641C19.3399 41.2056 19.7341 41.1432 20.1262 41.2311C21.3484 41.5369 22.1179 42.3759 22.8749 43.7279C22.8184 42.061 24.0034 41.5293 24.7685 40.6814C24.9727 40.5129 25.1789 40.3886 25.4211 40.2803C27.4 40.1448 29.3193 39.4645 31.324 39.5133C32.0759 39.9557 32.6248 39.206 33.3111 39.1655C34.6338 38.9543 35.9804 38.8834 37.2773 38.4879C38.2098 38.2329 39.2319 38.6009 40.1447 38.0995C41.9632 38.3248 44.1149 37.3157 45.3193 39.601C45.5365 40.5185 45.2317 41.2039 44.405 41.6572C43.8115 42.9919 43.1821 44.3106 42.5706 45.6373C41.5325 45.3054 41.2317 46.0789 40.8649 46.7583C40.4625 47.0331 40.0501 47.2818 39.5442 47.0136C38.0884 46.2151 37.6125 48.0125 36.498 48.1434C36.1079 48.0996 35.7739 47.9295 35.5561 47.595C34.887 46.4334 37.1453 44.8452 34.9953 43.9109C34.3215 43.4384 33.4756 43.0623 32.8308 43.6397C32.2361 44.153 33.228 44.6372 33.2535 45.2102C32.5836 47.0078 31.1138 48.2769 29.4151 48.3641C27.0121 48.4838 26.0126 49.6164 25.5405 51.6963C24.2977 52.1158 24.3436 54.3397 22.4793 53.878C20.4878 52.5389 21.5309 49.6111 19.5835 48.2699C19.6352 46.4566 19.3467 44.7298 18.0154 43.3602L18.0254 43.3862Z" fill="#F8E000"/>
<path d="M33.7276 25.9139C32.1016 25.2557 30.4496 24.6076 29.6649 22.8329C28.9081 21.2867 27.6326 20.1795 26.3832 19.0623C24.3589 18.5726 24.6251 16.2283 23.2816 15.1773C23.0647 13.8711 23.5039 12.835 24.637 12.1291C25.3029 12.4252 25.9689 12.7213 26.6529 13.0254C26.8781 13.9249 28.0385 14.0304 28.2897 14.9198L28.3077 14.9278C28.6586 16.272 30.4395 16.0485 30.9265 17.2804C31.2165 17.4525 31.5325 17.6146 31.8224 17.7867C32.0737 18.6761 33.234 18.7816 33.4513 19.6991C33.6425 20.6266 34.8548 20.712 35.0281 21.6316C34.7828 22.8619 36.7032 23.1973 36.2418 24.5259C36.24 26.4694 34.6662 25.5968 33.7456 25.9219L33.7276 25.9139Z" fill="#FADF00"/>
<path d="M32.9463 29.1741C34.2962 29.7744 35.6121 30.4027 36.9541 31.021C37.2431 32.1648 36.6862 32.9325 35.8513 33.5982C34.8212 35.43 33.2926 35.3768 31.6066 34.7568C31.8832 34.2317 32.3875 34.0671 32.8899 33.8584C35.66 32.6706 35.6702 32.5023 33.2831 30.5984C32.7613 30.172 32.6896 29.7513 32.9202 29.1842L32.9463 29.1741Z" fill="#E0DB00"/>
<path d="M19.9457 41.7341C19.6217 41.5901 19.2996 41.4901 18.9676 41.3641C20.2763 39.0512 23.04 38.3142 25.864 39.5267C25.9996 39.9974 25.8472 40.3401 25.4149 40.5367L25.3988 40.5728C23.7671 41.7699 21.9142 41.9613 19.9537 41.7161L19.9457 41.7341Z" fill="#ADC911"/>
<path d="M33.7276 25.9139C34.3806 25.1241 35.7626 25.6522 36.2238 24.5179C36.7018 24.752 37.1978 24.9942 37.6757 25.2283C37.9592 25.8512 38.6291 26.2355 38.6965 26.9567C38.5602 27.2634 38.4238 27.57 38.2875 27.8766C36.4307 27.9799 34.8065 27.5601 33.7176 25.8879L33.7276 25.9139Z" fill="#E2DD00"/>
<path d="M45.3373 39.609C43.72 38.1554 41.5301 39.2988 39.7703 38.4083C39.6929 37.661 40.3231 37.7468 40.7394 37.5862C44.3461 36.1656 44.6881 36.3176 45.3292 39.6271L45.3373 39.609Z" fill="#D1D700"/>
<path d="M25.4068 40.5547C25.5592 40.212 25.7116 39.8694 25.8559 39.5447C27.6865 39.6458 29.4988 37.9457 31.334 39.5394C29.4824 40.5523 27.4614 40.7338 25.4068 40.5547Z" fill="#CBD400"/>
<path d="M37.2953 38.4959C36.1616 39.7849 34.8489 40.0221 33.3291 39.1735C34.4528 37.8585 35.7835 37.6293 37.2953 38.4959Z" fill="#C4D200"/>
<path d="M47.1095 46.5322C47.2619 46.1895 47.4062 45.8648 47.5586 45.5221C47.7206 45.5941 47.9006 45.6742 48.0626 45.7462C49.0602 46.557 49.9377 47.4441 49.6683 48.9228C48.7697 49.1498 48.1037 48.8537 47.6864 47.9984C47.9131 47.3431 47.6974 46.8584 47.1095 46.5322Z" fill="#B5CC08"/>
<path d="M30.9185 17.2984C30.0289 16.5356 27.9536 17.0818 28.2997 14.9458C29.1974 15.6906 31.0544 15.393 30.9185 17.2984Z" fill="#CCD500"/>
<path d="M24.6549 12.1371C24.2058 13.1471 23.7487 14.1752 23.2996 15.1853C22.9576 15.0332 22.6336 14.8892 22.2916 14.7371C23.1007 13.8871 22.5305 11.7757 24.6649 12.1631L24.6549 12.1371Z" fill="#C2D100"/>
<path d="M40.7394 37.5862C40.425 37.8569 40.1026 38.1456 39.7703 38.4083C38.9768 39.6109 38.1293 38.802 37.2773 38.4879C38.2266 37.4195 39.5169 37.6691 40.7214 37.5782L40.7394 37.5862Z" fill="#C4D200"/>
<path d="M27.1238 3.5785C27.0235 3.90113 26.9312 4.20573 26.8488 4.53636C25.9849 4.1522 25.1029 3.76004 24.247 3.35785C25.2681 2.51575 26.192 3.05614 27.1238 3.5785Z" fill="#D5E089"/>
<path d="M35.8693 33.6062C36.2462 32.7584 36.6051 31.9027 36.9721 31.029C38.3851 32.651 37.2702 33.1706 35.8693 33.6062Z" fill="#A8C816"/>
<path d="M29.1515 34.8965C29.923 33.5977 30.8005 34.4848 31.6345 34.7908C30.8611 36.0455 29.9756 35.1765 29.1515 34.8965Z" fill="#D3D800"/>
<path d="M44.415 41.6832C44.7197 40.9978 45.0245 40.3125 45.3373 39.609C46.643 40.4056 45.6659 41.2457 45.395 42.0974C45.071 41.9533 44.729 41.8013 44.397 41.6752L44.415 41.6832Z" fill="#CAD400"/>
<path d="M35.02 21.6496C34.2762 21.1892 33.0298 21.1319 33.4432 19.7171C34.2211 20.1494 35.5016 20.1787 35.02 21.6496Z" fill="#CFD600"/>
<path d="M33.4432 19.7171C32.6393 19.2949 31.471 19.2074 31.8144 17.8048C32.6183 18.227 33.8547 18.2583 33.4432 19.7171Z" fill="#C7D300"/>
<path d="M28.2997 14.9458C27.5218 14.5135 26.2854 14.4822 26.6629 13.0515C27.4748 13.4557 28.6692 13.5331 28.2997 14.9458Z" fill="#DADA00"/>
<path d="M38.6985 27.0008C38.0205 26.6346 37.659 26.0417 37.6777 25.2724C38.4597 25.5985 39.2237 25.9166 38.6985 27.0008Z" fill="#A8C816"/>
<path d="M53.9576 55.7122C54.1199 57.5774 56.8738 58.8019 55.3171 61.0909C55.5979 62.4471 54.8206 63.6136 54.4673 64.7959C54.0157 66.3449 52.8466 67.0348 51.3874 65.5651C49.4941 64.0536 50.919 61.5764 49.7401 59.8641C49.3495 58.2214 49.5851 56.5764 50.0187 55.0194C50.2998 53.9994 50.7633 52.5205 52.4148 53.7517C52.606 54.6792 53.8184 54.7646 53.9576 55.7122Z" fill="#FBDF00"/>
<path d="M52.4248 53.7777C50.5564 53.4222 50.3308 55.0933 50.512 55.9948C50.8087 57.5093 50.2414 58.6396 49.7501 59.8901C49.0681 59.6301 48.5457 59.7867 48.223 60.4641C47.3907 60.3964 47.5094 59.6931 47.3278 59.1803C47.2683 58.6354 47.0767 58.0966 47.1313 57.5376C47.3288 56.0268 46.8161 54.4162 47.8397 53.0352C47.7469 51.741 47.9961 50.5988 49.2731 49.9569C49.588 51.285 49.933 52.497 51.7558 52.4217C52.214 52.4094 52.4093 53.2308 52.4087 53.8138L52.4248 53.7777Z" fill="#B4CC08"/>
<path d="M47.1393 57.5195C47.7973 57.8337 47.8908 58.3505 47.6721 58.9878C47.2959 61.24 48.5159 63.8779 45.9894 65.5844C44.3539 66.499 42.6914 66.4079 40.9973 65.8059C42.4661 65.5084 42.9154 64.304 43.4107 63.1417C44.0394 62.6004 45.5122 62.3911 44.1588 61.1197C43.6223 59.3689 44.5096 58.2945 47.1393 57.5195Z" fill="#EADF00"/>
<path d="M51.3974 65.5912C52.8595 66.1332 53.7981 65.8161 54.1738 64.147C54.4189 63.111 54.922 62.1249 55.319 61.135C56.4979 62.8473 55.3858 64.6211 55.1663 66.23C54.9486 67.8831 52.462 67.5119 51.3894 65.6092L51.3974 65.5912Z" fill="#CCD400"/>
<path d="M45.9714 65.5764C47.5618 63.6481 46.6438 61.0581 47.6541 58.9798C47.8438 59.4745 48.0154 59.9613 48.213 60.438C48.2151 62.4696 48.9192 64.8133 45.9714 65.5764Z" fill="#BFD000"/>
<path d="M49.2712 49.9128C48.8141 50.9409 48.3129 51.971 47.8378 52.9911C46.927 51.3548 47.3107 49.6676 47.6764 47.9724C48.3424 48.2685 49.0083 48.5646 49.6663 48.8788C49.5219 49.2034 49.3956 49.5361 49.2612 49.8868L49.2712 49.9128Z" fill="#D3D700"/>
<path d="M53.9576 55.7122C53.2217 55.2338 52.0093 55.1484 52.4068 53.7697C53.1847 54.202 54.4651 54.2313 53.9576 55.7122Z" fill="#C4D200"/>
<path d="M61.1222 60.1076C61.9382 60.4057 62.6762 60.7338 62.169 61.826C61.3449 61.546 61.2156 60.8188 61.1222 60.1076Z" fill="#E7ECAF"/>
<path d="M29.6645 25.4035C30.4765 25.8077 31.6869 25.849 31.3534 27.2777C30.5335 26.8916 29.3651 26.8041 29.6645 25.4035Z" fill="#D0D600"/>
<path d="M44.1588 61.1197C44.6696 60.5043 45.2784 59.9109 45.4532 61.2631C45.6219 62.6775 44.941 63.4333 43.4107 63.1417C43.6634 62.4764 43.9061 61.785 44.1588 61.1197Z" fill="#A7C716"/>
<path d="M35.4624 64.533C34.2851 63.2534 34.6079 62.576 36.2946 62.4187C36.0259 63.1201 35.7311 63.8316 35.4624 64.533Z" fill="#BBCF00"/>
<path d="M41.7458 61.2133C41.5655 61.522 41.425 61.9348 40.957 61.7267C40.5071 61.5266 40.6655 61.1218 40.8099 60.7971C40.9542 60.4725 41.1306 60.0757 41.5986 60.2837C42.0486 60.4838 41.8722 60.8806 41.7458 61.2133Z" fill="#EADF00"/>
<path d="M26.3832 19.0623C28.2193 19.6842 29.9193 20.4185 29.6649 22.8329C27.991 22.0886 26.8176 20.8972 26.3832 19.0623Z" fill="#D9D900"/>
<path d="M22.4893 53.9041C24.01 53.7809 23.3303 50.9944 25.3746 51.5361C25.5011 53.191 24.803 55.1488 27.1251 55.9869C27.4572 56.1129 27.3465 56.7982 27.172 57.2391C26.6329 58.2091 25.873 57.7849 25.1569 57.5529C23.5129 56.8867 21.8689 56.2205 22.4893 53.9041Z" fill="#E5DD00"/>
<path d="M27.172 57.2391C27.0423 56.9006 26.9368 56.3136 26.7407 56.2697C23.1981 55.5585 24.5345 53.4741 25.3646 51.5101C24.9869 48.9658 25.6484 47.575 28.6352 47.8877C30.6118 48.0969 31.636 46.1328 33.0835 45.1562C33.0028 43.7378 34.0152 43.6911 35.0157 43.5743C37.1868 43.2003 37.5823 43.9594 36.4902 45.7853C36.1615 46.3304 35.9689 46.9577 35.7042 47.5529C35.8184 49.5263 35.4246 51.3818 34.4786 53.1214C34.0469 54.7225 32.4797 55.3866 31.6362 56.6534C30.8803 56.3172 30.3274 56.9787 29.6431 57.0633C28.9867 57.1819 28.3006 57.028 27.6721 57.375C27.5101 57.303 27.3581 57.257 27.188 57.203L27.172 57.2391Z" fill="#FDE000"/>
<path d="M27.656 57.4111C28.1851 56.415 28.9051 56.7352 29.6271 57.0994C29.0324 57.6126 28.3879 57.8014 27.656 57.4111Z" fill="#B8CE03"/>
<path d="M34.4706 53.1395C33.8223 51.0582 34.9103 49.3385 35.6962 47.5709C36.0202 47.715 36.3602 47.8229 36.6922 47.949C37.9324 48.2628 38.3603 46.3792 39.6524 46.8673C40.0566 46.831 40.4527 46.8127 40.8749 46.7844C40.498 47.6321 40.121 48.4798 39.7441 49.3275C36.9271 49.2631 39.0179 51.4457 38.3528 52.3597C36.7056 50.828 35.8888 53.4892 34.4625 53.1575L34.4706 53.1395Z" fill="#DCDA00"/>
<path d="M19.9457 41.7341C21.7169 41.0959 23.5459 40.7642 25.4088 40.5988C25.2655 41.9393 22.2417 42.5822 24.7349 44.4901C22.0254 45.0567 21.8041 42.0636 19.9457 41.7341Z" fill="#E6DE00"/>
<path d="M39.6524 46.8673C38.5831 47.8176 37.1739 48.4656 37.0021 50.355C35.6245 49.332 36.6696 48.6302 36.6842 47.967C37.0294 46.8027 37.8464 46.1291 39.009 45.8899C39.9796 45.695 39.7529 46.3503 39.6623 46.8933L39.6524 46.8673Z" fill="#BDCF00"/>
<path d="M35.0256 43.6003C34.3789 44.1336 33.7402 44.6489 33.0934 45.1823C32.4036 44.7459 31.1771 44.7406 31.5405 43.39C31.6991 42.7909 32.3478 42.3016 32.7356 42.6901C33.4192 43.3829 35.1018 41.3443 35.0256 43.6003Z" fill="#D5D800"/>
</g>
<defs>
<filter id="filter0_d_40_83" x="0.739845" y="0.919861" width="77.1927" height="88.8855" filterUnits="userSpaceOnUse" color-interpolation-filters="sRGB">
<feFlood flood-opacity="0" result="BackgroundImageFix"/>
<feColorMatrix in="SourceAlpha" type="matrix" values="0 0 0 0 0 0 0 0 0 0 0 0 0 0 0 0 0 0 127 0" result="hardAlpha"/>
<feOffset dx="5" dy="8"/>
<feGaussianBlur stdDeviation="5"/>
<feComposite in2="hardAlpha" operator="out"/>
<feColorMatrix type="matrix" values="0 0 0 0 0 0 0 0 0 0 0 0 0 0 0 0 0 0 0.29 0"/>
<feBlend mode="normal" in2="BackgroundImageFix" result="effect1_dropShadow_40_83"/>
<feBlend mode="normal" in="SourceGraphic" in2="effect1_dropShadow_40_83" result="shape"/>
</filter>
</defs>
</svg>
