<svg width="228" height="246" viewBox="0 0 228 246" fill="none" xmlns="http://www.w3.org/2000/svg">
<rect width="228" height="246" fill="#1E1E1E"/>
<rect width="393" height="852" transform="translate(-149 -423)" fill="white"/>
<g filter="url(#filter0_d_0_1)">
<path d="M114.28 113.423C112.532 113.993 111.149 114.506 110.018 114.936C104.943 116.816 104.795 116.754 102.008 111.381C101.511 110.43 100.924 109.301 100.205 107.975C91.9437 92.8648 83.688 77.4118 75.7083 62.4772C71.789 55.1359 67.8597 47.7984 63.9206 40.4646C63.2158 39.1451 62.3441 37.9241 61.4941 36.7302C59.9432 34.5562 57.9384 32.4723 54.7354 33.4534C54.5728 33.5034 54.4102 33.5534 54.2614 33.6099C51.4042 34.6948 49.9336 37.3108 50.4414 40.4452L50.5598 41.1762C51.3628 46.256 52.1985 51.5115 54.4925 55.8841C58.2818 63.1219 62.5586 70.2686 66.6944 77.1632C68.9955 81.0158 71.3769 84.9906 73.6497 88.948L75.0153 91.3217C78.1894 96.8179 81.4812 102.505 84.1086 108.385C85.8981 112.385 86.1831 116.368 84.9087 119.591C83.8232 122.355 81.6131 124.487 78.6766 125.602C76.2857 126.51 73.5266 126.747 70.4926 126.288C63.8372 125.288 58.1457 121.324 53.5758 114.512C46.779 104.372 40.6129 93.7097 35.3743 84.5062C32.0478 78.6681 28.8354 72.6221 25.7346 66.7806C23.4658 62.5043 21.1969 58.228 18.8626 53.9883C18.134 52.666 17.076 51.4923 16.0435 50.356C15.5971 49.8671 15.1605 49.3745 14.7399 48.864L14.037 49.225C14.0292 49.5337 14.0115 49.8461 13.9938 50.1585C13.9456 50.9292 13.9056 51.6616 14.0817 52.3354C15.4542 57.5399 16.6555 62.8917 17.8203 68.0575C20.6106 80.4716 23.4934 93.309 29.041 105.123C31.7053 110.801 35.2118 116.665 40.0662 123.569C43.7898 128.868 48.0376 134.921 61.76 131.332L66.6687 130.809L56.9967 134.035C56.4043 134.448 55.9409 134.812 55.5352 135.119C54.8312 135.656 54.0347 135.771 53.4632 135.999C50.6833 137.079 48.0643 138.073 45.2865 139.128L43.2326 140.296C39.9488 141.543 36.9925 142.665 33.7342 143.95L33.893 143.889C32.4049 144.454 32.1825 149.524 31.8707 148.702C30.9586 146.297 29.3931 142.588 29.0983 140.913C23.679 111.274 18.3601 82.4078 13.8711 58.094C12.9643 53.1595 11.5288 48.2375 4.23056 47.129L4.16819 46.6354C6.22176 45.8556 8.16657 45.0583 10.0557 44.2939C11.8259 43.5748 13.5464 42.8744 15.2428 42.2302C17.9412 41.2056 20.1766 40.4861 22.2702 39.9615C25.7914 39.0712 28.83 41.0682 31.5559 46.041C34.1958 50.8466 36.786 55.671 39.3861 60.4916C44.0538 69.1477 48.8781 78.097 53.8268 86.7757C58.5522 95.0454 63.948 103.108 69.1613 110.898L69.483 111.387C70.7427 113.272 72.7737 114.946 74.7802 115.748C76.2297 116.338 78.3357 116.385 79.675 115.876C79.9726 115.763 80.2288 115.631 80.4297 115.472C81.4299 114.728 81.7501 112.161 81.5385 110.137C81.3624 108.475 80.6551 106.581 79.3557 104.382C76.6653 99.7716 73.9291 95.1907 71.1929 90.6099C67.3023 84.0924 63.2824 77.3537 59.4601 70.6574C58.7607 69.4417 58.0474 68.2194 57.338 67.0073C52.7937 59.245 48.0945 51.224 47.5835 41.6479C47.1893 34.4142 50.0151 28.9676 55.9731 25.4354C56.9843 24.8398 57.9969 24.3377 58.989 23.961C64.8223 21.7459 69.9157 23.4448 73.7138 28.8805C78.189 35.2935 82.0573 42.2309 85.9422 49.3618C91.1333 58.889 96.2627 68.4632 101.388 78.0271C106.484 87.5433 111.576 97.0493 116.738 106.529C116.738 106.529 117.71 108.793 117.344 109.861C117.009 110.835 116.482 112.587 114.875 113.197C114.686 113.269 114.478 113.348 114.266 113.417L114.28 113.423Z" fill="black"/>
<path d="M134.773 212.101C129.148 214.237 118.977 218.452 113.602 220.14C112.02 220.636 109.319 219.651 107.977 218.655C96.5261 210.188 83.362 200.855 72.3939 191.746C66.77 187.063 66.4003 182.348 70.7277 176.401C73.5681 172.489 85.3268 164.262 88.0095 160.233C92.3673 154.158 91.6199 148.387 87.4471 139.39C83.3233 130.492 70.5198 130.698 61.9345 133.288C55.5506 135.219 52.9886 136.603 46.7113 138.904C43.4119 140.11 44.8658 142.297 45.6453 144.353C55.6783 170.806 65.7113 197.258 75.7443 223.711C76.4927 225.685 77.5146 227.601 77.9222 229.633C79.2971 236.4 72.8854 234.038 70.2522 236.072C68.4165 237.487 65.8963 238.502 64.4251 234.593C53.4134 205.291 42.3064 176.036 31.126 146.798C29.8319 143.386 31.703 142.663 34.0542 141.77C47.6533 136.63 59.5999 132.07 74.978 126.713C89.6354 120.712 93.0657 124.101 98.5495 136.644C101.61 143.665 101.512 151.367 96.244 158.694C88.8232 165.85 82.1207 169.065 79.3012 171.805C76.6131 174.413 76.2897 176.852 79.4602 179.646C93.938 192.442 111.258 207.616 123.466 212.362C124.56 212.793 126.695 213.006 125.751 208.932C124.807 204.858 133.201 203.916 134.813 212.086L134.773 212.101Z" fill="black"/>
<path d="M122.629 159.197C123.947 156.686 124.928 155.115 125.627 153.426C130.213 142.385 135.081 131.461 139.129 120.2C141.1 114.714 143.077 104.216 134.161 105.815C134.925 105.525 134.694 97.1947 135.361 98.2347C141.233 107.315 164.061 90.2992 169.813 88.738C170.133 88.9813 156.251 97.0272 156.57 97.2704C148.017 114.039 139.283 130.3 130.004 148.508C137.276 144.818 141.753 148.632 146.232 152.034C155.821 159.303 163.384 168.141 169.711 170.759C177.575 174.016 187.517 174.884 196.008 173.871C196.794 174.477 192.763 187.848 194.172 189.229C188.671 190.495 186.984 190.148 185.114 190.094C176.516 189.867 169.537 187.567 166.053 185.292C149.315 174.377 146.985 170.747 132.899 160C132.422 159.641 131.957 158.983 131.474 158.966C129.334 158.92 126.827 158.415 125.204 159.372C124.223 159.956 123.908 163.167 124.479 164.761C129.242 177.919 134.294 190.968 139.249 204.065C141.327 209.542 141.335 209.563 135.874 211.683C126.278 215.409 128.121 215.239 124.733 206.367C114.352 179.235 104.183 152.035 93.712 124.937C92.0958 120.765 93.0201 119.133 96.8981 117.837C106.645 114.57 104.864 113.613 108.704 123.559C112.657 133.803 116.496 144.102 120.4 154.365C120.902 155.691 121.564 156.956 122.586 159.202L122.629 159.197Z" fill="black"/>
<path d="M198.808 102.524C198.531 104.487 198.198 104.895 197.358 105.614C197.836 104.809 196.782 103.258 195.889 102.398C194.46 101.024 192.83 100.796 191.067 100.666C189.304 100.536 187.428 100.708 185.638 100.835C183.784 100.975 181.931 101.208 180.104 101.537C175.766 102.338 171.541 103.707 167.594 105.688C162.759 108.112 158.362 111.721 154.345 115.551C150.751 118.973 150.509 124.05 152.584 128.294C154.588 132.412 157.584 134.296 162.874 133.311C170.307 131.934 177.457 129.36 184.912 128.128C190.037 127.276 195.498 127.013 200.765 127.881C219.513 130.991 228.132 155.182 220.023 170.877C211.112 188.11 190.693 193.583 173.777 188.003C171.689 187.314 170.587 186.145 170.694 183.495C170.849 179.744 170.654 175.938 170.605 171.889C175.484 172.752 179.9 173.803 184.292 174.251C196.742 175.508 207.465 171.613 216.568 163.265C217.418 162.484 218.172 161.539 218.839 160.545C221.166 157.075 222.001 153.172 220.005 148.686C218.108 144.434 215.306 143.569 211.041 142.708C204.801 141.456 199.411 141.399 193.14 142.04C187.25 142.642 179.317 143.209 173.356 143.145C161.743 143.016 154.67 139.541 150.161 127.651C146.099 116.942 148.308 104.781 155.966 97.5937C161.033 92.8482 167.119 89.3849 173.71 87.3408C177.002 86.3258 180.389 85.651 183.82 85.2416C185.57 85.0359 187.332 84.8956 189.099 84.8245C190.952 84.7439 191.505 84.5572 192.752 86.0475C194.558 88.2068 196.002 90.6681 197.034 93.298C197.96 95.6504 199.188 99.8752 198.818 102.52L198.808 102.524Z" fill="black"/>
<path d="M134.161 105.815C131.932 106.579 129.7 107.368 127.497 108.204C125.513 108.958 123.703 109.692 121.955 110.438C121.806 110.495 121.657 110.551 121.508 110.608C120.12 111.135 119.737 110.904 119.007 110.417C118.187 109.87 117.092 108.958 116.94 106.911C115.583 88.8499 114.192 70.7901 112.792 52.734L112.198 45.094C111.974 42.2282 111.749 39.3624 111.519 36.5106C111.06 30.7239 110.592 24.9408 110.191 19.1558C110.045 17.095 110.104 14.8269 110.372 12.4209C111.001 6.86782 113.411 3.37779 117.776 1.72026C122.81 -0.120472 127.445 1.11762 131.002 5.13987C136.395 11.2512 141.424 17.7478 145.639 23.2955C157.45 38.8448 169.371 54.7164 180.902 70.0663L188.615 80.3172C189.07 80.9201 194.45 88.3417 194.45 88.3417C194.45 88.3417 188.285 85.1335 187.162 85.5835C186.088 86.0146 185.035 86.4383 183.993 86.8338C181.949 87.6098 180.355 88.1331 178.814 88.53C177.5 88.8645 175.282 87.3553 174.4 86.1971C168.306 78.3294 162.337 70.3436 156.644 62.4534C154.616 59.6494 152.899 59.0433 150.062 60.1207C149.913 60.1772 149.764 60.2337 149.615 60.2902C146.527 61.6039 143.227 62.9276 139.517 64.3365C135.419 65.8923 131.374 67.346 127.613 68.6803L127.325 68.7895C125.867 69.3433 125.071 69.9392 124.758 70.7284C124.45 71.5036 124.583 72.5114 125.176 73.8967C126.848 77.765 128.45 81.6596 130.056 85.5646C132.023 90.3317 134.052 95.2633 136.165 100.057C136.947 101.818 137.126 102.949 136.774 103.847C136.461 104.636 135.733 105.23 134.483 105.705L134.165 105.825L134.161 105.815ZM116.102 13.8543C112.868 15.0824 111.831 18.3331 112.907 23.8031C115.497 36.9163 118.691 50.1531 121.783 62.946L122.371 65.3919C122.452 65.7256 123.015 66.2525 123.709 66.6472C124.4 67.0316 124.918 67.1406 125.126 67.0615C130.635 65.0988 136.109 63.0437 140.732 61.2882L152.042 56.9937C151.655 56.4233 151.306 55.9211 150.992 55.4525C150.329 54.4816 149.793 53.6975 149.225 52.9489L143.675 45.6157C137.231 37.0934 130.572 28.2762 123.939 19.673C123.465 19.0533 123.02 18.3287 122.593 17.621C121.134 15.212 119.625 12.7284 116.444 13.7365C116.325 13.7817 116.215 13.8232 116.096 13.8684L116.102 13.8543Z" fill="black"/>
<path d="M108.036 118.745C108.071 121.8 110.288 127.437 110.977 129.373C110.283 129.038 107.671 125.444 107.375 124.722C106.865 123.469 106.362 122.202 105.992 120.897C105.69 119.801 104.982 117.577 105.076 116.448C105.17 115.319 106.113 115.29 106.899 114.521C107.853 113.594 109.209 113.279 110.503 113.011C110.913 112.926 111.348 112.844 111.749 112.973C112.693 113.25 114.169 113.489 113.361 113.725C112.707 113.915 112.85 113.872 110.62 114.695C109.3 115.196 107.993 117.256 108.016 118.753L108.036 118.745Z" fill="black"/>
<path d="M93.5835 119.272C93.958 118.553 94.5493 117.988 95.1346 117.436C96.3988 116.251 97.6867 115.068 98.7106 113.668C99.7444 112.265 101.26 111.054 99.2499 106.233C99.1447 105.955 100.616 108.218 100.748 107.968C101.04 107.422 101.797 107.382 102.404 107.516C104.42 107.985 106.074 109.743 106.638 111.798C106.801 112.407 106.884 113.045 106.829 113.678C106.748 114.602 106.385 115.469 105.982 116.292C105.363 117.562 104.613 118.787 103.582 119.719C102.551 120.652 101.274 121.266 99.9747 121.759C98.685 122.249 97.3287 122.623 95.9409 122.644C95.5231 122.65 95.0639 122.636 94.7259 122.882C94.4336 123.099 94.1506 123.759 93.7318 123.612C93.3781 123.488 93.2704 122.635 93.2187 122.349C93.0408 121.312 93.0988 120.208 93.5835 119.272Z" fill="black"/>
<path d="M62.6504 227.461L72.8657 219.772C73.2031 221.619 75.4495 223.353 76.2216 225C77.1305 226.947 78.5861 228.511 80.4789 229.462C81.15 229.795 81.8611 230.054 82.5864 230.26C83.4105 230.488 84.2673 230.563 85.0793 230.818C84.8526 230.999 83.9303 231.29 83.7121 231.373C83.1069 231.603 82.5018 231.833 81.9044 232.083C80.7713 232.537 79.6382 232.99 78.4991 233.458C76.729 234.177 75.0085 234.878 73.312 235.522C71.3577 236.264 68.1086 237.333 67.6356 237.313C67.96 233.38 66.2078 229.12 62.6405 227.464L62.6504 227.461Z" fill="black"/>
</g>
<defs>
<filter id="filter0_d_0_1" x="0.168182" y="0.886841" width="226.904" height="244.446" filterUnits="userSpaceOnUse" color-interpolation-filters="sRGB">
<feFlood flood-opacity="0" result="BackgroundImageFix"/>
<feColorMatrix in="SourceAlpha" type="matrix" values="0 0 0 0 0 0 0 0 0 0 0 0 0 0 0 0 0 0 127 0" result="hardAlpha"/>
<feOffset dy="4"/>
<feGaussianBlur stdDeviation="2"/>
<feComposite in2="hardAlpha" operator="out"/>
<feColorMatrix type="matrix" values="0 0 0 0 0 0 0 0 0 0 0 0 0 0 0 0 0 0 0.25 0"/>
<feBlend mode="normal" in2="BackgroundImageFix" result="effect1_dropShadow_0_1"/>
<feBlend mode="normal" in="SourceGraphic" in2="effect1_dropShadow_0_1" result="shape"/>
</filter>
</defs>
</svg>
