<svg width="196" height="34" viewBox="0 0 196 34" fill="none" xmlns="http://www.w3.org/2000/svg">
<g clip-path="url(#clip0_40_96)">
<path d="M6.51089 2.47987C6.37761 2.82574 6.15769 3.15856 6.11771 3.51096C5.45795 9.49522 3.97851 15.4142 4.47166 21.4768C4.66492 23.8196 5.16473 26.1624 5.7845 28.4399C6.35762 30.5739 7.81041 32.225 10.0562 33.5236C9.38315 33.6868 9.06994 33.8303 8.75006 33.8303C6.22433 33.8499 3.69861 33.8303 1.17955 33.8565C0.146608 33.8695 -0.119959 33.4584 0.066638 32.486C1.84597 23.4215 3.59865 14.3505 5.34466 5.27296C5.66454 3.5958 5.9511 1.89253 3.70528 0.691767C6.17102 0.691767 8.30356 0.515567 10.3961 0.7505C11.8756 0.913648 12.3887 2.29714 12.5886 3.62843C13.335 8.66643 13.9681 13.7175 14.8078 18.7359C15.3343 21.8945 16.1006 25.0138 16.8604 28.1202C17.0403 28.8511 17.5001 29.6277 18.0666 30.1171C18.5464 30.5348 19.4527 30.8676 20.0192 30.711C20.499 30.5804 20.9255 29.7451 21.0988 29.1447C21.2787 28.5052 21.2254 27.7612 21.0988 27.0891C20.3524 22.8603 19.4927 18.6511 18.793 14.4158C18.2265 11.0223 17.3468 7.60923 18.5064 4.16355C19.2528 1.96432 20.7856 0.60693 23.158 0.221901C25.7903 -0.208809 27.723 0.770078 28.396 3.28908C29.0691 5.80808 29.469 8.41192 29.8422 10.9962C30.8618 18.0376 31.7814 25.0922 32.8011 32.1336C32.9943 33.4649 32.6078 33.9217 31.235 33.863C27.3031 33.6933 27.9762 34.4373 27.4164 30.6196C26.1969 22.3056 25.1039 13.9785 23.951 5.65799C23.8844 5.17507 23.7511 4.69215 23.6178 4.22229C23.3513 3.26298 22.9114 2.44071 21.7519 2.36893C20.4923 2.29062 19.6327 3.03457 19.4061 4.08524C19.0329 5.80156 18.5997 7.62229 18.8196 9.32555C19.3461 13.476 20.2657 17.5808 20.9722 21.7183C21.3787 24.1002 21.8252 26.4887 21.9718 28.8968C22.205 32.747 18.9929 34.5939 15.4742 32.7275C13.2284 31.5398 12.0288 29.4645 11.469 27.1935C10.5494 23.4607 9.88297 19.6626 9.25653 15.8645C8.63677 12.1121 8.21692 8.33361 7.65047 4.57468C7.54384 3.84378 7.17065 3.15204 6.91741 2.44071C6.78412 2.45376 6.65751 2.46681 6.52422 2.47987H6.51089Z" fill="black"/>
<path d="M122.241 16.0146C122.981 15.3946 123.487 15.0292 123.927 14.592C126.773 11.7401 129.705 8.95357 132.404 5.96471C133.717 4.50943 134.903 2.74743 133.703 0.443785H140.674C140.747 0.554726 140.821 0.665666 140.901 0.776607C136.056 4.92709 131.218 9.08409 125.96 13.587C128.778 13.3064 129.758 14.9966 130.798 16.5628C134.283 21.8227 137.742 27.1021 141.2 32.3816C141.38 32.6557 141.494 32.982 141.78 33.5693C139.854 33.5693 138.128 33.6541 136.416 33.5106C135.989 33.4714 135.556 32.747 135.236 32.2707C131.971 27.3436 128.725 22.397 125.48 17.4568C125.373 17.2937 125.3 17.0327 125.146 16.9739C124.46 16.7129 123.707 16.2626 123.061 16.367C122.667 16.4323 122.174 17.3785 122.161 17.9398C122.088 22.534 122.121 27.1348 122.121 31.729C122.121 33.6541 122.121 33.6607 120.088 33.6737C116.51 33.6998 117.136 33.863 117.123 30.7436C117.096 21.2027 117.143 11.6684 117.076 2.12747C117.07 0.65914 117.563 0.267585 118.989 0.319793C122.554 0.450311 122.101 -0.0521841 122.121 3.45223C122.141 7.06106 122.121 10.6699 122.121 14.2787C122.121 14.7421 122.181 15.2119 122.234 16.0211L122.241 16.0146Z" fill="black"/>
<path d="M194.054 7.26985C190.076 5.40344 186.077 4.60076 181.952 4.95315C179.833 5.13588 177.707 5.72974 175.688 6.43454C173.888 7.06755 173.089 8.59461 173.255 10.1413C173.422 11.6357 174.261 12.5689 176.347 12.8821C179.28 13.3259 182.278 13.3716 185.197 13.861C187.203 14.1938 189.256 14.7486 191.075 15.6295C197.553 18.7685 197.346 27.2 192.161 31.0764C186.47 35.3313 178.173 34.6265 172.715 30.9393C172.042 30.4825 171.802 29.9996 172.209 29.1969C172.789 28.0679 173.248 26.8737 173.795 25.6207C175.474 26.456 176.954 27.2914 178.513 27.9439C182.925 29.7843 187.423 29.8365 191.948 28.3355C192.375 28.1919 192.781 27.9896 193.168 27.7612C194.507 26.9716 195.367 25.8622 195.254 24.2568C195.147 22.7297 194.141 21.7509 192.781 21.3789C190.415 20.7263 187.976 20.3217 185.577 19.7866C183.318 19.2841 181.012 18.9186 178.826 18.2008C174.561 16.8107 172.442 13.8349 172.442 9.65834C172.442 5.89941 174.955 2.4211 178.786 1.10939C183.698 -0.574293 188.636 -0.202316 193.514 1.25949C195.434 1.83377 195.52 2.20575 194.96 4.08521C194.667 5.07062 194.394 6.05603 194.041 7.26985H194.054Z" fill="black"/>
<path d="M61.3571 33.8043C59.7843 33.8043 58.3782 33.8956 56.992 33.7455C56.5855 33.6998 56.0657 33.0472 55.9191 32.5774C54.9195 29.471 53.9665 26.3517 53.0801 23.2192C52.7603 22.0968 52.2405 21.6269 50.9743 21.6726C48.2553 21.777 45.523 21.7378 42.804 21.6856C41.7311 21.6661 41.2246 21.9467 41.2846 23.0887C41.4312 26.195 41.4578 29.3014 41.6311 32.4012C41.6911 33.4192 41.4645 33.8826 40.3582 33.8434C38.8455 33.7977 37.326 33.7782 35.8199 33.8434C34.5204 33.8956 34.3871 33.3148 34.7137 32.2902C36.7463 25.7839 38.7655 19.2711 40.7914 12.7582C41.6378 10.0238 42.4641 7.28295 43.3371 4.56165C43.5637 3.86337 43.8703 3.17815 44.2235 2.52556C45.0032 1.08334 46.1361 0.124027 47.9221 0.143605C49.7614 0.163182 51.0342 1.10944 51.6607 2.68218C52.607 5.06414 53.4134 7.51136 54.1731 9.95858C56.5122 17.4568 58.8047 24.9682 61.1105 32.4795C61.2171 32.8384 61.2571 33.2169 61.3704 33.8043H61.3571ZM52.2871 21.1114C52.0939 20.3739 51.9872 19.8975 51.8406 19.4342C50.4811 15.0423 49.135 10.6438 47.7288 6.26491C47.3889 5.20771 47.5289 3.58929 45.9495 3.51098C44.2235 3.42614 43.6837 5.05109 43.4704 6.25838C42.6507 10.8592 42.0376 15.4991 41.4178 20.139C41.3779 20.4261 41.911 21.0657 42.1909 21.0657C45.463 21.1309 48.7351 21.1048 52.2871 21.1048V21.1114Z" fill="black"/>
<path d="M115.357 33.8043C113.784 33.8043 112.378 33.8956 110.992 33.7455C110.585 33.6998 110.065 33.0472 109.919 32.5774C108.919 29.471 107.966 26.3517 107.08 23.2192C106.76 22.0968 106.24 21.6269 104.974 21.6726C102.255 21.777 99.5228 21.7378 96.8038 21.6856C95.7308 21.6661 95.2244 21.9467 95.2843 23.0887C95.431 26.195 95.4576 29.3014 95.6309 32.4012C95.6909 33.4192 95.4643 33.8826 94.358 33.8434C92.8453 33.7977 91.3258 33.7782 89.8197 33.8434C88.5202 33.8956 88.3869 33.3148 88.7135 32.2902C90.746 25.7839 92.7653 19.2711 94.7912 12.7582C95.6376 10.0238 96.4639 7.28295 97.3369 4.56165C97.5635 3.86337 97.87 3.17815 98.2233 2.52556C99.003 1.08334 100.136 0.124027 101.922 0.143605C103.761 0.163182 105.034 1.10944 105.66 2.68218C106.607 5.06414 107.413 7.51136 108.173 9.95858C110.512 17.4568 112.804 24.9682 115.11 32.4795C115.217 32.8384 115.257 33.2169 115.37 33.8043H115.357ZM106.287 21.1114C106.094 20.3739 105.987 19.8975 105.84 19.4342C104.481 15.0423 103.135 10.6438 101.729 6.26491C101.389 5.20771 101.529 3.58929 99.9493 3.51098C98.2232 3.42614 97.6834 5.05109 97.4702 6.25838C96.6505 10.8592 96.0374 15.4991 95.4176 20.139C95.3776 20.4261 95.9108 21.0657 96.1907 21.0657C99.4628 21.1309 102.735 21.1048 106.287 21.1048V21.1114Z" fill="black"/>
<path d="M170.296 33.8043C168.724 33.8043 167.317 33.8956 165.931 33.7455C165.525 33.6998 165.005 33.0472 164.858 32.5774C163.859 29.471 162.906 26.3517 162.019 23.2192C161.7 22.0968 161.18 21.6269 159.914 21.6726C157.195 21.777 154.462 21.7378 151.743 21.6856C150.67 21.6661 150.164 21.9467 150.224 23.0887C150.37 26.195 150.397 29.3014 150.57 32.4012C150.63 33.4192 150.404 33.8826 149.297 33.8434C147.785 33.7977 146.265 33.7782 144.759 33.8434C143.46 33.8956 143.326 33.3148 143.653 32.2902C145.685 25.7839 147.705 19.2711 149.731 12.7582C150.577 10.0238 151.403 7.28295 152.276 4.56165C152.503 3.86337 152.81 3.17815 153.163 2.52556C153.942 1.08334 155.075 0.124027 156.861 0.143605C158.701 0.163182 159.973 1.10944 160.6 2.68218C161.546 5.06414 162.353 7.51136 163.112 9.95858C165.451 17.4568 167.744 24.9682 170.05 32.4795C170.156 32.8384 170.196 33.2169 170.31 33.8043H170.296ZM161.226 21.1114C161.033 20.3739 160.926 19.8975 160.78 19.4342C159.42 15.0423 158.074 10.6438 156.668 6.26491C156.328 5.20771 156.468 3.58929 154.889 3.51098C153.163 3.42614 152.623 5.05109 152.41 6.25838C151.59 10.8592 150.977 15.4991 150.357 20.139C150.317 20.4261 150.85 21.0657 151.13 21.0657C154.402 21.1309 157.674 21.1048 161.226 21.1048V21.1114Z" fill="black"/>
<path d="M85.0282 32.4403C82.0693 29.1447 77.8909 22.8799 74.7654 17.261C74.079 16.0342 74.4855 15.3228 75.6784 14.8334C76.9312 14.3179 79.5036 14.109 82.7957 12.7843C85.4081 11.1528 86.3944 8.79694 86.2611 6.28446C86.0278 1.79463 85.3281 0.352407 79.8301 0.489451C74.1789 0.339355 69.7339 0.352407 64.6825 0.339355C63.8095 0.339355 63.1097 0.339355 63.1097 1.54012C63.1364 11.8184 63.143 22.0967 63.1097 32.3816C63.1097 33.752 64.0494 33.7324 64.8224 33.5171C65.9287 33.2038 67.7213 34.6722 68.1079 32.4338C68.2211 31.7616 68.1279 31.0503 68.1279 30.3585C68.1279 21.0657 68.1279 11.7793 68.1279 2.48638C68.1279 1.762 67.9279 0.926688 69.1475 0.939739C71.4666 0.965843 72.4729 0.841851 74.7854 0.991947C77.8909 1.19425 82.076 2.62342 82.3225 5.8407C82.5691 9.0906 82.1026 10.9505 79.9368 12.3079C78.5706 13.2346 73.7391 14.3896 72.3329 15.2576C70.2004 16.5823 69.7339 18.0703 70.9868 20.1651C73.4259 24.2438 76.5514 28.6422 79.2304 32.5774C79.5436 33.0407 80.3033 33.6541 80.8764 33.6868C82.1826 33.7585 84.3151 33.7324 86.2144 33.7129C85.8545 33.4323 85.3347 32.7992 85.0215 32.4468L85.0282 32.4403Z" fill="black"/>
</g>
<defs>
<clipPath id="clip0_40_96">
<rect width="196" height="34" fill="white"/>
</clipPath>
</defs>
</svg>
